<svg width="348" height="233" viewBox="0 0 348 233" fill="none" xmlns="http://www.w3.org/2000/svg">
<path d="M77.4472 128.97C78.6596 128.234 79.95 127.676 81.2812 127.296L82.0709 123.485L88.4825 123.372L89.4054 127.153C90.7491 127.485 92.0585 127.997 93.296 128.69L96.5366 126.556L101.15 131.03L99.1415 134.357C99.8741 135.574 100.43 136.871 100.808 138.208L104.602 139.001L104.715 145.44L100.951 146.367C100.619 147.716 100.11 149.031 99.4204 150.274L101.544 153.528L97.0901 158.162L93.7772 156.144C92.5648 156.88 91.2739 157.438 89.9427 157.817L89.153 161.629L82.7414 161.742L81.8185 157.96C80.4748 157.628 79.1658 157.116 77.9283 156.424L74.6878 158.557L70.0742 154.083L72.0829 150.757C71.3502 149.539 70.7943 148.242 70.4166 146.906L66.622 146.112L66.5098 139.673L70.2747 138.746C70.606 137.397 71.1159 136.082 71.8049 134.839L69.6812 131.585L74.1351 126.951L77.4472 128.97ZM80.865 137.548C78.2262 140.293 78.3023 144.667 81.0358 147.317C83.7692 149.967 88.1243 149.89 90.763 147.145C93.4018 144.4 93.3257 140.026 90.5923 137.376C87.8589 134.726 83.5038 134.803 80.865 137.548Z" fill="#F8F9FA"/>
<path d="M34.0993 41.7682C34.8681 41.3012 35.6871 40.9476 36.5316 40.7066L37.0327 38.2886L41.1001 38.2168L41.6857 40.6153C42.538 40.8264 43.3686 41.1507 44.1537 41.5902L46.2092 40.2369L49.1361 43.0748L47.862 45.1854C48.3269 45.958 48.6791 46.7805 48.919 47.6286L51.3262 48.1319L51.3977 52.2168L49.0095 52.8049C48.7993 53.661 48.4759 54.4951 48.0388 55.2831L49.3862 57.348L46.5609 60.2875L44.4595 59.0079C43.6902 59.4748 42.8712 59.8285 42.0267 60.0694L41.5256 62.4875L37.4582 62.5592L36.8726 60.1607C36.0202 59.9496 35.1897 59.6248 34.4046 59.1854L32.3486 60.5387L29.4217 57.7007L30.6958 55.5902C30.2309 54.8176 29.8787 53.9956 29.6388 53.147L27.2316 52.6437L27.1602 48.5587L29.5484 47.9706C29.7586 47.1146 30.082 46.2805 30.5191 45.492L29.1716 43.4271L31.9974 40.4876L34.0993 41.7682ZM36.2675 47.2101C34.5934 48.9516 34.6417 51.7261 36.3761 53.4075C38.1101 55.0888 40.8727 55.0399 42.5469 53.2984C44.221 51.557 44.1723 48.7824 42.4383 47.1011C40.7043 45.4198 37.9417 45.4687 36.2675 47.2101Z" fill="#E0E0E0"/>
<path d="M291.675 43.7124C292.711 43.0842 293.813 42.608 294.949 42.2836L295.623 39.0296L301.098 38.9331L301.886 42.1611C303.033 42.4449 304.151 42.882 305.207 43.4733L307.974 41.6517L311.913 45.4716L310.198 48.3118C310.824 49.3519 311.298 50.4587 311.621 51.6004L314.861 52.2775L314.957 57.7758L311.743 58.5671C311.46 59.719 311.025 60.8416 310.436 61.9027L312.25 64.6819L308.447 68.6378L305.618 66.9155C304.583 67.5436 303.48 68.0199 302.344 68.3442L301.669 71.5983L296.195 71.6948L295.407 68.4663C294.26 68.1825 293.143 67.745 292.086 67.1541L289.319 68.9757L285.38 65.1559L287.095 62.3151C286.469 61.2755 285.995 60.1687 285.672 59.027L282.432 58.3499L282.336 52.8521L285.551 52.0603C285.833 50.9084 286.269 49.7858 286.857 48.7247L285.044 45.9459L288.847 41.9901L291.675 43.7124ZM294.593 51.037C292.34 53.381 292.406 57.1155 294.74 59.3784C297.074 61.6413 300.792 61.5756 303.045 59.2316C305.298 56.8876 305.232 53.1531 302.899 50.8907C300.565 48.6273 296.847 48.693 294.593 51.037Z" fill="#E0E0E0"/>
<path d="M214.286 131.107C215.18 130.564 216.132 130.152 217.114 129.872L217.697 127.06L222.428 126.977L223.108 129.766C224.099 130.011 225.065 130.389 225.979 130.9L228.369 129.327L231.773 132.627L230.291 135.081C230.832 135.98 231.241 136.936 231.52 137.922L234.319 138.507L234.402 143.258L231.625 143.942C231.381 144.937 231.005 145.907 230.496 146.824L232.063 149.225L228.777 152.643L226.333 151.155C225.438 151.698 224.486 152.109 223.504 152.389L222.921 155.201L218.191 155.285L217.511 152.495C216.519 152.25 215.553 151.872 214.641 151.361L212.25 152.935L208.847 149.634L210.329 147.18C209.788 146.282 209.378 145.325 209.099 144.339L206.3 143.754L206.217 139.003L208.994 138.319C209.238 137.324 209.615 136.353 210.123 135.437L208.556 133.036L211.842 129.617L214.286 131.107ZM216.807 137.435C214.86 139.46 214.917 142.687 216.933 144.642C218.95 146.598 222.163 146.541 224.11 144.515C226.056 142.49 226 139.264 223.983 137.308C221.967 135.353 218.754 135.41 216.807 137.435Z" fill="#F5F5F5"/>
<path d="M311.407 25.4469C311.815 25.199 312.25 25.0107 312.699 24.883L312.965 23.5983L315.126 23.5601L315.437 24.8341C315.89 24.9459 316.331 25.1188 316.748 25.3523L317.841 24.6333L319.395 26.1412L318.718 27.2624C318.965 27.673 319.153 28.1101 319.28 28.5602L320.559 28.8277L320.597 30.9979L319.328 31.3101C319.217 31.7649 319.045 32.2081 318.812 32.627L319.528 33.724L318.027 35.2856L316.911 34.6057C316.502 34.8536 316.067 35.0418 315.618 35.1695L315.352 36.4543L313.191 36.4925L312.88 35.218C312.428 35.1057 311.986 34.9333 311.569 34.6998L310.477 35.4188L308.922 33.9113L309.599 32.7901C309.352 32.3796 309.165 31.9429 309.038 31.4923L307.759 31.2248L307.721 29.0547L308.989 28.7424C309.101 28.2876 309.273 27.8445 309.505 27.4255L308.789 26.3286L310.29 24.767L311.407 25.4469ZM312.558 28.338C311.669 29.2634 311.695 30.7374 312.616 31.6302C313.537 32.5236 315.005 32.4975 315.894 31.5725C316.784 30.6475 316.758 29.173 315.837 28.2802C314.915 27.3873 313.448 27.4129 312.558 28.338Z" fill="#E0E0E0"/>
<path d="M308.807 93.0909C309.216 92.843 309.651 92.6548 310.099 92.5271L310.366 91.2423L312.527 91.2041L312.837 92.4781C313.29 92.59 313.732 92.7629 314.149 92.9963L315.241 92.2773L316.796 93.7853L316.119 94.9065C316.366 95.317 316.553 95.7541 316.68 96.2043L317.959 96.4718L317.997 98.6419L316.729 98.9542C316.617 99.409 316.445 99.8521 316.213 100.271L316.928 101.368L315.427 102.93L314.311 102.25C313.902 102.498 313.468 102.686 313.019 102.814L312.752 104.098L310.592 104.137L310.281 102.862C309.828 102.75 309.387 102.577 308.97 102.344L307.877 103.063L306.322 101.555L306.999 100.434C306.753 100.024 306.565 99.587 306.438 99.1364L305.159 98.8689L305.121 96.6987L306.39 96.3865C306.501 95.9317 306.673 95.4885 306.906 95.0696L306.19 93.9726L307.691 92.411L308.807 93.0909ZM309.959 95.9825C309.07 96.9079 309.096 98.3819 310.017 99.2752C310.938 100.169 312.406 100.142 313.295 99.2174C314.184 98.2924 314.158 96.818 313.237 95.9247C312.316 95.0314 310.849 95.057 309.959 95.9825Z" fill="#F5F5F5"/>
<path d="M88.9601 175.76C89.5141 175.424 90.1038 175.169 90.7126 174.995L91.0736 173.253L94.0042 173.202L94.426 174.93C95.0403 175.082 95.6389 175.315 96.2045 175.632L97.6856 174.657L99.7945 176.702L98.8762 178.223C99.2112 178.78 99.465 179.372 99.6376 179.983L101.372 180.346L101.424 183.289L99.7031 183.713C99.5518 184.329 99.3189 184.93 99.0034 185.498L99.974 186.986L97.9385 189.104L96.424 188.182C95.87 188.519 95.2798 188.774 94.6714 188.947L94.3105 190.689L91.3798 190.74L90.9581 189.012C90.3437 188.86 89.7456 188.626 89.18 188.309L87.6989 189.284L85.59 187.239L86.5083 185.719C86.1733 185.162 85.9195 184.57 85.7469 183.959L84.0124 183.596L83.9609 180.653L85.6819 180.229C85.8332 179.613 86.0666 179.012 86.3816 178.444L85.4109 176.956L87.447 174.838L88.9601 175.76ZM90.5224 179.681C89.316 180.936 89.3512 182.935 90.6003 184.146C91.8499 185.358 93.8404 185.322 95.0464 184.068C96.2528 182.813 96.2175 180.814 94.9684 179.603C93.7189 178.391 91.7283 178.426 90.5224 179.681Z" fill="#F5F5F5"/>
<path d="M161.285 209.104V221.74H179.684H199.978V209.104H161.285Z" fill="#F5F5F5"/>
<path d="M159.662 205.571V209.104H201.331V205.571H179.685H159.662Z" fill="#E0E0E0"/>
<path d="M180.498 221.74H199.979V209.104H201.332V205.571H179.686V208.777L180.498 221.74Z" fill="#E0E0E0"/>
<path d="M174.544 211.142H166.697V213.044H174.544V211.142Z" fill="#E0E0E0"/>
<path d="M175.763 215.422H165.688V219.438H175.763V215.422Z" fill="white"/>
<path d="M167.236 192.952V205.588H185.636H205.929V192.952H167.236Z" fill="#F5F5F5"/>
<path d="M165.613 189.419V192.952H207.282V189.419H185.636H165.613Z" fill="#E0E0E0"/>
<path d="M186.448 205.588H205.93V192.952H207.283V189.419H185.637V192.626L186.448 205.588Z" fill="#E0E0E0"/>
<path d="M180.495 194.99H172.648V196.892H180.495V194.99Z" fill="#E0E0E0"/>
<path d="M181.714 199.27H171.639V203.286H181.714V199.27Z" fill="white"/>
<path d="M327.312 221.737C327.312 221.804 258.666 221.859 174.007 221.859C89.3182 221.859 20.6875 221.804 20.6875 221.737C20.6875 221.67 89.3187 221.616 174.007 221.616C258.666 221.616 327.312 221.671 327.312 221.737Z" fill="#2B2B2B"/>
<path d="M136.479 219.844C131.465 220.962 126.073 220.575 121.001 218.397C114.755 215.716 109.921 210.751 107.393 204.418C104.863 198.085 104.941 191.143 107.612 184.869C113.124 171.918 128.101 165.885 140.997 171.421C147.244 174.103 152.077 179.068 154.606 185.4C157.134 191.732 157.057 198.675 154.386 204.949C151.041 212.807 144.212 218.119 136.479 219.844ZM125.885 171.645C118.669 173.255 112.299 178.21 109.178 185.541C106.686 191.395 106.614 197.873 108.973 203.781C111.332 209.69 115.842 214.322 121.671 216.824C127.5 219.327 133.95 219.4 139.833 217.03C145.716 214.661 150.328 210.132 152.82 204.278C155.311 198.424 155.384 191.946 153.024 186.038C150.665 180.129 146.156 175.497 140.327 172.995C135.595 170.963 130.562 170.601 125.885 171.645Z" fill="#455A64"/>
<path d="M136.479 219.844C131.465 220.962 126.073 220.575 121.001 218.397C114.755 215.716 109.921 210.751 107.393 204.418C104.863 198.085 104.941 191.143 107.612 184.869C113.124 171.918 128.101 165.885 140.997 171.421C147.244 174.103 152.077 179.068 154.606 185.4C157.134 191.732 157.057 198.675 154.386 204.949C151.041 212.807 144.212 218.119 136.479 219.844ZM125.885 171.645C118.669 173.255 112.299 178.21 109.178 185.541C106.686 191.395 106.614 197.873 108.973 203.781C111.332 209.69 115.842 214.322 121.671 216.824C127.5 219.327 133.95 219.4 139.833 217.03C145.716 214.661 150.328 210.132 152.82 204.278C155.311 198.424 155.384 191.946 153.024 186.038C150.665 180.129 146.156 175.497 140.327 172.995C135.595 170.963 130.562 170.601 125.885 171.645Z" fill="#2B2B2B"/>
<path d="M135.61 220.914C130.596 222.032 125.204 221.644 120.132 219.467C113.886 216.785 109.052 211.82 106.524 205.488C103.994 199.155 104.072 192.213 106.743 185.939C112.254 172.988 127.231 166.955 140.127 172.492C146.374 175.174 151.207 180.138 153.736 186.471C156.265 192.803 156.187 199.746 153.517 206.02C150.173 213.876 143.343 219.188 135.61 220.914ZM125.017 172.714C117.801 174.324 111.43 179.279 108.309 186.611C105.817 192.464 105.745 198.943 108.104 204.851C110.463 210.76 114.973 215.392 120.802 217.894C126.631 220.397 133.081 220.469 138.964 218.099C144.847 215.73 149.459 211.2 151.951 205.347C154.442 199.493 154.515 193.016 152.155 187.107C149.796 181.198 145.287 176.566 139.458 174.064C134.726 172.032 129.694 171.671 125.017 172.714Z" fill="#455A64"/>
<path d="M194.15 219.343L193.741 220.396C193.376 221.336 191.747 221.583 190.739 221.183L152.658 206.294L154.576 201.346L192.6 216.213C193.838 216.735 194.619 218.132 194.15 219.343Z" fill="#455A64"/>
<path d="M141.379 186.296C141.421 186.348 136.586 190.351 130.582 195.236C124.575 200.123 119.673 204.041 119.631 203.989C119.589 203.936 124.423 199.934 130.429 195.048C136.434 190.162 141.337 186.244 141.379 186.296Z" fill="#2B2B2B"/>
<path d="M134.786 184.816C134.829 184.867 131.254 187.922 126.802 191.639C122.349 195.357 118.705 198.328 118.662 198.276C118.62 198.224 122.194 195.17 126.647 191.452C131.099 187.736 134.743 184.764 134.786 184.816Z" fill="#2B2B2B"/>
<path d="M140.844 194.094C140.887 194.146 138.44 196.259 135.38 198.814C132.318 201.369 129.803 203.399 129.76 203.348C129.718 203.296 132.164 201.183 135.225 198.627C138.286 196.073 140.802 194.043 140.844 194.094Z" fill="#2B2B2B"/>
<path d="M303.613 119.509C303.767 129.227 296.057 137.26 286.426 137.416C276.795 137.572 268.833 129.793 268.678 120.075C268.524 110.358 276.233 102.325 285.865 102.169C295.496 102.013 303.458 109.792 303.613 119.509ZM277.794 119.928C277.868 124.574 281.675 128.293 286.279 128.219C290.885 128.144 294.571 124.303 294.497 119.657C294.424 115.01 290.616 111.291 286.011 111.366C281.406 111.441 277.72 115.282 277.794 119.928Z" fill="#F5F5F5"/>
<path d="M303.613 119.509C303.767 129.227 296.057 137.26 286.426 137.416L286.28 128.219C290.885 128.144 294.571 124.303 294.497 119.657C294.424 115.011 290.617 111.291 286.011 111.366L285.865 102.169C295.496 102.013 303.458 109.792 303.613 119.509Z" fill="#455A64"/>
<path d="M277.793 119.928C277.788 119.928 277.786 119.882 277.785 119.792C277.786 119.688 277.786 119.555 277.787 119.39C277.785 119.214 277.791 118.995 277.831 118.74C277.861 118.484 277.889 118.186 277.975 117.861C278.103 117.201 278.386 116.418 278.844 115.581C279.308 114.749 279.987 113.872 280.926 113.118C281.863 112.371 283.057 111.725 284.448 111.443C285.83 111.171 287.399 111.184 288.904 111.73C289.661 111.981 290.394 112.365 291.068 112.857C291.416 113.09 291.723 113.383 292.042 113.665C292.333 113.977 292.636 114.284 292.888 114.64C293.953 116.02 294.572 117.806 294.617 119.654C294.631 121.503 294.069 123.309 293.05 124.722C292.809 125.086 292.516 125.403 292.235 125.724C291.925 126.017 291.628 126.32 291.288 126.564C290.63 127.078 289.909 127.485 289.161 127.761C287.674 128.355 286.106 128.42 284.715 128.193C283.316 127.956 282.102 127.349 281.142 126.633C280.179 125.909 279.472 125.055 278.982 124.238C278.497 123.417 278.189 122.643 278.041 121.988C277.944 121.666 277.907 121.369 277.868 121.114C277.821 120.859 277.807 120.642 277.804 120.465C277.798 120.3 277.794 120.168 277.79 120.064C277.787 119.974 277.788 119.928 277.793 119.928C277.836 119.923 277.79 120.677 278.132 121.963C278.292 122.607 278.609 123.365 279.097 124.166C279.59 124.964 280.294 125.795 281.244 126.495C282.191 127.188 283.381 127.772 284.749 127.994C286.107 128.207 287.636 128.137 289.081 127.552C289.808 127.281 290.508 126.882 291.147 126.38C291.477 126.142 291.765 125.846 292.066 125.561C292.339 125.248 292.623 124.939 292.856 124.584C293.846 123.208 294.388 121.455 294.375 119.657C294.33 117.861 293.732 116.127 292.699 114.784C292.455 114.437 292.16 114.138 291.878 113.833C291.568 113.558 291.271 113.272 290.933 113.045C290.278 112.564 289.566 112.187 288.831 111.941C287.368 111.404 285.838 111.383 284.488 111.64C283.128 111.906 281.957 112.529 281.032 113.252C280.105 113.982 279.428 114.835 278.961 115.649C278.498 116.466 278.206 117.233 278.066 117.882C277.766 119.178 277.835 119.931 277.793 119.928Z" fill="#2B2B2B"/>
<path d="M303.612 119.509C303.612 119.509 303.597 119.413 303.581 119.225C303.565 119.028 303.543 118.751 303.514 118.392C303.5 118.208 303.484 118.003 303.467 117.778C303.44 117.553 303.388 117.31 303.345 117.045C303.252 116.516 303.164 115.903 302.952 115.237C302.624 113.884 301.966 112.29 300.946 110.603C299.917 108.924 298.443 107.174 296.449 105.698C294.46 104.235 291.958 103.002 289.08 102.529C288.359 102.439 287.63 102.299 286.876 102.307C286.501 102.3 286.122 102.269 285.741 102.282C285.361 102.308 284.977 102.334 284.591 102.36C284.399 102.378 284.203 102.378 284.011 102.409L283.432 102.508C283.046 102.58 282.653 102.631 282.266 102.721C281.501 102.943 280.71 103.117 279.959 103.448C279.184 103.713 278.459 104.117 277.711 104.493C277.35 104.703 277.001 104.94 276.641 105.164C276.275 105.378 275.943 105.646 275.607 105.912C274.909 106.413 274.303 107.035 273.669 107.635C273.381 107.965 273.093 108.296 272.803 108.629L272.585 108.879L272.392 109.149L272.003 109.691L271.613 110.235L271.274 110.817L270.935 111.401L270.765 111.694L270.623 112.003C270.434 112.415 270.244 112.829 270.054 113.245C269.905 113.677 269.755 114.11 269.605 114.546C269.069 116.309 268.793 118.175 268.798 120.069C268.854 121.964 269.187 123.821 269.779 125.566C269.944 125.996 270.107 126.425 270.27 126.852C270.473 127.261 270.676 127.669 270.878 128.076L271.03 128.379L271.209 128.667L271.567 129.24L271.924 129.81L272.331 130.342L272.737 130.872L272.939 131.135L273.165 131.378C273.465 131.702 273.765 132.024 274.062 132.344C274.716 132.923 275.342 133.526 276.055 134.004C276.399 134.258 276.739 134.516 277.113 134.717C277.479 134.93 277.836 135.156 278.204 135.354C278.964 135.705 279.702 136.086 280.486 136.326C281.246 136.632 282.043 136.78 282.814 136.978C283.205 137.055 283.6 137.093 283.987 137.152L284.569 137.233C284.762 137.257 284.958 137.252 285.151 137.262C285.538 137.276 285.922 137.29 286.303 137.304C286.684 137.304 287.061 137.261 287.436 137.241C288.19 137.225 288.914 137.061 289.632 136.948C292.493 136.381 294.955 135.067 296.895 133.541C298.841 132.001 300.257 130.204 301.232 128.492C302.197 126.773 302.804 125.159 303.089 123.796C303.279 123.125 303.347 122.508 303.423 121.977C303.458 121.711 303.502 121.467 303.522 121.241C303.532 121.016 303.541 120.811 303.549 120.627C303.567 120.266 303.58 119.989 303.59 119.791C303.6 119.606 303.612 119.509 303.612 119.509C303.612 119.509 303.617 119.606 303.615 119.794C303.611 119.991 303.605 120.27 303.598 120.631C303.593 120.816 303.588 121.022 303.583 121.249C303.567 121.475 303.526 121.721 303.495 121.989C303.426 122.523 303.365 123.143 303.18 123.821C302.908 125.194 302.311 126.823 301.349 128.562C300.379 130.293 298.959 132.113 297.001 133.678C295.049 135.228 292.565 136.565 289.673 137.147C288.947 137.265 288.215 137.432 287.452 137.451C287.073 137.471 286.691 137.515 286.305 137.517C285.919 137.504 285.53 137.491 285.139 137.478C284.943 137.467 284.746 137.472 284.55 137.449L283.961 137.369C283.568 137.31 283.168 137.272 282.773 137.194C281.991 136.996 281.184 136.848 280.413 136.539C279.618 136.298 278.87 135.914 278.1 135.559C277.726 135.358 277.365 135.13 276.994 134.916C276.615 134.711 276.27 134.451 275.92 134.194C275.197 133.71 274.562 133.101 273.899 132.514C273.597 132.19 273.294 131.864 272.988 131.537L272.76 131.291L272.555 131.023L272.143 130.487L271.73 129.948L271.367 129.371L271.004 128.789L270.821 128.498L270.667 128.19C270.462 127.779 270.257 127.365 270.05 126.951C269.885 126.518 269.719 126.083 269.552 125.646C268.951 123.877 268.612 121.994 268.557 120.074C268.551 118.154 268.83 116.262 269.375 114.475C269.528 114.034 269.68 113.594 269.831 113.156C270.024 112.734 270.217 112.315 270.409 111.897L270.553 111.584L270.726 111.287L271.07 110.695L271.414 110.106L271.81 109.554L272.204 109.005L272.4 108.732L272.621 108.479C272.916 108.142 273.208 107.806 273.5 107.473C274.144 106.865 274.759 106.236 275.467 105.729C275.808 105.461 276.144 105.189 276.516 104.973C276.88 104.746 277.234 104.507 277.601 104.295C278.359 103.915 279.094 103.507 279.88 103.24C280.641 102.907 281.443 102.731 282.217 102.508C282.61 102.418 283.008 102.367 283.399 102.296L283.985 102.196C284.18 102.166 284.378 102.165 284.573 102.148C284.964 102.123 285.352 102.097 285.737 102.071C286.123 102.06 286.506 102.092 286.886 102.1C287.648 102.095 288.386 102.237 289.115 102.331C292.024 102.818 294.55 104.075 296.551 105.56C298.558 107.06 300.035 108.834 301.061 110.533C302.078 112.239 302.727 113.849 303.043 115.213C303.249 115.884 303.331 116.502 303.416 117.034C303.456 117.301 303.504 117.545 303.527 117.771C303.54 117.997 303.552 118.203 303.562 118.388C303.58 118.749 303.595 119.027 303.605 119.224C303.614 119.413 303.612 119.509 303.612 119.509Z" fill="#2B2B2B"/>
<path d="M287.994 138.83C276.727 139.013 267.738 130.23 267.557 118.861L278.221 118.688C278.308 124.124 282.426 127.547 287.814 127.46L287.994 138.83Z" fill="#058C42"/>
<path d="M287.994 138.831C287.991 138.827 287.986 138.756 287.981 138.619C287.976 138.472 287.97 138.273 287.961 138.02C287.947 137.483 287.928 136.717 287.902 135.74C287.859 133.764 287.798 130.934 287.722 127.462L287.813 127.55C286.789 127.557 285.701 127.456 284.605 127.156C283.511 126.858 282.408 126.356 281.425 125.601C280.444 124.85 279.593 123.84 279.014 122.646C278.43 121.454 278.125 120.089 278.102 118.691L278.221 118.807C275.607 118.85 272.827 118.896 269.963 118.944C269.139 118.957 268.322 118.971 267.557 118.983L267.675 118.86C267.738 121.078 268.118 123.219 268.761 125.194C268.943 125.681 269.123 126.162 269.301 126.64C269.502 127.106 269.74 127.552 269.954 128.002C270.155 128.459 270.424 128.872 270.681 129.286C270.945 129.695 271.165 130.126 271.47 130.492C271.757 130.869 272.041 131.243 272.32 131.611C272.618 131.963 272.938 132.288 273.24 132.62C273.392 132.785 273.543 132.948 273.693 133.11C273.858 133.257 274.022 133.403 274.184 133.547C274.51 133.836 274.829 134.119 275.144 134.398C276.483 135.408 277.795 136.275 279.1 136.849C279.422 136.999 279.737 137.145 280.045 137.288C280.359 137.41 280.673 137.511 280.974 137.619C281.276 137.725 281.57 137.827 281.855 137.927C282.141 138.019 282.43 138.072 282.702 138.143C282.976 138.21 283.24 138.274 283.495 138.336C283.622 138.366 283.747 138.397 283.869 138.427C283.993 138.45 284.116 138.463 284.235 138.481C284.711 138.549 285.148 138.61 285.541 138.666C285.934 138.738 286.279 138.729 286.58 138.749C286.88 138.764 287.135 138.777 287.346 138.789C287.546 138.8 287.704 138.809 287.823 138.816C287.933 138.823 287.991 138.828 287.994 138.831C287.997 138.833 287.945 138.834 287.841 138.834C287.723 138.833 287.568 138.831 287.371 138.829C287.157 138.826 286.898 138.822 286.594 138.818C286.287 138.807 285.923 138.822 285.532 138.756C285.136 138.707 284.697 138.652 284.217 138.591C284.097 138.575 283.974 138.563 283.849 138.541C283.725 138.513 283.6 138.484 283.472 138.455C283.215 138.395 282.948 138.334 282.672 138.27C282.397 138.201 282.106 138.15 281.817 138.061C281.529 137.964 281.232 137.863 280.928 137.76C280.623 137.653 280.306 137.555 279.987 137.434C279.677 137.292 279.358 137.147 279.032 136.999C277.712 136.43 276.382 135.564 275.024 134.55C274.705 134.27 274.381 133.986 274.051 133.696C273.886 133.551 273.72 133.404 273.553 133.257C273.401 133.094 273.247 132.93 273.092 132.764C272.786 132.43 272.461 132.102 272.158 131.748C271.874 131.377 271.587 131.001 271.295 130.62C270.986 130.251 270.761 129.816 270.493 129.404C270.232 128.986 269.959 128.568 269.754 128.107C269.536 127.652 269.295 127.202 269.09 126.73C268.909 126.248 268.726 125.761 268.542 125.269C267.886 123.272 267.5 121.107 267.435 118.864L267.432 118.743L267.554 118.741C268.318 118.728 269.135 118.715 269.96 118.702C272.823 118.657 275.605 118.613 278.218 118.572L278.336 118.57L278.338 118.688C278.357 120.055 278.653 121.386 279.217 122.548C279.778 123.711 280.601 124.695 281.555 125.431C282.51 126.171 283.586 126.667 284.658 126.965C285.732 127.264 286.801 127.37 287.811 127.37H287.901L287.902 127.459C287.938 130.956 287.966 133.804 287.986 135.794C287.992 136.764 287.997 137.523 288 138.055C287.999 138.301 287.999 138.495 287.999 138.639C287.999 138.768 287.997 138.833 287.994 138.831Z" fill="#2B2B2B"/>
<path d="M297.136 18.377H204.686V87.7849H297.136V18.377Z" fill="white"/>
<path d="M297.136 18.377H204.686V26.956H297.136V18.377Z" fill="#E0E0E0"/>
<path d="M209.747 23.9028C210.426 23.9028 210.978 23.3493 210.978 22.6665C210.978 21.9837 210.426 21.4302 209.747 21.4302C209.067 21.4302 208.516 21.9837 208.516 22.6665C208.516 23.3493 209.067 23.9028 209.747 23.9028Z" fill="white"/>
<path d="M213.897 23.9028C214.577 23.9028 215.128 23.3493 215.128 22.6665C215.128 21.9837 214.577 21.4302 213.897 21.4302C213.217 21.4302 212.666 21.9837 212.666 22.6665C212.666 23.3493 213.217 23.9028 213.897 23.9028Z" fill="white"/>
<path d="M218.047 23.9028C218.727 23.9028 219.278 23.3493 219.278 22.6665C219.278 21.9837 218.727 21.4302 218.047 21.4302C217.368 21.4302 216.816 21.9837 216.816 22.6665C216.816 23.3493 217.368 23.9028 218.047 23.9028Z" fill="white"/>
<path d="M297.136 87.7849C297.136 87.7849 297.129 87.3497 297.126 86.5155C297.123 85.6795 297.119 84.4437 297.114 82.8299C297.108 79.6005 297.1 74.8618 297.089 68.8098C297.076 56.7157 297.059 39.3754 297.037 18.377L297.136 18.4763C271.066 18.4823 239.138 18.4898 204.693 18.4982H204.685L204.806 18.377C204.802 43.3215 204.797 66.9496 204.794 87.7849L204.685 87.6754C232.062 87.6978 255.16 87.7169 271.419 87.7299C279.555 87.7425 285.978 87.7523 290.372 87.7593C292.568 87.7649 294.256 87.7695 295.398 87.7723C295.967 87.7751 296.399 87.7774 296.693 87.7788C296.985 87.7802 297.136 87.7849 297.136 87.7849C297.136 87.7849 296.993 87.7891 296.706 87.7914C296.415 87.7928 295.986 87.7951 295.423 87.7979C294.285 87.8007 292.605 87.8054 290.418 87.811C286.03 87.818 279.616 87.8278 271.49 87.8403C255.214 87.8539 232.091 87.8725 204.685 87.8949H204.576V87.7849C204.572 66.9496 204.569 43.3215 204.564 18.377V18.2554H204.685H204.693C239.137 18.2638 271.065 18.2712 297.136 18.2773H297.235V18.377C297.214 39.4015 297.196 56.7628 297.184 68.8723C297.173 74.9144 297.164 79.6457 297.158 82.87C297.153 84.4754 297.15 85.7051 297.147 86.5369C297.143 87.3641 297.136 87.7849 297.136 87.7849Z" fill="#2B2B2B"/>
<path d="M292.043 60.2061C292.043 60.2732 273.645 60.3273 250.954 60.3273C228.256 60.3273 209.861 60.2728 209.861 60.2061C209.861 60.139 228.256 60.085 250.954 60.085C273.645 60.085 292.043 60.139 292.043 60.2061Z" fill="#E0E0E0"/>
<path d="M292.043 53.0806C292.043 53.1477 273.645 53.2018 250.954 53.2018C228.256 53.2018 209.861 53.1473 209.861 53.0806C209.861 53.0135 228.256 52.9595 250.954 52.9595C273.645 52.9595 292.043 53.014 292.043 53.0806Z" fill="#E0E0E0"/>
<path d="M292.043 45.9551C292.043 46.0222 273.645 46.0763 250.954 46.0763C228.256 46.0763 209.861 46.0218 209.861 45.9551C209.861 45.888 228.256 45.834 250.954 45.834C273.645 45.8335 292.043 45.888 292.043 45.9551Z" fill="#E0E0E0"/>
<path d="M292.043 38.8297C292.043 38.8968 273.645 38.9508 250.954 38.9508C228.256 38.9508 209.861 38.8963 209.861 38.8297C209.861 38.763 228.256 38.7085 250.954 38.7085C273.645 38.7085 292.043 38.763 292.043 38.8297Z" fill="#E0E0E0"/>
<path d="M286.268 59.94C284.666 56.0582 283.568 51.8166 282.34 47.796C281.27 44.2959 281.171 42.6602 280.254 39.7039C278.809 35.0476 274.984 34.5318 272.203 35.7937C269.725 36.9182 268.655 39.8442 267.833 42.4771C266.849 45.6258 265.866 48.7741 264.882 51.9229C264.416 53.4146 263.94 54.9291 263.083 56.2287C262.226 57.5284 260.921 58.6072 259.397 58.809C256.884 59.1417 254.633 57.0293 253.559 54.6919C252.485 52.3549 252.187 49.7206 251.226 47.3323C250.266 44.9445 248.289 42.6537 245.755 42.6071C242.635 42.5502 240.515 45.7479 239.218 48.6381C237.585 52.2761 236.267 56.0605 235.284 59.9334C234.949 61.2527 234.645 62.6036 233.978 63.7845C233.31 64.9653 232.202 65.9751 230.873 66.1387C229.16 66.3498 227.57 65.1237 226.574 63.6894C225.577 62.255 224.965 60.5705 223.944 59.1533C222.924 57.7362 221.281 56.5596 219.581 56.8578C218.054 57.1258 216.961 58.4693 216.057 59.7517C213.618 63.2155 211.501 66.9155 209.746 70.7852H294.751C290.836 69.4314 287.87 63.8217 286.268 59.94Z" fill="#058C42"/>
<path d="M233.629 76.3765H229.615V80.4078H233.629V76.3765Z" fill="#058C42"/>
<path d="M258.735 78.3917H237.801C237.546 78.3917 237.34 78.1844 237.34 77.9285C237.34 77.6727 237.546 77.4653 237.801 77.4653H258.735C258.99 77.4653 259.197 77.6727 259.197 77.9285C259.197 78.1844 258.99 78.3917 258.735 78.3917Z" fill="#2B2B2B"/>
<path d="M291.063 70.7852C291.063 70.7852 290.959 70.7936 290.757 70.7978C290.547 70.8006 290.248 70.8048 289.859 70.81C289.062 70.8151 287.901 70.823 286.408 70.8328C283.402 70.8421 279.067 70.8552 273.714 70.8715C262.989 70.8808 248.185 70.8929 231.835 70.9069C224.012 70.9036 216.544 70.9008 209.745 70.898H209.633V70.7852C209.65 59.8473 209.666 50.524 209.676 43.9264C209.69 40.6379 209.701 38.0287 209.708 36.2332C209.716 35.3455 209.722 34.6605 209.726 34.1875C209.73 33.961 209.733 33.7867 209.735 33.6609C209.739 33.5425 209.745 33.4824 209.745 33.4824C209.745 33.4824 209.751 33.5425 209.754 33.6609C209.756 33.7872 209.759 33.961 209.763 34.1875C209.767 34.6605 209.773 35.3455 209.781 36.2332C209.788 38.0287 209.799 40.6379 209.813 43.9264C209.824 50.524 209.839 59.8473 209.856 70.7852L209.745 70.6725C216.543 70.6697 224.012 70.6669 231.835 70.6636C248.185 70.6776 262.988 70.6902 273.714 70.699C279.067 70.7153 283.402 70.7284 286.407 70.7377C287.9 70.7475 289.061 70.7554 289.859 70.7606C290.247 70.7657 290.546 70.7699 290.757 70.7727C290.959 70.7773 291.063 70.7852 291.063 70.7852Z" fill="#2B2B2B"/>
<g opacity="0.3">
<path d="M281.079 42.8345L250.91 70.7852H265.995L284.157 53.8987L281.079 42.8345Z" fill="white"/>
</g>
<g opacity="0.3">
<path d="M254.502 56.2749L237.904 70.7852H233.629L253.23 53.9048L254.938 56.8098" fill="white"/>
</g>
<path d="M209.746 70.785C209.746 70.785 210.575 68.7174 212.538 65.2112C213.528 63.4646 214.803 61.3615 216.486 59.0534C216.921 58.4882 217.412 57.9192 218.036 57.463C218.653 57.0058 219.443 56.6983 220.273 56.7402C221.102 56.7761 221.91 57.1321 222.597 57.6494C223.291 58.1662 223.88 58.8498 224.359 59.614C225.339 61.1262 225.965 62.9548 227.263 64.4031C227.916 65.1054 228.735 65.7219 229.699 65.9647C230.178 66.0807 230.687 66.0975 231.175 65.9829C231.663 65.8701 232.127 65.6366 232.534 65.3225C233.358 64.6953 233.952 63.7801 234.342 62.7777C234.743 61.7739 234.977 60.6905 235.261 59.6005C235.822 57.4192 236.508 55.2015 237.33 52.9712C237.739 51.8556 238.185 50.7372 238.665 49.6188C239.141 48.5018 239.652 47.3704 240.313 46.3079C240.976 45.2533 241.763 44.2263 242.814 43.4718C243.336 43.099 243.92 42.7882 244.558 42.6302C245.193 42.4764 245.864 42.448 246.513 42.5734C247.823 42.8241 248.951 43.6643 249.795 44.6792C250.652 45.6993 251.259 46.9249 251.673 48.1989C252.099 49.4725 252.393 50.7875 252.762 52.0839C253.135 53.3743 253.569 54.674 254.318 55.7994C255.062 56.9159 256.063 57.8959 257.288 58.3955C258.504 58.9118 259.929 58.7906 261.031 58.0893C262.152 57.4122 262.974 56.339 263.545 55.1796C264.124 54.0137 264.494 52.7634 264.881 51.5317C265.652 49.0661 266.41 46.6443 267.152 44.2724C267.529 43.0887 267.87 41.9074 268.29 40.7592C268.708 39.6147 269.219 38.5005 269.941 37.5354C270.302 37.055 270.719 36.6151 271.201 36.2623C271.679 35.904 272.221 35.6463 272.772 35.4524C273.326 35.2599 273.902 35.1546 274.477 35.1076C275.055 35.0721 275.632 35.129 276.19 35.2511C277.296 35.5386 278.299 36.1724 278.985 37.0461C279.692 37.905 280.123 38.9278 280.431 39.9405C281.054 41.9676 281.393 43.9867 281.893 45.8759C282.136 46.8237 282.419 47.7385 282.689 48.6397C282.954 49.5414 283.213 50.4231 283.466 51.2848C284.467 54.7308 285.434 57.8344 286.559 60.4519C287.677 63.0694 288.884 65.2219 290.078 66.8273C291.265 68.4401 292.441 69.4891 293.325 70.0557C293.776 70.3232 294.125 70.5222 294.379 70.6149C294.626 70.7226 294.751 70.7841 294.751 70.7841C294.751 70.7841 294.621 70.7384 294.37 70.6377C294.111 70.552 293.758 70.3595 293.299 70.0972C292.401 69.5403 291.207 68.4955 290.003 66.8836C288.791 65.2787 287.568 63.1258 286.436 60.505C285.295 57.8842 284.314 54.777 283.303 51.3328C283.047 50.4725 282.786 49.5918 282.518 48.691C282.246 47.7935 281.959 46.8736 281.713 45.923C281.205 44.0245 280.862 42.01 280.239 39.9982C279.933 38.9982 279.511 38.007 278.826 37.178C278.161 36.3355 277.201 35.7334 276.139 35.4575C275.603 35.3415 275.049 35.287 274.491 35.3224C273.935 35.3695 273.378 35.4715 272.842 35.6584C271.762 36.0139 270.806 36.7195 270.119 37.6696C269.418 38.6072 268.916 39.7028 268.502 40.837C268.088 41.9727 267.747 43.1563 267.371 44.3404C266.631 46.7128 265.876 49.1356 265.106 51.6016C264.72 52.8314 264.349 54.0933 263.758 55.2854C263.175 56.4704 262.326 57.5865 261.154 58.2948C260.573 58.6438 259.913 58.895 259.223 58.9402C258.536 59.0008 257.836 58.8792 257.198 58.6182C255.911 58.0921 254.882 57.0795 254.117 55.9322C253.344 54.7704 252.906 53.4479 252.53 52.1492C252.159 50.8439 251.865 49.5321 251.445 48.2749C251.036 47.0153 250.446 45.827 249.612 44.8321C248.792 43.8441 247.707 43.0421 246.468 42.8054C245.855 42.6866 245.218 42.7132 244.616 42.8581C244.012 43.0072 243.454 43.3026 242.95 43.6619C241.937 44.387 241.163 45.3913 240.51 46.429C239.857 47.4757 239.351 48.5913 238.874 49.7073C238.395 50.8216 237.949 51.9353 237.54 53.0472C236.718 55.2695 236.031 57.4788 235.467 59.6523C235.183 60.7362 234.945 61.8285 234.534 62.8532C234.134 63.8761 233.517 64.8281 232.656 65.481C232.229 65.8081 231.739 66.0551 231.22 66.1739C230.701 66.2951 230.159 66.2755 229.654 66.1516C228.637 65.892 227.795 65.2503 227.127 64.528C225.797 63.0322 225.181 61.1975 224.215 59.7044C223.745 58.9491 223.175 58.2841 222.501 57.778C221.834 57.2724 221.056 56.9289 220.267 56.8921C219.477 56.8497 218.723 57.1373 218.122 57.5786C217.514 58.0185 217.028 58.5758 216.594 59.1341C214.909 61.4235 213.621 63.5205 212.621 65.2559C211.622 66.995 210.921 68.3874 210.453 69.3339C210.225 69.8055 210.051 70.1666 209.93 70.4164C209.812 70.6624 209.746 70.785 209.746 70.785Z" fill="#2B2B2B"/>
<path d="M173.555 113.863H90.3926V164.067H173.555V113.863Z" fill="white"/>
<path d="M173.555 113.863H90.3926V121.581H173.555V113.863Z" fill="#E0E0E0"/>
<path d="M96.0511 117.722C96.0511 118.336 95.5551 118.835 94.9435 118.835C94.332 118.835 93.8359 118.336 93.8359 117.722C93.8359 117.108 94.332 116.61 94.9435 116.61C95.5551 116.61 96.0511 117.108 96.0511 117.722Z" fill="white"/>
<path d="M99.7854 117.722C99.7854 118.336 99.2894 118.835 98.6779 118.835C98.0663 118.835 97.5703 118.336 97.5703 117.722C97.5703 117.108 98.0663 116.61 98.6779 116.61C99.2894 116.61 99.7854 117.108 99.7854 117.722Z" fill="white"/>
<path d="M103.52 117.722C103.52 118.336 103.024 118.835 102.412 118.835C101.801 118.835 101.305 118.336 101.305 117.722C101.305 117.108 101.801 116.61 102.412 116.61C103.024 116.61 103.52 117.108 103.52 117.722Z" fill="white"/>
<path d="M173.555 164.067C173.555 164.067 173.548 163.757 173.545 163.162C173.542 162.565 173.539 161.684 173.534 160.531C173.529 158.222 173.521 154.829 173.511 150.475C173.499 141.774 173.482 129.234 173.461 113.864L173.555 113.958C151.098 113.966 122.036 113.975 90.3991 113.985H90.3926L90.5132 113.864C90.51 131.649 90.5072 148.621 90.5044 164.068L90.3926 163.956C114.779 163.978 135.555 163.997 150.239 164.011C157.587 164.024 163.41 164.034 167.4 164.041C169.394 164.047 170.93 164.052 171.971 164.055C172.488 164.058 172.882 164.06 173.151 164.061C173.416 164.063 173.555 164.067 173.555 164.067C173.555 164.067 173.425 164.072 173.164 164.074C172.898 164.075 172.508 164.078 171.996 164.08C170.96 164.084 169.433 164.088 167.449 164.094C163.464 164.101 157.65 164.111 150.313 164.124C135.611 164.138 114.809 164.157 90.3921 164.179H90.2803V164.066C90.2775 148.62 90.2747 131.648 90.2715 113.863V113.742H90.3921H90.3986C122.036 113.752 151.098 113.761 173.555 113.769H173.649V113.863C173.628 129.259 173.611 141.818 173.599 150.533C173.589 154.878 173.581 158.264 173.576 160.569C173.571 161.713 173.568 162.588 173.566 163.182C173.561 163.77 173.555 164.067 173.555 164.067Z" fill="#2B2B2B"/>
<path d="M103.036 130.035H99.502V156.028H103.036V130.035Z" fill="#058C42"/>
<path d="M109.859 138.863H106.324V156.028H109.859V138.863Z" fill="#058C42"/>
<path d="M116.683 133.266H113.148V156.161H116.683V133.266Z" fill="#058C42"/>
<path d="M123.507 131.039H119.973V156.029H123.507V131.039Z" fill="#058C42"/>
<path d="M130.329 139.392H126.795V156.028H130.329V139.392Z" fill="#058C42"/>
<path d="M137.153 142.654H133.619V156.028H137.153V142.654Z" fill="#058C42"/>
<path d="M143.976 132.703H140.441V156.028H143.976V132.703Z" fill="#058C42"/>
<path d="M150.8 136.908H147.266V156.028H150.8V136.908Z" fill="#058C42"/>
<path d="M157.622 133.548H154.088V156.028H157.622V133.548Z" fill="#058C42"/>
<path d="M164.446 140.712H160.912V156.028H164.446V140.712Z" fill="#058C42"/>
<g opacity="0.3">
<path d="M109.859 138.863H106.324V156.028H109.859V138.863Z" fill="white"/>
</g>
<g opacity="0.3">
<path d="M123.507 131.039H119.973V156.029H123.507V131.039Z" fill="white"/>
</g>
<g opacity="0.3">
<path d="M137.153 142.654H133.619V156.028H137.153V142.654Z" fill="white"/>
</g>
<g opacity="0.3">
<path d="M150.8 136.908H147.266V156.028H150.8V136.908Z" fill="white"/>
</g>
<g opacity="0.3">
<path d="M164.446 140.712H160.912V156.028H164.446V140.712Z" fill="white"/>
</g>
<path d="M169.522 156.028C169.522 156.096 153.073 156.15 132.787 156.15C112.494 156.15 96.0488 156.095 96.0488 156.028C96.0488 155.961 112.494 155.907 132.787 155.907C153.073 155.907 169.522 155.961 169.522 156.028Z" fill="#2B2B2B"/>
<path d="M71.2152 77.1553H26.9004V121.661H71.2152V77.1553Z" fill="white"/>
<path d="M50.0036 102.874L62.2239 103.043C62.1307 109.583 56.6434 114.914 50.0036 114.914C49.9799 114.914 49.9558 114.914 49.9316 114.914L50.0036 102.874Z" fill="#455A64"/>
<path d="M48.0709 101.127L47.8992 113.166C41.2603 113.074 35.8496 107.668 35.8496 101.127C35.8496 94.5224 41.3666 89.0874 48.0709 89.0874C54.7752 89.0874 60.2922 94.5224 60.2922 101.127H48.0709Z" fill="#058C42"/>
<path d="M71.1739 77.1553H26.9004V85.9091H71.1739V77.1553Z" fill="#E0E0E0"/>
<path d="M32.0646 82.7939C32.7583 82.7939 33.3207 82.2291 33.3207 81.5325C33.3207 80.8358 32.7583 80.271 32.0646 80.271C31.3709 80.271 30.8086 80.8358 30.8086 81.5325C30.8086 82.2291 31.3709 82.7939 32.0646 82.7939Z" fill="white"/>
<path d="M36.299 82.7939C36.9927 82.7939 37.5551 82.2291 37.5551 81.5325C37.5551 80.8358 36.9927 80.271 36.299 80.271C35.6053 80.271 35.043 80.8358 35.043 81.5325C35.043 82.2291 35.6053 82.7939 36.299 82.7939Z" fill="white"/>
<path d="M41.7914 81.5325C41.7914 82.2291 41.229 82.7939 40.5353 82.7939C39.8417 82.7939 39.2793 82.2291 39.2793 81.5325C39.2793 80.8358 39.8417 80.271 40.5353 80.271C41.229 80.271 41.7914 80.8353 41.7914 81.5325Z" fill="white"/>
<path d="M71.2152 121.661C71.2152 121.661 71.2115 121.588 71.2092 121.449C71.2078 121.305 71.2059 121.1 71.2031 120.832C71.2003 120.285 71.1962 119.483 71.1911 118.439C71.1846 116.344 71.1753 113.281 71.1637 109.385C71.1507 101.598 71.1326 90.4857 71.1103 77.1553L71.2147 77.2602C58.3341 77.2648 43.1279 77.2704 26.9041 77.2765H26.8999L27.0206 77.1553C27.0145 93.4528 27.009 108.725 27.0043 121.661L26.8999 121.556C40.175 121.579 51.24 121.597 58.993 121.61C62.872 121.622 65.9214 121.631 68.0076 121.637C69.0469 121.642 69.845 121.647 70.3897 121.649C70.6565 121.652 70.8602 121.654 71.0036 121.656C71.1419 121.657 71.2152 121.661 71.2152 121.661C71.2152 121.661 71.1498 121.665 71.0152 121.667C70.8746 121.669 70.6746 121.67 70.4125 121.673C69.8724 121.676 69.0808 121.68 68.0507 121.685C65.9701 121.692 62.9286 121.701 59.0598 121.713C51.2906 121.726 40.2028 121.744 26.8999 121.766H26.7955V121.661C26.7909 108.725 26.7853 93.4528 26.7793 77.1553V77.0342H26.9004H26.9046C43.1283 77.0402 58.3341 77.0458 71.2152 77.0505H71.3201V77.1553C71.2978 90.5137 71.2797 101.649 71.2667 109.452C71.2551 113.338 71.2458 116.393 71.2393 118.483C71.2342 119.518 71.23 120.313 71.2273 120.855C71.2249 121.118 71.2226 121.319 71.2212 121.46C71.2189 121.596 71.2152 121.661 71.2152 121.661Z" fill="#2B2B2B"/>
<path d="M179.543 16.0259H58.7129V103.6H179.543V16.0259Z" fill="white"/>
<path d="M157.774 56.0698H129.143C124.381 56.0698 120.521 52.1931 120.521 47.411V44.5377C120.521 39.7556 124.381 35.8789 129.143 35.8789H157.774C162.536 35.8789 166.396 39.7556 166.396 44.5377V47.411C166.396 52.1931 162.536 56.0698 157.774 56.0698Z" fill="#F8F9FA"/>
<path d="M67.3696 58.4217C67.204 48.0234 75.4544 39.4281 85.7603 39.2608C96.0662 39.0939 104.586 47.4176 104.751 57.816C104.917 68.2143 96.6666 76.8096 86.3607 76.9769C76.0543 77.1438 67.5348 68.8201 67.3696 58.4217ZM94.9967 57.9744C94.9178 53.0026 90.8439 49.0225 85.9166 49.1027C80.989 49.1824 77.044 53.2925 77.1234 58.2642C77.2027 63.236 81.2757 67.2161 86.2039 67.1364C91.1311 67.0558 95.076 62.9461 94.9967 57.9744Z" fill="#F5F5F5"/>
<path d="M67.3696 58.4222C67.204 48.0239 75.4539 39.4285 85.7598 39.2612L85.9167 49.1022C80.989 49.1824 77.044 53.292 77.1234 58.2638C77.2027 63.2355 81.2757 67.2152 86.2039 67.1355L86.3607 76.9765C76.0543 77.1438 67.5353 68.8201 67.3696 58.4222Z" fill="#455A64"/>
<path d="M94.9964 57.9745C95.0006 57.9745 95.0029 58.0239 95.0038 58.1203C95.0033 58.2303 95.0024 58.372 95.001 58.5495C95.0029 58.7387 94.9959 58.9722 94.9537 59.2457C94.9207 59.5197 94.891 59.8385 94.7978 60.1861C94.6614 60.8912 94.3584 61.729 93.867 62.6233C93.371 63.5138 92.6444 64.4509 91.6393 65.2571C90.6376 66.0558 89.3616 66.746 87.874 67.047C86.3961 67.3378 84.7183 67.3229 83.1092 66.7395C82.7004 66.6155 82.3148 66.4184 81.9185 66.2357C81.5427 66.0153 81.1474 65.8117 80.7961 65.5344C80.424 65.2855 80.0964 64.9724 79.7554 64.6704C79.444 64.3368 79.1202 64.0082 78.8506 63.6275C78.2998 62.8819 77.8158 62.0524 77.5156 61.1363C77.2057 60.2257 77.0308 59.2564 77.002 58.268C76.9992 57.2787 77.1426 56.3039 77.4233 55.3835C77.6938 54.458 78.1513 53.6127 78.678 52.8494C78.935 52.4603 79.2482 52.121 79.5489 51.7776C79.8802 51.4644 80.1976 51.141 80.5618 50.8801C80.9042 50.5912 81.2926 50.3749 81.661 50.1424C82.0517 49.9471 82.4303 49.7375 82.8354 49.6004C84.4251 48.9648 86.102 48.8954 87.5882 49.1382C89.0846 49.3907 90.3824 50.0394 91.4092 50.8051C92.4393 51.5782 93.1956 52.4915 93.7199 53.3653C94.2396 54.2432 94.569 55.0708 94.7277 55.7712C94.8317 56.1156 94.8716 56.4329 94.9133 56.706C94.9644 56.9782 94.9787 57.2112 94.9829 57.4004C94.9899 57.5779 94.995 57.7191 94.9992 57.8291C95.0015 57.9246 95.0006 57.974 94.9964 57.9745C94.9922 57.9745 94.9848 57.9255 94.9746 57.8295C94.9644 57.7205 94.9509 57.5802 94.9342 57.4041C94.9226 57.2167 94.9003 56.9861 94.8423 56.7172C94.7936 56.4474 94.7467 56.1347 94.6368 55.7954C94.466 55.1062 94.1273 54.2945 93.6048 53.4361C93.0777 52.5819 92.3247 51.6923 91.3076 50.9425C90.2937 50.1997 89.0187 49.5744 87.5543 49.3362C86.0996 49.1079 84.4627 49.1829 82.9152 49.8092C82.5208 49.9439 82.1524 50.1503 81.7724 50.3414C81.4137 50.5702 81.0355 50.7813 80.7029 51.0637C80.3484 51.3186 80.0403 51.6355 79.7178 51.9407C79.4259 52.2762 79.1211 52.6071 78.8714 52.9864C78.3601 53.7306 77.9151 54.554 77.653 55.4553C77.3806 56.3514 77.2414 57.3002 77.2442 58.2634C77.2925 60.1875 77.9337 62.045 79.0399 63.4835C79.3016 63.8549 79.6166 64.1751 79.9192 64.5013C80.2514 64.7958 80.5692 65.1024 80.9316 65.3457C81.2731 65.6173 81.6578 65.8163 82.0234 66.033C82.4095 66.2119 82.7844 66.4058 83.1829 66.5279C84.7494 67.1034 86.3878 67.1253 87.8341 66.8494C89.2896 66.5633 90.5438 65.8974 91.5335 65.122C92.5265 64.3396 93.2503 63.4262 93.7501 62.5552C94.2452 61.6806 94.5574 60.8585 94.7064 60.1637C94.8057 59.8212 94.8423 59.5071 94.8827 59.2359C94.9323 58.9656 94.9467 58.734 94.9528 58.5462C94.9639 58.3696 94.9727 58.2289 94.9792 58.1194C94.9866 58.0239 94.9922 57.9745 94.9964 57.9745Z" fill="#2B2B2B"/>
<path d="M67.3699 58.4218C67.3699 58.4218 67.3852 58.5248 67.4024 58.7256C67.4191 58.9349 67.4428 59.2317 67.4734 59.6176C67.4883 59.8142 67.5045 60.0332 67.5226 60.2746C67.5514 60.5151 67.607 60.7751 67.6534 61.0584C67.7026 61.3418 67.756 61.6461 67.8126 61.9713C67.8557 62.2999 67.9829 62.6316 68.0729 62.9933C68.4241 64.4416 69.1271 66.1476 70.2189 67.9534C71.3195 69.7507 72.8966 71.6245 75.0315 73.2052C75.2997 73.4004 75.5711 73.5976 75.8458 73.797C76.1293 73.9829 76.4314 74.147 76.7283 74.3264C77.0313 74.4951 77.3204 74.6978 77.6438 74.8436C77.9649 74.9928 78.2897 75.1437 78.6178 75.2961C78.782 75.3721 78.9467 75.4485 79.1124 75.5254C79.2845 75.5855 79.4581 75.6461 79.6321 75.7071C79.9801 75.8288 80.3313 75.9518 80.6858 76.0762C81.0426 76.1922 81.4171 76.2607 81.7873 76.3567C82.1613 76.435 82.5293 76.5641 82.9181 76.5977C83.6897 76.6951 84.4707 76.8442 85.2775 76.8353C85.6794 76.8428 86.0844 76.8763 86.4923 76.8628C86.8997 76.8349 87.3103 76.8069 87.7238 76.7785C87.9302 76.7603 88.139 76.7594 88.345 76.7267L88.9645 76.62C89.3775 76.5431 89.7988 76.4891 90.2131 76.3926C91.0316 76.155 91.8784 75.9686 92.6816 75.6144C93.5122 75.3311 94.288 74.8982 95.0888 74.496C95.4758 74.2705 95.8493 74.017 96.234 73.777C96.6265 73.5482 96.9815 73.2611 97.3415 72.9768C98.0881 72.4409 98.7368 71.7746 99.4166 71.1319C99.7242 70.7792 100.033 70.4246 100.344 70.0681L100.577 69.8006L100.784 69.5112L101.2 68.931L101.618 68.3481L101.98 67.7255L102.343 67.1001L102.526 66.7865L102.678 66.4561C102.88 66.0148 103.084 65.5716 103.287 65.1271C103.447 64.6643 103.607 64.2002 103.768 63.7342C104.342 61.8474 104.637 59.8496 104.631 57.8216C104.572 55.7936 104.215 53.8056 103.581 51.9374C103.405 51.4765 103.23 51.0175 103.056 50.5599C102.838 50.1219 102.621 49.6852 102.405 49.2505L102.242 48.9252L102.05 48.6176L101.667 48.0039L101.285 47.393L100.848 46.8235L100.414 46.2569L100.198 45.9745L99.9562 45.7144C99.6346 45.3682 99.314 45.0238 98.9952 44.6809C98.2951 44.0606 97.6251 43.4157 96.8618 42.904C96.4929 42.6314 96.1286 42.356 95.7291 42.1402C95.3371 41.9128 94.9557 41.671 94.5613 41.4585C93.7479 41.0824 92.9581 40.6747 92.1188 40.4184C91.3044 40.0903 90.4516 39.9323 89.6262 39.7208C89.2086 39.6383 88.7859 39.5973 88.3706 39.5339L87.7483 39.4472C87.5414 39.4221 87.3321 39.4272 87.1257 39.416C86.7113 39.4011 86.3002 39.3862 85.8923 39.3713C85.4845 39.3717 85.0804 39.4179 84.679 39.4384C83.8721 39.4556 83.0967 39.6308 82.3284 39.7529C81.9405 39.799 81.5772 39.9407 81.206 40.0306C80.8394 40.1388 80.4668 40.2189 80.1142 40.3471C79.7638 40.4827 79.4163 40.6169 79.0725 40.7497C78.9003 40.8163 78.7291 40.8825 78.5588 40.9482C78.3955 41.0302 78.2336 41.1122 78.0721 41.1938C77.7491 41.3569 77.4295 41.5181 77.113 41.678C76.7952 41.835 76.5121 42.0466 76.2147 42.2246C75.9238 42.4133 75.6268 42.5867 75.3498 42.7824C75.0816 42.9907 74.8167 43.1967 74.555 43.4003C72.4721 45.0495 70.9562 46.9726 69.9136 48.805C68.8807 50.6452 68.232 52.3727 67.9277 53.8312C67.8497 54.1952 67.7328 54.5307 67.7003 54.8606C67.6539 55.1878 67.6108 55.4935 67.5704 55.7782C67.5328 56.0629 67.4855 56.3243 67.4646 56.5657C67.4544 56.8071 67.4446 57.0266 67.4363 57.2237C67.4177 57.6105 67.4038 57.9073 67.3936 58.1175C67.3815 58.3188 67.3699 58.4218 67.3699 58.4218C67.3699 58.4218 67.3653 58.3188 67.3681 58.117C67.3723 57.9069 67.3788 57.6091 67.3866 57.2209C67.3917 57.0233 67.3973 56.8029 67.4033 56.5601C67.4205 56.3178 67.4641 56.055 67.498 55.7689C67.5351 55.4827 67.575 55.1747 67.6172 54.8457C67.6465 54.5139 67.7597 54.1756 67.8349 53.8089C68.1272 52.3396 68.7661 50.5967 69.7953 48.7369C70.8342 46.885 72.3524 44.9381 74.4478 43.2652C74.7113 43.0587 74.9781 42.8495 75.2477 42.6384C75.5266 42.4399 75.8254 42.2633 76.1187 42.0717C76.4179 41.8905 76.7033 41.6761 77.0235 41.5163C77.3422 41.3541 77.6647 41.1896 77.9904 41.0242C78.1533 40.9417 78.3171 40.8583 78.4813 40.7748C78.653 40.7077 78.8256 40.6402 78.9992 40.5726C79.3462 40.437 79.6966 40.3005 80.0506 40.1625C80.4069 40.032 80.7828 39.9496 81.1531 39.8391C81.528 39.7469 81.8955 39.6033 82.2871 39.5553C83.0633 39.4295 83.847 39.251 84.6628 39.231C85.0683 39.2091 85.4771 39.162 85.8896 39.1602C86.3025 39.1741 86.7183 39.1881 87.1373 39.2021C87.3465 39.2133 87.5576 39.2072 87.7674 39.2324L88.397 39.3186C88.8174 39.3815 89.2452 39.4221 89.6679 39.505C90.5036 39.7166 91.3671 39.8759 92.1921 40.2063C93.0417 40.4645 93.8421 40.875 94.6657 41.2553C95.0652 41.4697 95.4517 41.7134 95.8489 41.9436C96.2539 42.1621 96.6228 42.4399 96.9968 42.7153C97.7703 43.2325 98.4496 43.884 99.1586 44.5122C99.4815 44.8589 99.8063 45.2074 100.133 45.5574L100.377 45.8202L100.597 46.1059L101.037 46.6795L101.479 47.2555L101.867 47.8734L102.256 48.4946L102.451 48.8064L102.615 49.1358C102.834 49.5762 103.055 50.018 103.276 50.4616C103.452 50.9248 103.63 51.3899 103.808 51.8563C104.451 53.7483 104.813 55.7623 104.873 57.816C104.878 59.8701 104.58 61.894 103.997 63.805C103.834 64.2771 103.671 64.7473 103.509 65.2161C103.303 65.6667 103.097 66.115 102.892 66.5619L102.737 66.896L102.553 67.2138L102.184 67.8471L101.816 68.4771L101.393 69.0671L100.971 69.6543L100.761 69.9469L100.525 70.2177C100.21 70.5779 99.8968 70.9367 99.5855 71.2937C98.8969 71.9437 98.2389 72.6171 97.4826 73.159C97.1179 73.4461 96.7578 73.736 96.3602 73.9676C95.9709 74.2103 95.5918 74.4662 95.1997 74.6936C94.3887 75.0999 93.6022 75.5361 92.7614 75.8218C91.9475 76.1783 91.0901 76.3661 90.2618 76.6046C89.8424 76.7016 89.416 76.7556 88.9979 76.8325L88.371 76.9388C88.1627 76.9714 87.9511 76.9719 87.7423 76.99C87.3243 77.0175 86.909 77.045 86.4969 77.0725C86.0849 77.0851 85.6747 77.0506 85.2687 77.0422C84.453 77.0488 83.6642 76.8964 82.8842 76.7952C82.4912 76.7598 82.1196 76.6289 81.7419 76.5487C81.3684 76.4509 80.9902 76.38 80.6297 76.2617C80.2719 76.1354 79.917 76.01 79.5657 75.8856C79.3903 75.8236 79.2154 75.7617 79.0414 75.7001C78.8743 75.6223 78.7078 75.5445 78.5426 75.4671C78.2118 75.312 77.8846 75.1587 77.5608 75.0063C77.235 74.8576 76.9436 74.6521 76.6383 74.4806C76.3391 74.2984 76.0347 74.1316 75.7493 73.9429C75.4728 73.7402 75.1999 73.5402 74.9299 73.3422C72.782 71.7382 71.2021 69.8411 70.1043 68.0237C69.0157 66.1984 68.3216 64.4761 67.9829 63.017C67.8961 62.6531 67.7722 62.3185 67.7323 61.9876C67.6794 61.66 67.6298 61.3539 67.5834 61.0687C67.5407 60.784 67.4887 60.5221 67.4637 60.2807C67.4497 60.0384 67.4372 59.8184 67.4256 59.6208C67.4052 59.2336 67.3894 58.9358 67.3783 58.7256C67.3681 58.5252 67.3699 58.4218 67.3699 58.4218Z" fill="#2B2B2B"/>
<path d="M84.082 37.7476C96.1391 37.5524 105.758 46.9502 105.951 59.1151L94.5401 59.3001C94.4478 53.4835 90.0407 49.8217 84.276 49.9149L84.082 37.7476Z" fill="#058C42"/>
<path d="M84.0812 37.7475C84.0812 37.7475 84.0886 37.8272 84.0942 37.9726C84.0993 38.1292 84.1058 38.3421 84.1141 38.6138C84.1285 39.1856 84.1489 40.0058 84.1754 41.0529C84.2204 43.1662 84.2853 46.1947 84.3647 49.9129L84.2733 49.8244C85.3692 49.8174 86.532 49.926 87.7045 50.2466C88.8743 50.5653 90.0538 51.1021 91.1038 51.9097C92.1538 52.7131 93.0624 53.7919 93.6818 55.0692C94.3054 56.3437 94.6325 57.8037 94.6562 59.2977L94.5374 59.1821C97.3339 59.1355 100.31 59.0861 103.374 59.0353C104.256 59.0213 105.131 59.0069 105.949 58.9939L105.83 59.1169C105.763 56.7421 105.357 54.4508 104.667 52.3366C104.473 51.8156 104.28 51.2997 104.089 50.7895C103.874 50.2894 103.619 49.8127 103.391 49.3313C103.175 48.8416 102.887 48.3993 102.612 47.9562C102.33 47.5191 102.094 47.0573 101.767 46.6663C101.46 46.2618 101.157 45.8624 100.858 45.4682C100.539 45.0912 100.195 44.7436 99.8734 44.388C99.7101 44.2119 99.5481 44.0371 99.3876 43.8638C99.2113 43.7067 99.0359 43.5506 98.8619 43.3964C98.5139 43.0879 98.1715 42.784 97.8346 42.4858C96.4004 41.4047 94.9963 40.4773 93.5997 39.8636C93.2545 39.7033 92.9171 39.5467 92.5886 39.3939C92.2517 39.2625 91.9154 39.1553 91.5929 39.0393C91.2695 38.926 90.9553 38.8161 90.651 38.7098C90.3438 38.6119 90.0357 38.5546 89.7443 38.4787C89.4511 38.4074 89.168 38.3389 88.8956 38.2727C88.7592 38.2396 88.6261 38.207 88.4947 38.1753C88.3625 38.1506 88.2312 38.1366 88.1036 38.1175C87.5932 38.0458 87.1269 37.9801 86.7056 37.9204C86.2852 37.8435 85.9154 37.8528 85.5924 37.8319C85.2718 37.8156 84.9985 37.802 84.7725 37.7904C84.5572 37.7787 84.3879 37.7694 84.2617 37.7624C84.1457 37.755 84.0844 37.7503 84.0812 37.7475C84.0784 37.7447 84.1341 37.7438 84.2459 37.7443C84.3702 37.7457 84.5368 37.7475 84.7484 37.7498C84.9772 37.7536 85.2542 37.7582 85.579 37.7634C85.9079 37.775 86.2959 37.7596 86.7144 37.8295C87.138 37.8831 87.6076 37.9423 88.1212 38.0071C88.2498 38.0248 88.382 38.0374 88.5152 38.0602C88.6469 38.0905 88.7815 38.1217 88.9188 38.1534C89.1935 38.2168 89.4789 38.2829 89.7745 38.351C90.0686 38.4241 90.3795 38.4791 90.6895 38.5747C90.9971 38.6791 91.314 38.7867 91.6407 38.8976C91.9664 39.0113 92.306 39.1171 92.6462 39.2466C92.9784 39.3981 93.319 39.5533 93.6683 39.7122C95.0803 40.3212 96.502 41.2472 97.9548 42.332C98.2958 42.6317 98.6429 42.9364 98.996 43.2459C99.1723 43.401 99.3496 43.5581 99.5287 43.716C99.6915 43.8903 99.8562 44.066 100.021 44.2431C100.349 44.601 100.696 44.9509 101.019 45.3303C101.323 45.7273 101.631 46.1295 101.942 46.5372C102.274 46.9314 102.514 47.397 102.801 47.8378C103.079 48.2847 103.372 48.7311 103.591 49.2256C103.823 49.7116 104.081 50.193 104.3 50.6981C104.494 51.214 104.69 51.735 104.887 52.2611C105.588 54.3968 106.001 56.7132 106.07 59.1127L106.073 59.2338L105.951 59.2357C105.133 59.2492 104.259 59.2632 103.377 59.2776C100.312 59.3261 97.3367 59.3732 94.5402 59.417L94.4228 59.4188L94.421 59.3009C94.4001 57.8363 94.0832 56.4113 93.4781 55.1675C92.8777 53.9214 91.9961 52.8674 90.9734 52.0793C89.9508 51.2867 88.7987 50.7559 87.6512 50.4376C86.5009 50.1175 85.3567 50.0042 84.2756 50.0042H84.1851L84.1842 49.9157C84.1447 46.1737 84.1127 43.1256 84.0905 40.9993C84.0835 39.9601 84.0784 39.1469 84.0742 38.5793C84.0742 38.3142 84.0742 38.1068 84.0742 37.954C84.0761 37.8146 84.0784 37.7443 84.0812 37.7475Z" fill="#2B2B2B"/>
<path d="M179.543 16.0259H58.7129V27.7229H179.543V16.0259Z" fill="#E0E0E0"/>
<path d="M161.004 42.6516H127.045C126.645 42.6516 126.32 42.3258 126.32 41.9237C126.32 41.522 126.645 41.1958 127.045 41.1958H161.004C161.404 41.1958 161.729 41.5215 161.729 41.9237C161.728 42.3254 161.404 42.6516 161.004 42.6516Z" fill="#2B2B2B"/>
<path d="M161.004 46.5197H127.045C126.645 46.5197 126.32 46.194 126.32 45.7919C126.32 45.3897 126.645 45.064 127.045 45.064H161.004C161.404 45.064 161.729 45.3897 161.729 45.7919C161.728 46.194 161.404 46.5197 161.004 46.5197Z" fill="#2B2B2B"/>
<path d="M142.476 50.3884H127.043C126.643 50.3884 126.318 50.0627 126.318 49.6605C126.318 49.2584 126.643 48.9326 127.043 48.9326H142.476C142.877 48.9326 143.201 49.2584 143.201 49.6605C143.201 50.0622 142.877 50.3884 142.476 50.3884Z" fill="#2B2B2B"/>
<path d="M157.774 80.769H129.143C124.381 80.769 120.521 76.8923 120.521 72.1102V69.2369C120.521 64.4548 124.381 60.5781 129.143 60.5781H157.774C162.536 60.5781 166.396 64.4548 166.396 69.2369V72.1102C166.396 76.8923 162.536 80.769 157.774 80.769Z" fill="#F8F9FA"/>
<path d="M161.941 93.3634H124.015C121.82 93.3634 120.041 91.5763 120.041 89.3722C120.041 87.168 121.82 85.3809 124.015 85.3809H161.941C164.136 85.3809 165.915 87.168 165.915 89.3722C165.915 91.5763 164.136 93.3634 161.941 93.3634Z" fill="#F8F9FA"/>
<path d="M160.779 67.5334H126.82C126.421 67.5334 126.096 67.2077 126.096 66.8055C126.096 66.4034 126.42 66.0776 126.82 66.0776H160.779C161.18 66.0776 161.504 66.4034 161.504 66.8055C161.504 67.2077 161.18 67.5334 160.779 67.5334Z" fill="#2B2B2B"/>
<path d="M159.332 90.1872H125.373C124.973 90.1872 124.648 89.8615 124.648 89.4593C124.648 89.0572 124.973 88.7314 125.373 88.7314H159.332C159.732 88.7314 160.057 89.0572 160.057 89.4593C160.057 89.8615 159.732 90.1872 159.332 90.1872Z" fill="#2B2B2B"/>
<path d="M160.779 71.4016H126.82C126.421 71.4016 126.096 71.0758 126.096 70.6737C126.096 70.272 126.42 69.9458 126.82 69.9458H160.779C161.18 69.9458 161.504 70.2715 161.504 70.6737C161.504 71.0758 161.18 71.4016 160.779 71.4016Z" fill="#2B2B2B"/>
<path d="M142.254 75.2697H126.82C126.421 75.2697 126.096 74.944 126.096 74.5419C126.096 74.1402 126.42 73.814 126.82 73.814H142.254C142.654 73.814 142.978 74.1397 142.978 74.5419C142.978 74.944 142.654 75.2697 142.254 75.2697Z" fill="#2B2B2B"/>
<path d="M118.152 40.191C118.152 40.2077 117.926 40.2236 117.517 40.238C117.061 40.2483 116.48 40.2609 115.786 40.2767C114.324 40.2986 112.304 40.3121 110.074 40.3121C109.16 40.3098 108.283 40.3075 107.474 40.3056L107.555 40.272C106.42 41.4002 105.441 42.3621 104.741 43.0368C104.412 43.3481 104.138 43.6081 103.915 43.8192C103.719 43.9982 103.61 44.0904 103.6 44.0811C103.591 44.0718 103.683 43.9614 103.861 43.7652C104.071 43.5415 104.33 43.2656 104.64 42.9357C105.312 42.2325 106.27 41.2492 107.393 40.1094L107.426 40.0759H107.474C108.282 40.074 109.16 40.0717 110.074 40.0693C112.304 40.0693 114.324 40.0828 115.785 40.1048C116.48 40.1201 117.061 40.1332 117.517 40.1434C117.925 40.1579 118.152 40.1742 118.152 40.191Z" fill="#2B2B2B"/>
<path d="M117.65 41.1959C118.183 41.1959 118.615 40.7622 118.615 40.2271C118.615 39.6921 118.183 39.2583 117.65 39.2583C117.117 39.2583 116.686 39.6921 116.686 40.2271C116.686 40.7622 117.117 41.1959 117.65 41.1959Z" fill="#2B2B2B"/>
<path d="M117.65 70.3287C118.183 70.3287 118.615 69.895 118.615 69.3599C118.615 68.8249 118.183 68.3911 117.65 68.3911C117.117 68.3911 116.686 68.8249 116.686 69.3599C116.686 69.895 117.117 70.3287 117.65 70.3287Z" fill="#2B2B2B"/>
<path d="M117.009 69.5304C117.008 69.564 116.389 69.5892 115.389 69.6036C114.388 69.6185 113.006 69.6227 111.479 69.6157C109.987 69.6008 108.637 69.5873 107.57 69.577C107.115 69.5677 106.722 69.5593 106.386 69.5523C106.1 69.5444 105.969 69.5402 105.951 69.5304C105.94 69.481 106.573 69.4302 107.569 69.4055C108.57 69.3781 109.953 69.3669 111.48 69.3734C113.007 69.3799 114.389 69.4032 115.39 69.4321C116.39 69.461 117.009 69.4969 117.009 69.5304Z" fill="#2B2B2B"/>
<path d="M76.5786 90.8271H73.416V94.0034H76.5786V90.8271Z" fill="#455A64"/>
<path d="M87.19 90.8271H84.0273V94.0034H87.19V90.8271Z" fill="#E0E0E0"/>
<path d="M98.7056 90.8271H95.543V94.0034H98.7056V90.8271Z" fill="#058C42"/>
<path d="M66.9351 21.875C66.9351 22.806 66.2145 23.5609 65.326 23.5609C64.4374 23.5609 63.7168 22.806 63.7168 21.875C63.7168 20.9439 64.4374 20.189 65.326 20.189C66.2145 20.189 66.9351 20.9439 66.9351 21.875Z" fill="white"/>
<path d="M72.3609 21.875C72.3609 22.806 71.6403 23.5609 70.7517 23.5609C69.8632 23.5609 69.1426 22.806 69.1426 21.875C69.1426 20.9439 69.8632 20.189 70.7517 20.189C71.6403 20.189 72.3609 20.9439 72.3609 21.875Z" fill="white"/>
<path d="M77.7867 21.875C77.7867 22.806 77.0661 23.5609 76.1775 23.5609C75.289 23.5609 74.5684 22.806 74.5684 21.875C74.5684 20.9439 75.289 20.189 76.1775 20.189C77.0661 20.189 77.7867 20.9439 77.7867 21.875Z" fill="white"/>
<path d="M179.543 103.6C179.542 102.788 179.504 69.1439 179.444 16.0259L179.543 16.1247C145.731 16.1313 103.908 16.1387 58.7222 16.1476H58.7124L58.8331 16.0264C58.8289 47.4152 58.8252 77.1852 58.8219 103.6L58.7124 103.49C130.161 103.555 178.571 103.599 179.543 103.6C178.572 103.601 130.161 103.646 58.7124 103.71H58.6029V103.6C58.5997 77.1842 58.596 47.4148 58.5918 16.0259V15.9048H58.7129H58.7226C103.908 15.9132 145.731 15.9211 179.543 15.9276H179.642V16.0264C179.581 69.1439 179.544 102.788 179.543 103.6Z" fill="#2B2B2B"/>
<path d="M229.307 73.7339H143.24V138.349H229.307V73.7339Z" fill="white"/>
<path d="M229.035 73.7339H142.969V81.7207H229.035V73.7339Z" fill="#E0E0E0"/>
<path d="M147.679 78.8787C148.312 78.8787 148.825 78.3634 148.825 77.7277C148.825 77.092 148.312 76.5767 147.679 76.5767C147.046 76.5767 146.533 77.092 146.533 77.7277C146.533 78.3634 147.046 78.8787 147.679 78.8787Z" fill="white"/>
<path d="M151.543 78.8787C152.176 78.8787 152.689 78.3634 152.689 77.7277C152.689 77.092 152.176 76.5767 151.543 76.5767C150.91 76.5767 150.396 77.092 150.396 77.7277C150.396 78.3634 150.91 78.8787 151.543 78.8787Z" fill="white"/>
<path d="M155.408 78.8787C156.041 78.8787 156.554 78.3634 156.554 77.7277C156.554 77.092 156.041 76.5767 155.408 76.5767C154.775 76.5767 154.262 77.092 154.262 77.7277C154.262 78.3634 154.775 78.8787 155.408 78.8787Z" fill="white"/>
<path d="M229.035 138.349C229.035 138.349 229.027 137.944 229.024 137.167C229.022 136.388 229.018 135.237 229.013 133.735C229.007 130.728 228.999 126.316 228.987 120.683C228.975 109.424 228.957 93.2817 228.936 73.7344L229.035 73.8337C204.764 73.8397 175.041 73.8472 142.975 73.8556H142.968L143.089 73.7344C143.085 96.9566 143.081 118.953 143.077 138.35L142.968 138.24C168.453 138.262 189.956 138.281 205.092 138.295C212.666 138.307 218.646 138.317 222.736 138.324C224.78 138.329 226.352 138.334 227.416 138.337C227.946 138.34 228.348 138.342 228.622 138.343C228.894 138.345 229.035 138.349 229.035 138.349C229.035 138.349 228.902 138.353 228.635 138.356C228.363 138.357 227.965 138.359 227.441 138.362C226.382 138.365 224.817 138.37 222.782 138.375C218.698 138.382 212.726 138.392 205.163 138.405C190.01 138.418 168.482 138.437 142.968 138.459H142.859V138.349C142.856 118.952 142.852 96.9561 142.848 73.734V73.6128H142.969H142.976C175.041 73.6212 204.765 73.6286 229.035 73.6347H229.134V73.734C229.113 93.3074 229.096 109.471 229.083 120.745C229.072 126.369 229.063 130.773 229.057 133.775C229.053 135.269 229.049 136.413 229.046 137.188C229.042 137.958 229.035 138.349 229.035 138.349Z" fill="#2B2B2B"/>
<path d="M224.294 112.675C224.294 112.742 207.166 112.797 186.042 112.797C164.911 112.797 147.787 112.742 147.787 112.675C147.787 112.609 164.911 112.554 186.042 112.554C207.166 112.554 224.294 112.608 224.294 112.675Z" fill="#E0E0E0"/>
<path d="M224.294 106.042C224.294 106.109 207.166 106.163 186.042 106.163C164.911 106.163 147.787 106.109 147.787 106.042C147.787 105.974 164.911 105.92 186.042 105.92C207.166 105.92 224.294 105.974 224.294 106.042Z" fill="#E0E0E0"/>
<path d="M224.294 99.4083C224.294 99.4754 207.166 99.5294 186.042 99.5294C164.911 99.5294 147.787 99.4749 147.787 99.4083C147.787 99.3412 164.911 99.2871 186.042 99.2871C207.166 99.2871 224.294 99.3412 224.294 99.4083Z" fill="#E0E0E0"/>
<path d="M224.294 92.775C224.294 92.8421 207.166 92.8961 186.042 92.8961C164.911 92.8961 147.787 92.8416 147.787 92.775C147.787 92.7083 164.911 92.6538 186.042 92.6538C207.166 92.6533 224.294 92.7079 224.294 92.775Z" fill="#E0E0E0"/>
<path d="M160.626 109.668H154.262V122.524H160.626V109.668Z" fill="#058C42"/>
<path d="M183.47 109.668H177.105V122.524H183.47V109.668Z" fill="#455A64"/>
<path d="M218.123 114.05H211.758V122.524H218.123V114.05Z" fill="#455A64"/>
<path d="M206.316 103.58H199.951V122.524H206.316V103.58Z" fill="#E0E0E0"/>
<path d="M194.636 96.2051H188.271V122.524H194.636V96.2051Z" fill="#058C42"/>
<path d="M171.593 103.58H165.229V122.524H171.593V103.58Z" fill="#E0E0E0"/>
<path d="M223.381 122.524C223.381 122.524 223.285 122.532 223.096 122.536C222.899 122.539 222.622 122.543 222.261 122.548C221.517 122.553 220.436 122.561 219.047 122.571C216.249 122.581 212.213 122.594 207.23 122.61C197.245 122.619 183.464 122.632 168.244 122.645C160.961 122.642 154.008 122.639 147.679 122.636H147.566V122.524C147.584 112.342 147.599 103.663 147.61 97.5195C147.624 94.4588 147.635 92.0305 147.642 90.3575C147.65 89.5327 147.655 88.8943 147.66 88.453C147.663 88.2428 147.667 88.0811 147.669 87.9628C147.672 87.8528 147.678 87.7969 147.678 87.7969C147.678 87.7969 147.685 87.8528 147.688 87.9628C147.69 88.0811 147.693 88.2428 147.697 88.453C147.701 88.8943 147.707 89.5323 147.714 90.3575C147.722 92.0305 147.733 94.4588 147.746 97.5195C147.757 103.662 147.772 112.342 147.79 122.524L147.678 122.411C154.007 122.409 160.96 122.406 168.243 122.402C183.463 122.416 197.244 122.429 207.229 122.438C212.212 122.454 216.248 122.467 219.047 122.477C220.435 122.486 221.516 122.494 222.26 122.499C222.621 122.505 222.898 122.509 223.095 122.512C223.285 122.515 223.381 122.524 223.381 122.524Z" fill="#2B2B2B"/>
<path d="M163.853 129.045H161.057V131.854H163.853V129.045Z" fill="#058C42"/>
<path d="M180.947 128.957H178.15V131.765H180.947V128.957Z" fill="#E0E0E0"/>
<path d="M199.441 129.045H196.645V131.854H199.441V129.045Z" fill="#455A64"/>
<path d="M173.117 130.36C173.117 130.428 171.411 130.482 169.308 130.482C167.205 130.482 165.5 130.427 165.5 130.36C165.5 130.293 167.205 130.239 169.308 130.239C171.411 130.239 173.117 130.293 173.117 130.36Z" fill="#2B2B2B"/>
<path d="M190.079 130.36C190.079 130.428 188.374 130.482 186.271 130.482C184.168 130.482 182.463 130.427 182.463 130.36C182.463 130.293 184.168 130.239 186.271 130.239C188.374 130.239 190.079 130.293 190.079 130.36Z" fill="#2B2B2B"/>
<path d="M208.142 130.36C208.142 130.428 206.437 130.482 204.334 130.482C202.23 130.482 200.525 130.427 200.525 130.36C200.525 130.293 202.23 130.239 204.334 130.239C206.437 130.239 208.142 130.293 208.142 130.36Z" fill="#2B2B2B"/>
<path d="M217.417 53.543H187.678V83.4103H217.417V53.543Z" fill="white"/>
<path d="M217.416 83.4104C217.416 83.4104 217.412 83.3596 217.41 83.266C217.409 83.1648 217.407 83.0283 217.404 82.8503C217.401 82.4775 217.397 81.9397 217.392 81.2412C217.385 79.8297 217.376 77.7737 217.364 75.1613C217.351 69.9342 217.333 62.4814 217.311 53.5431L217.416 53.6479C208.77 53.6526 198.566 53.6582 187.68 53.6642H187.677L187.797 53.5431C187.791 64.4796 187.786 74.7279 187.781 83.41L187.677 83.3051C196.578 83.3275 203.998 83.3456 209.203 83.3587C211.804 83.3703 213.851 83.3797 215.256 83.3862C215.952 83.3913 216.487 83.3955 216.858 83.3983C217.035 83.4006 217.171 83.403 217.272 83.4044C217.365 83.4062 217.416 83.4104 217.416 83.4104C217.418 83.4123 217.373 83.4141 217.284 83.4165C217.186 83.4179 217.054 83.4197 216.881 83.4225C216.515 83.4253 215.986 83.4295 215.3 83.4347C213.9 83.4412 211.861 83.45 209.27 83.4621C204.05 83.4752 196.606 83.4934 187.677 83.5157L187.573 83.5162V83.4109C187.568 74.7288 187.563 64.4801 187.557 53.544V53.4229H187.678H187.681C198.568 53.4289 208.771 53.4345 217.416 53.4392H217.521L217.521 53.544C217.499 62.5099 217.48 69.9859 217.467 75.2289C217.456 77.831 217.447 79.8791 217.44 81.285C217.435 81.9747 217.431 82.5059 217.428 82.8736C217.426 83.0465 217.423 83.1797 217.422 83.2781C217.42 83.3675 217.418 83.4123 217.416 83.4104Z" fill="#2B2B2B"/>
<path d="M204.241 68.5241C205.905 67.8233 207.088 66.1005 207.098 64.0706C207.108 61.4111 205.105 59.2461 202.622 59.2344C200.14 59.2228 198.117 61.3692 198.107 64.0286C198.098 66.0776 199.29 67.8209 200.972 68.5241C194.053 69.5708 194.367 77.1223 194.367 77.1223L210.727 77.1983C210.726 77.1983 211.099 69.5642 204.241 68.5241Z" fill="#058C42"/>
<path d="M265.891 53.709C265.705 53.4774 265.391 53.3978 265.096 53.3637C264.25 53.2659 263.375 53.4355 262.626 53.8433C263.747 52.7477 263.931 50.8501 263.125 49.5039C262.318 48.1576 260.641 47.433 259.094 47.6692C257.548 47.9055 256.195 49.0402 255.586 50.4871C254.977 51.9345 255.09 53.6443 255.784 55.0525L258.363 55.732C259.55 56.5451 260.985 56.9883 262.421 56.985C262.999 56.9836 263.629 56.8858 264.019 56.4575C264.408 56.0293 264.343 55.1891 263.793 55.0129C264.324 55.1317 264.897 55.2478 265.399 55.0353C265.902 54.8233 266.233 54.1345 265.891 53.709Z" fill="#2B2B2B"/>
<path d="M252.512 50.3065C250.917 49.8111 249.124 49.997 247.663 50.8097C246.85 49.7598 245.452 49.2006 244.143 49.4019C242.834 49.6033 241.666 50.5562 241.202 51.8023C239.81 51.2375 238.05 51.8377 237.288 53.1369C236.525 54.4361 236.856 56.2731 238.022 57.2228C236.883 57.6977 235.986 58.7191 235.659 59.9126C235.333 61.106 235.583 62.4448 236.32 63.4369C235.101 64.0301 234.892 65.6877 235.072 67.0363C235.252 68.3845 235.638 69.8295 235.037 71.0486C234.572 71.9899 233.613 72.5724 232.957 73.3912C232.3 74.2099 232.071 75.6196 232.96 76.1746C231.446 76.3796 230.278 77.9976 230.554 79.5065C230.831 81.0149 232.497 82.1091 233.984 81.7587C233.488 82.8197 233.702 84.1278 234.353 85.1008C235.004 86.0738 236.037 86.7388 237.135 87.1377C240.293 88.2864 244.124 87.2015 246.219 84.5644L256.231 53.4715C255.483 51.9724 254.108 50.8023 252.512 50.3065Z" fill="#2B2B2B"/>
<path d="M257.274 58.9217L257.407 57.2441L247.478 54.7184C244.4 54.2021 240.864 57.1174 240.482 60.227C240.057 63.6819 239.673 67.9174 239.927 70.5293C240.438 75.7826 244.369 76.6843 244.369 76.6843L244.082 81.8508L255.531 82.6877L257.274 58.9217Z" fill="#AE7461"/>
<path d="M241.694 64.8288C241.661 65.1807 241.929 65.499 242.295 65.5409C242.659 65.5828 242.982 65.3321 243.015 64.9808C243.049 64.6289 242.78 64.3102 242.416 64.2682C242.051 64.2263 241.728 64.4775 241.694 64.8288Z" fill="#2B2B2B"/>
<path d="M241.444 62.5033C241.521 62.5951 242.048 62.2516 242.762 62.2968C243.477 62.3318 243.979 62.7325 244.062 62.6496C244.103 62.6132 244.028 62.4511 243.81 62.2698C243.595 62.0899 243.221 61.9049 242.775 61.8798C242.33 61.8551 241.945 61.9972 241.72 62.1528C241.49 62.3089 241.406 62.4618 241.444 62.5033Z" fill="#2B2B2B"/>
<path d="M248.186 65.1819C248.153 65.5337 248.422 65.852 248.787 65.8939C249.151 65.9359 249.474 65.6852 249.508 65.3338C249.541 64.982 249.273 64.6632 248.908 64.6213C248.543 64.5793 248.22 64.8305 248.186 65.1819Z" fill="#2B2B2B"/>
<path d="M248.464 63.0619C248.541 63.1537 249.068 62.8102 249.782 62.8554C250.497 62.8904 251 63.2911 251.082 63.2082C251.122 63.1714 251.049 63.0097 250.829 62.8284C250.614 62.6485 250.241 62.4635 249.795 62.4384C249.35 62.4137 248.965 62.5558 248.739 62.7114C248.51 62.8675 248.426 63.0204 248.464 63.0619Z" fill="#2B2B2B"/>
<path d="M245.551 68.2306C245.558 68.1901 245.117 68.0861 244.403 67.9501C244.221 67.9202 244.05 67.8732 244.027 67.7459C243.992 67.6108 244.081 67.4179 244.182 67.2101C244.38 66.7767 244.587 66.3223 244.805 65.8465C245.674 63.9038 246.315 62.3021 246.237 62.2677C246.158 62.2332 245.391 63.7798 244.522 65.7226C244.312 66.2016 244.111 66.6588 243.921 67.0959C243.839 67.3 243.706 67.5293 243.783 67.8098C243.824 67.9496 243.952 68.0572 244.067 68.0959C244.182 68.1388 244.285 68.1472 244.374 68.1579C245.097 68.2408 245.546 68.2716 245.551 68.2306Z" fill="#2B2B2B"/>
<path d="M244.371 76.6983C244.371 76.6983 248.02 77.1349 251.599 75.2588C251.599 75.2588 249.631 78.7962 244.297 77.9961L244.371 76.6983Z" fill="#6F4439"/>
<path d="M248.631 60.5832C248.701 60.7789 249.417 60.6862 250.257 60.7878C251.1 60.8726 251.777 61.1196 251.888 60.9444C251.938 60.8605 251.82 60.6764 251.546 60.4872C251.275 60.298 250.841 60.1186 250.336 60.0618C249.832 60.0063 249.37 60.0869 249.064 60.2118C248.756 60.3367 248.6 60.4905 248.631 60.5832Z" fill="#2B2B2B"/>
<path d="M241.618 60.7251C241.732 60.8966 242.236 60.7614 242.829 60.7945C243.422 60.8066 243.915 60.98 244.042 60.8174C244.098 60.7381 244.03 60.569 243.822 60.3998C243.616 60.2311 243.264 60.0806 242.857 60.0648C242.449 60.0494 242.087 60.1729 241.869 60.3253C241.648 60.4786 241.568 60.6417 241.618 60.7251Z" fill="#2B2B2B"/>
<path d="M240.501 56.4849C241.67 54.9485 243.365 53.8241 245.231 53.3483L253.62 54.4075L254.334 54.3949C254.491 53.8641 255.383 53.5859 255.383 53.5859C256.171 52.9792 258.902 52.9461 260.804 54.9439C261.491 55.6648 261.978 57.477 261.995 58.4743C262.001 58.8517 261.598 59.3695 261.912 59.5768C262.022 59.6495 262.929 59.6304 263.058 59.6589C265.191 60.1281 266.525 62.0275 266.138 64.8683C266.119 65.0118 266.068 65.1544 266.092 65.297C266.13 65.5216 266.31 65.6894 266.466 65.8553C267.482 66.935 267.728 68.6718 267.054 69.9933C266.846 70.4011 266.556 70.7827 266.483 71.2352C266.354 72.0456 266.943 72.7679 267.4 73.4483C268.769 75.4893 269.063 78.4545 267.456 80.312C267.065 80.7635 266.562 81.1666 266.416 81.7463C266.344 82.0297 266.367 82.327 266.37 82.6196C266.38 84.102 265.602 85.7609 264.159 86.0736C263.358 86.247 262.385 86.02 261.815 86.6114C261.567 86.8691 261.462 87.2288 261.304 87.5504C260.7 88.7769 259.155 89.4442 257.854 89.0416C256.552 88.6385 256.121 83.3349 256.31 81.9798C254.733 81.4043 253.567 81.3022 253.64 79.619C253.64 79.619 253.883 76.7224 253.417 75.3113C252.95 73.9003 253.886 70.8974 254.42 69.4393C254.953 67.9812 254.318 64.5854 254.175 63.2359C254.15 63.0005 254.196 62.5914 254.286 62.0811L254.285 62.0821C254.286 62.0807 254.286 62.0793 254.287 62.0783C254.345 61.7503 254.422 61.3807 254.512 60.9846C254.545 60.6156 254.847 58.6453 254.842 58.3005C254.821 57.0246 253.244 57.7068 252.039 58.1131C251.748 58.2115 251.443 58.2678 251.136 58.2762C250.145 58.3037 249.152 57.8312 248.546 57.0432C247.408 58.2609 245.57 58.766 243.974 58.2986C243.326 59.2068 242.668 60.1263 241.806 60.8322C240.944 61.5382 239.839 62.0168 238.734 61.8929C238.699 59.9599 239.332 58.0213 240.501 56.4849Z" fill="#2B2B2B"/>
<path d="M246.07 69.9724C246.305 69.6248 246.738 69.4188 247.179 69.444C247.484 69.4617 247.799 69.5936 247.997 69.8331C248.194 70.0726 248.25 70.424 248.094 70.6695C247.918 70.9464 247.526 71.0279 247.186 70.9491C246.847 70.8704 246.548 70.6635 246.263 70.4571C246.184 70.3997 246.104 70.3401 246.052 70.259C246.001 70.1779 245.986 70.0689 246.04 69.9966" fill="#6F4439"/>
<path d="M247.774 68.673C247.66 68.6721 247.697 69.4364 247.072 70.0119C246.449 70.5888 245.634 70.544 245.633 70.6512C245.625 70.6997 245.821 70.7905 246.164 70.7826C246.5 70.7775 246.986 70.6442 247.367 70.2924C247.748 69.9396 247.897 69.4871 247.908 69.1721C247.921 68.8515 247.826 68.6661 247.774 68.673Z" fill="#2B2B2B"/>
<path d="M231.858 205.737L232.801 215.611C232.801 215.611 222.085 219.632 221.969 221.621L242.229 221.677L242.218 220.189L241.368 215.109L240.116 205.243L231.858 205.737Z" fill="#455A64"/>
<path d="M238.901 214.079C239.303 214.188 239.581 214.64 239.489 215.048C239.397 215.456 238.941 215.743 238.538 215.641C238.135 215.539 237.784 215.007 237.921 214.612C238.058 214.218 238.611 213.908 238.978 214.105" fill="#E0E0E0"/>
<path d="M242.229 221.676L242.218 220.188L222.786 220.563C222.786 220.563 221.864 220.968 221.969 221.621L242.229 221.676Z" fill="#2B2B2B"/>
<path d="M232.465 215.506C232.469 215.608 232.975 215.652 233.474 215.978C233.982 216.291 234.24 216.731 234.333 216.69C234.426 216.67 234.273 216.063 233.663 215.679C233.055 215.29 232.444 215.413 232.465 215.506Z" fill="#2B2B2B"/>
<path d="M230.294 216.415C230.271 216.514 230.71 216.685 231.055 217.114C231.413 217.533 231.5 217.998 231.601 217.993C231.696 218.009 231.765 217.414 231.326 216.888C230.891 216.359 230.296 216.318 230.294 216.415Z" fill="#2B2B2B"/>
<path d="M229.065 219.032C229.157 219.053 229.296 218.545 229.035 217.989C228.778 217.431 228.3 217.212 228.257 217.297C228.2 217.381 228.508 217.679 228.716 218.139C228.934 218.593 228.964 219.022 229.065 219.032Z" fill="#2B2B2B"/>
<path d="M231.748 213.131C231.79 213.224 232.254 213.083 232.827 213.12C233.4 213.146 233.846 213.338 233.898 213.251C233.957 213.177 233.521 212.802 232.846 212.767C232.172 212.727 231.698 213.052 231.748 213.131Z" fill="#2B2B2B"/>
<path d="M256.755 206.016L257.623 215.722C257.623 215.722 247.072 219.607 246.945 221.561L266.848 221.738L266.846 220.276L266.042 215.281L264.871 205.58L256.755 206.016Z" fill="#455A64"/>
<path d="M263.624 214.254C264.018 214.364 264.289 214.81 264.196 215.209C264.103 215.609 263.653 215.89 263.258 215.787C262.862 215.684 262.521 215.159 262.658 214.772C262.795 214.385 263.34 214.085 263.7 214.28" fill="#E0E0E0"/>
<path d="M266.848 221.738L266.846 220.276L247.753 220.526C247.753 220.526 246.845 220.919 246.945 221.561L266.848 221.738Z" fill="#2B2B2B"/>
<path d="M257.294 215.617C257.296 215.717 257.794 215.764 258.282 216.086C258.778 216.396 259.029 216.83 259.121 216.791C259.213 216.772 259.067 216.175 258.469 215.793C257.874 215.408 257.272 215.525 257.294 215.617Z" fill="#2B2B2B"/>
<path d="M255.155 216.497C255.132 216.593 255.562 216.765 255.899 217.189C256.247 217.602 256.331 218.06 256.43 218.055C256.523 218.072 256.594 217.487 256.166 216.968C255.743 216.445 255.158 216.401 255.155 216.497Z" fill="#2B2B2B"/>
<path d="M253.931 219.06C254.021 219.081 254.161 218.583 253.908 218.035C253.658 217.485 253.19 217.268 253.148 217.351C253.091 217.433 253.392 217.727 253.593 218.18C253.805 218.628 253.832 219.05 253.931 219.06Z" fill="#2B2B2B"/>
<path d="M256.601 213.28C256.642 213.372 257.099 213.236 257.661 213.276C258.224 213.305 258.661 213.496 258.713 213.41C258.771 213.339 258.345 212.967 257.683 212.929C257.021 212.885 256.552 213.202 256.601 213.28Z" fill="#2B2B2B"/>
<path d="M231.421 119.865C231.421 119.865 226.619 133.833 226.454 144.224C226.288 154.615 226.122 171.138 228.275 189.364C230.428 207.591 231.422 214.916 231.422 214.916H242.351C242.351 214.916 243.51 203.503 243.344 193.283C243.179 183.062 242.383 179.825 243.361 168.583C244.338 157.34 245.884 150.588 247.513 147.181C247.513 147.181 252.024 141.795 252.355 134.408C252.687 127.02 250.083 120.671 250.083 120.671L231.421 119.865Z" fill="#2B2B2B"/>
<path d="M241.133 139.462C241.315 140.023 244.558 162.923 246.924 173.023C249.289 183.124 251.922 185.797 252.383 194.014C252.914 203.464 255.497 214.916 255.497 214.916H267.135C267.135 214.916 265.498 197.447 263.862 183.793C262.225 170.138 259.861 153.303 260.225 148.253C260.589 143.203 261.498 136.966 260.225 129.89C258.952 122.814 256.2 120.949 256.2 120.949L246.327 120.5L241.133 139.462Z" fill="#2B2B2B"/>
<path d="M252.087 126.363C252.095 126.36 252.156 126.482 252.267 126.719C252.393 126.951 252.511 127.319 252.662 127.794C252.932 128.755 253.11 130.201 253.046 131.98C252.99 133.759 252.695 135.869 252.089 138.143C251.781 139.278 251.38 140.453 250.819 141.61C250.261 142.77 249.487 143.86 248.717 144.961C247.135 147.149 246.353 149.642 245.762 151.893C245.187 154.158 244.878 156.247 244.658 158.003C244.443 159.761 244.314 161.19 244.217 162.176C244.169 162.652 244.132 163.031 244.104 163.312C244.075 163.572 244.056 163.708 244.048 163.707C244.04 163.707 244.042 163.569 244.055 163.308C244.072 163.026 244.094 162.646 244.123 162.168C244.191 161.179 244.293 159.748 244.487 157.983C244.686 156.22 244.978 154.12 245.545 151.837C245.829 150.697 246.186 149.512 246.646 148.317C246.882 147.72 247.146 147.121 247.458 146.535C247.772 145.95 248.132 145.381 248.516 144.822C249.293 143.713 250.053 142.644 250.606 141.504C251.16 140.367 251.562 139.207 251.873 138.083C252.486 135.831 252.797 133.736 252.875 131.973C252.959 130.209 252.81 128.775 252.571 127.818C252.436 127.344 252.334 126.975 252.223 126.738C252.126 126.497 252.079 126.367 252.087 126.363Z" fill="#455A64"/>
<path d="M205.82 91.3433C207.827 92.5488 211.451 93.6766 211.451 93.6766L215.514 90.415C215.514 90.415 212.608 85.0803 211.672 83.5686C211.419 83.1599 211.034 82.3886 210.914 81.9548C210.6 80.8192 209.77 81.3024 209.617 82.1971C209.574 82.4497 209.751 83.3076 209.87 83.6366C210.233 84.6427 210.153 85.3664 210.153 85.3664C210.153 85.3664 209.857 85.1138 209.127 84.6199C208.331 84.0821 205.642 81.8304 204.506 80.8877C202.809 79.4789 201.954 80.3522 202.175 80.897C202.45 81.5736 206.663 84.536 206.512 85.0434C206.512 85.0434 205.701 85.5062 205.586 86.0337C205.472 86.5612 205.594 87.0831 205.594 87.0831C205.594 87.0831 204.834 87.1577 204.631 87.6479C204.428 88.1382 204.688 88.8283 204.688 88.8283C204.688 88.8283 203.984 88.894 203.903 89.2789C203.823 89.6624 204.31 90.4369 205.82 91.3433Z" fill="#AE7461"/>
<path d="M214.837 88.9498C214.898 89.1339 223.55 98.0298 223.55 98.0298C223.55 98.0298 230.769 89.8622 232.967 86.8579C235.165 83.8536 238.499 80.1685 241.368 79.4788C244.237 78.7891 248.225 80.6452 248.225 80.6452L243.142 91.1414L236.726 100.001C236.726 100.001 229.792 108.748 226.495 110.097C223.199 111.446 219.969 109.509 218.565 108.037C217.161 106.566 208.83 93.8489 208.83 93.8489L214.837 88.9498Z" fill="#058C42"/>
<path d="M263.038 82.9432L243.13 79.4785C243.13 79.4785 237.602 89.2519 235.534 99.5221C233.466 109.792 231.109 120.053 231.109 120.053L249.499 122.329C251.414 122.565 253.351 122.539 255.259 122.249L257.175 121.958L255.6 115.437C258.228 108.846 260.146 103.214 261.285 98.5645C263.756 88.4746 263.038 82.9432 263.038 82.9432Z" fill="#058C42"/>
<path d="M242.667 92.7097C242.679 92.7209 242.563 92.8765 242.343 93.1473C242.09 93.4581 241.778 93.8407 241.41 94.2927C240.621 95.2592 239.552 96.611 238.369 98.1036C237.185 99.5972 236.092 100.935 235.268 101.874C234.857 102.345 234.517 102.72 234.274 102.971C234.032 103.223 233.892 103.357 233.88 103.346C233.867 103.334 233.983 103.179 234.203 102.908C234.457 102.597 234.768 102.215 235.137 101.763C235.925 100.796 236.994 99.4443 238.178 97.9508C239.362 96.4577 240.454 95.1208 241.278 94.1804C241.689 93.7097 242.029 93.335 242.272 93.0834C242.514 92.8322 242.654 92.698 242.667 92.7097Z" fill="#2B2B2B"/>
<path d="M255.297 115.733C255.304 115.762 254.833 115.923 254.047 116.094C253.263 116.266 252.161 116.433 250.934 116.482C249.707 116.528 248.595 116.447 247.8 116.336C247.004 116.226 246.522 116.102 246.527 116.073C246.533 116.036 247.024 116.1 247.819 116.165C248.613 116.232 249.712 116.285 250.925 116.239C252.138 116.191 253.23 116.053 254.016 115.925C254.802 115.799 255.287 115.698 255.297 115.733Z" fill="#2B2B2B"/>
<path d="M223.356 103.328C223.289 103.327 223.251 102.193 223.271 100.795C223.291 99.3961 223.361 98.2637 223.428 98.2646C223.495 98.2656 223.533 99.3998 223.513 100.798C223.493 102.196 223.423 103.329 223.356 103.328Z" fill="#2B2B2B"/>
<g opacity="0.3">
<path d="M262.397 85.2119L249.958 84.0977C249.505 85.149 250.173 86.5278 251.275 86.8205C250.607 87.9995 250.587 89.5219 251.221 90.7186C251.855 91.9157 253.124 92.7485 254.471 92.851C254.804 92.8766 255.148 92.8617 255.462 92.9754C256.152 93.2247 256.482 93.9848 256.896 94.5924C257.44 95.3921 258.267 96.0226 259.215 96.2081C260.162 96.3931 261.219 96.085 261.832 95.3366C262.441 94.592 262.542 93.563 262.59 92.6003C262.712 90.1366 262.647 87.6649 262.397 85.2119Z" fill="#2B2B2B"/>
</g>
<g opacity="0.3">
<path d="M234.781 102.46C236.81 102.047 238.679 100.887 239.955 99.2503C241.23 97.6132 241.902 95.5125 241.814 93.4355C239.21 96.2712 237.014 99.9046 234.781 102.46Z" fill="#2B2B2B"/>
</g>
<path d="M265.254 77.5113L254.639 65.647C255.028 68.6578 253.898 71.6532 252.541 74.3663C251.768 75.9102 250.906 77.7467 251.718 79.27C251.055 80.0128 250.382 80.7701 249.964 81.675C249.546 82.58 249.413 83.6709 249.85 84.567C250.287 85.4632 251.394 86.0503 252.322 85.6924C251.883 86.9022 252.246 88.3626 253.199 89.2238C254.152 90.0849 255.637 90.2928 256.788 89.7266C257.077 90.9517 257.736 92.1246 258.773 92.8325C259.809 93.5403 261.249 93.7053 262.328 93.0659C263.408 92.4266 263.956 90.9242 263.377 89.8081C265.712 89.2895 267.171 86.7614 267.24 84.3601C267.309 81.9593 266.305 79.6694 265.254 77.5113Z" fill="#2B2B2B"/>
<path d="M243.301 57.9462C243.304 57.9542 243.245 57.9779 243.126 58.0166C243.007 58.0469 242.822 58.0814 242.585 58.0544C242.123 58.0129 241.408 57.71 240.978 56.9443C240.761 56.5692 240.672 56.0706 240.756 55.5683C240.841 55.0645 241.097 54.5612 241.485 54.146C241.87 53.729 242.408 53.406 243.009 53.2671C243.609 53.1218 244.261 53.1376 244.89 53.2862C245.257 53.3748 245.608 53.5029 245.924 53.6553L245.761 53.7192C246.208 52.6213 247.08 51.8239 247.984 51.4181C248.897 50.9987 249.832 50.9931 250.548 51.1496C251.272 51.3062 251.798 51.6087 252.123 51.8477C252.287 51.9675 252.405 52.0719 252.479 52.1483C252.554 52.2238 252.59 52.2662 252.584 52.2718C252.571 52.2871 252.409 52.1357 252.074 51.9204C251.74 51.7084 251.218 51.4376 250.516 51.3081C249.821 51.1776 248.933 51.2032 248.073 51.6128C247.22 52.0099 246.4 52.775 245.984 53.8086L245.936 53.9275L245.82 53.8725C245.518 53.7285 245.183 53.6064 244.835 53.5225C244.236 53.3818 243.623 53.3659 243.063 53.4987C242.501 53.626 242.01 53.9167 241.646 54.3003C241.28 54.6815 241.039 55.1437 240.952 55.6032C240.868 56.0645 240.938 56.5124 241.128 56.8628C241.505 57.5804 242.163 57.895 242.596 57.9607C243.047 58.0357 243.296 57.9136 243.301 57.9462Z" fill="#455A64"/>
<path d="M265.806 65.4081C265.787 65.3988 265.895 65.1881 266.009 64.7794C266.119 64.3736 266.222 63.7519 266.102 62.9989C265.987 62.2542 265.624 61.3679 264.859 60.6996C264.113 60.0328 262.993 59.5826 261.82 59.7056L261.642 59.7243L261.692 59.5509C261.791 59.2093 261.856 58.837 261.875 58.4558C261.939 57.1375 261.463 55.8807 260.722 55.0191C259.988 54.1379 259.003 53.6831 258.169 53.485C257.323 53.2851 256.606 53.3391 256.128 53.4216C255.648 53.5083 255.393 53.6085 255.385 53.5861C255.382 53.5782 255.443 53.5488 255.564 53.499C255.684 53.4463 255.868 53.3881 256.11 53.3289C256.591 53.2166 257.327 53.1327 258.206 53.3172C259.072 53.4999 260.108 53.9557 260.891 54.8732C261.677 55.7698 262.184 57.0821 262.117 58.4675C262.097 58.8682 262.028 59.2601 261.922 59.6204L261.795 59.4656C263.048 59.3384 264.225 59.8259 265.002 60.5393C265.801 61.256 266.165 62.2001 266.262 62.9751C266.365 63.7608 266.232 64.3978 266.093 64.8046C266.024 65.0096 265.954 65.163 265.899 65.2618C265.844 65.3615 265.813 65.4113 265.806 65.4081Z" fill="#455A64"/>
<path d="M249.236 57.5469C249.23 57.5572 249.114 57.5147 248.94 57.3759C248.766 57.2389 248.543 56.9933 248.373 56.6284C248.206 56.2654 248.098 55.7766 248.181 55.2425C248.261 54.708 248.56 54.1633 249.013 53.7481C249.469 53.3338 250.027 53.0873 250.551 53.0127C251.076 52.9326 251.555 52.9983 251.935 53.1031C252.315 53.2126 252.601 53.358 252.787 53.4745C252.973 53.591 253.061 53.6754 253.053 53.687C253.032 53.7266 252.632 53.44 251.893 53.2695C251.525 53.1903 251.073 53.1474 250.587 53.2331C250.103 53.3138 249.595 53.5468 249.175 53.927C248.759 54.3087 248.483 54.8003 248.4 55.2798C248.313 55.7612 248.394 56.2146 248.529 56.5604C248.813 57.2668 249.271 57.5115 249.236 57.5469Z" fill="#455A64"/>
<path d="M255.669 85.7299C255.664 85.7364 255.613 85.7052 255.521 85.6385C255.426 85.5747 255.299 85.4643 255.144 85.3133C254.84 85.0071 254.442 84.4982 254.17 83.7606C253.9 83.0317 253.774 82.0541 254.075 81.0456C254.375 80.0475 255.108 79.0665 256.16 78.4775C256.576 78.2427 257.022 78.08 257.464 77.9994L257.398 78.1979C256.691 77.4071 256.461 76.3582 256.587 75.4863C256.706 74.5967 257.201 73.9126 257.696 73.4997C258.197 73.078 258.701 72.8948 259.046 72.8179C259.219 72.7788 259.356 72.7625 259.449 72.7602C259.542 72.7564 259.59 72.7583 259.59 72.7658C259.592 72.7858 259.399 72.8016 259.067 72.9009C258.739 73.0011 258.263 73.201 257.799 73.6195C257.339 74.0309 256.893 74.6829 256.796 75.5147C256.69 76.3325 256.919 77.3121 257.574 78.0367L257.718 78.1956L257.508 78.2352C257.093 78.3135 256.672 78.4673 256.279 78.6896C255.283 79.2464 254.582 80.1724 254.288 81.1123C253.992 82.0597 254.092 82.9949 254.332 83.7042C254.573 84.4214 254.936 84.9298 255.213 85.249C255.494 85.5663 255.683 85.7117 255.669 85.7299Z" fill="#455A64"/>
<path d="M255.495 59.6258L255.163 58.1216C254.039 60.2675 253.657 62.7974 254.097 65.1824C254.302 66.2906 254.67 67.4803 254.192 68.5003C253.865 69.197 253.196 69.6742 252.813 70.341C252.328 71.185 252.686 73.4078 252.562 73.8454C252.278 74.8421 251.317 75.4792 251.09 76.6838C250.863 77.8884 251.152 79.3437 252.229 79.9201C254.258 76.5598 256.333 73.0676 256.811 69.1672C257.204 65.9541 256.475 62.7084 255.495 59.6258Z" fill="#2B2B2B"/>
<path d="M261.645 67.6798C261.645 67.6878 261.585 67.6924 261.472 67.6896C261.359 67.6859 261.192 67.6738 260.979 67.6379C260.562 67.5633 259.923 67.4054 259.318 66.8872C259.023 66.6267 258.751 66.2711 258.592 65.827C258.432 65.3899 258.392 64.8433 258.616 64.3451C258.832 63.8582 259.277 63.4192 259.869 63.2971C260.161 63.244 260.482 63.2635 260.763 63.4253C261.046 63.5786 261.253 63.9192 261.196 64.2715C261.169 64.4486 261.065 64.6084 260.924 64.7114C260.779 64.8116 260.612 64.8512 260.456 64.8596C260.142 64.8722 259.849 64.785 259.592 64.6518C259.087 64.3941 258.659 64.0399 258.323 63.6452C257.64 62.8558 257.347 61.9108 257.319 61.1335C257.283 60.3483 257.471 59.728 257.639 59.3324C257.726 59.1339 257.807 58.9866 257.868 58.8906C257.93 58.7955 257.966 58.748 257.973 58.7522C257.992 58.7629 257.87 58.9675 257.727 59.3669C257.589 59.7639 257.434 60.3716 257.49 61.1232C257.538 61.8683 257.833 62.7561 258.49 63.4984C258.814 63.8689 259.222 64.2002 259.699 64.4397C259.927 64.5572 260.19 64.6303 260.444 64.6187C260.699 64.6136 260.922 64.4682 260.958 64.2328C260.994 63.998 260.859 63.751 260.643 63.6345C260.429 63.5082 260.158 63.4868 259.914 63.5306C259.417 63.628 259.014 64.0091 258.819 64.4374C258.618 64.8689 258.643 65.3564 258.781 65.7604C258.918 66.1695 259.163 66.5078 259.432 66.7595C259.985 67.2623 260.595 67.445 260.998 67.5452C261.41 67.6416 261.647 67.6593 261.645 67.6798Z" fill="#455A64"/>
</svg>
