<svg width="396" height="294" viewBox="0 0 396 294" fill="none" xmlns="http://www.w3.org/2000/svg">
<path d="M311.219 51.6878L316.095 43.8268L313.673 42.3268C312.967 41.8893 312.597 41.0861 312.667 40.2582C312.705 39.8108 312.72 39.3603 312.711 38.9088C312.694 38.0697 313.118 37.2841 313.858 36.8872L316.353 35.5489L311.98 27.3934L309.484 28.7317C308.767 29.1162 307.89 29.0768 307.224 28.6094C306.82 28.3265 306.401 28.0672 305.971 27.8338C305.254 27.4445 304.826 26.676 304.852 25.8599L304.941 23.0292L295.695 22.7417L295.609 25.5829C295.585 26.4026 295.097 27.1329 294.355 27.481C294.138 27.5821 293.924 27.6897 293.712 27.8038C293.5 27.9173 293.291 28.0366 293.088 28.1601C292.391 28.5847 291.517 28.5876 290.823 28.1578L288.398 26.6554L283.522 34.5164L285.95 36.024C286.655 36.4615 287.023 37.2635 286.952 38.0897C286.913 38.5366 286.899 38.9858 286.907 39.4362C286.923 40.2747 286.499 41.0591 285.76 41.4554L283.264 42.7943L287.637 50.9492L290.133 49.6104C290.872 49.2141 291.76 49.2946 292.45 49.7715C292.82 50.0278 293.203 50.2636 293.597 50.4783C294.325 50.8757 294.789 51.626 294.764 52.4557L294.676 55.3134L303.922 55.6009L304.011 52.762C304.037 51.9324 304.545 51.2103 305.295 50.8557C305.501 50.7581 305.706 50.6552 305.909 50.5459C306.11 50.4383 306.309 50.3254 306.503 50.2084C307.216 49.7779 308.102 49.7538 308.81 50.1931L311.219 51.6878ZM304.231 45.3274C300.157 48.2227 294.516 46.5204 292.724 41.8546C291.504 38.6789 292.613 34.988 295.385 33.0158C299.458 30.1187 305.113 31.8257 306.903 36.4921C308.122 39.669 307.004 43.3564 304.231 45.3274Z" fill="#F8F9FA"/>
<path d="M25.6488 94.7713C26.1545 95.063 26.4332 95.6186 26.4032 96.2019C26.395 96.3601 26.3909 96.5195 26.3909 96.6788C26.3909 96.8405 26.395 97.0004 26.4032 97.1592C26.4326 97.7401 26.1557 98.294 25.6512 98.5845L23.9277 99.5788L27.1664 105.192L28.8893 104.199C29.395 103.907 30.0165 103.936 30.5051 104.255C30.7738 104.431 31.0525 104.593 31.3406 104.739C31.8587 105.003 32.1915 105.526 32.1915 106.108V108.092H38.6742V106.108C38.6742 105.526 39.007 105.003 39.525 104.739C39.8126 104.593 40.0919 104.431 40.3606 104.255C40.8492 103.936 41.4707 103.907 41.9764 104.199L43.6992 105.192L46.9379 99.5788L45.2075 98.5792C44.7041 98.2888 44.4278 97.736 44.4572 97.1557C44.4654 96.9975 44.4695 96.8382 44.4695 96.6788C44.4695 96.5189 44.4654 96.3601 44.4572 96.2019C44.4272 95.6186 44.7059 95.0636 45.2116 94.7725L46.9374 93.7788L43.6986 88.1657L41.9805 89.1583C41.4754 89.4505 40.8539 89.4223 40.3653 89.1036C40.0954 88.9272 39.8149 88.7655 39.5262 88.6185C39.0076 88.3551 38.6742 87.8312 38.6742 87.2491V85.2651H32.1915V87.2491C32.1915 87.8312 31.8581 88.3551 31.3395 88.6185C31.0502 88.7655 30.7703 88.9272 30.4998 89.1036C30.0112 89.4223 29.3897 89.4505 28.8846 89.1583L27.167 88.1657L23.9283 93.7788L25.6488 94.7713ZM35.4302 91.368C38.362 91.368 40.7416 93.7476 40.7416 96.6794C40.7416 99.6112 38.362 101.986 35.4302 101.986C32.4984 101.986 30.1241 99.6112 30.1241 96.6794C30.1241 93.747 32.499 91.368 35.4302 91.368Z" fill="#F8F9FA"/>
<path d="M368.448 111.979C368.953 112.271 369.232 112.827 369.202 113.41C369.194 113.568 369.19 113.727 369.19 113.887C369.19 114.049 369.194 114.208 369.202 114.367C369.231 114.948 368.954 115.502 368.45 115.793L366.727 116.787L369.965 122.4L371.688 121.407C372.194 121.115 372.815 121.144 373.304 121.463C373.573 121.639 373.851 121.801 374.139 121.947C374.658 122.211 374.99 122.734 374.99 123.316V125.3H381.473V123.316C381.473 122.734 381.806 122.211 382.324 121.947C382.611 121.801 382.891 121.639 383.159 121.463C383.648 121.144 384.27 121.115 384.775 121.407L386.498 122.4L389.737 116.787L388.006 115.787C387.503 115.497 387.227 114.944 387.256 114.364C387.264 114.206 387.268 114.046 387.268 113.887C387.268 113.727 387.264 113.568 387.256 113.41C387.226 112.827 387.505 112.272 388.01 111.981L389.736 110.987L386.497 105.374L384.779 106.366C384.274 106.659 383.653 106.63 383.164 106.312C382.894 106.135 382.614 105.974 382.325 105.827C381.806 105.563 381.473 105.039 381.473 104.457V102.473H374.99V104.457C374.99 105.039 374.657 105.563 374.138 105.827C373.849 105.974 373.569 106.135 373.299 106.312C372.811 106.63 372.189 106.659 371.684 106.366L369.966 105.374L366.728 110.987L368.448 111.979ZM378.23 108.576C381.161 108.576 383.541 110.956 383.541 113.887C383.541 116.819 381.161 119.194 378.23 119.194C375.298 119.194 372.923 116.819 372.923 113.887C372.923 110.956 375.298 108.576 378.23 108.576Z" fill="#F8F9FA"/>
<path d="M391.662 70.8203H390.801V70.2464H391.088V69.9595H391.662V70.8203Z" fill="#F8F9FA"/>
<path d="M389.654 70.8205H388.508V70.2466H389.654V70.8205ZM387.362 70.8205H386.216V70.2466H387.362V70.8205ZM385.069 70.8205H383.923V70.2466H385.069V70.8205ZM382.777 70.8205H381.63V70.2466H382.777V70.8205ZM380.483 70.8205H379.337V70.2466H380.483V70.8205ZM378.191 70.8205H377.045V70.2466H378.191V70.8205ZM375.898 70.8205H374.752V70.2466H375.898V70.8205ZM373.606 70.8205H372.459V70.2466H373.606V70.8205ZM371.312 70.8205H370.166V70.2466H371.312V70.8205ZM369.02 70.8205H367.874V70.2466H369.02V70.8205ZM366.727 70.8205H365.58V70.2466H366.727V70.8205ZM364.434 70.8205H363.288V70.2466H364.434V70.8205ZM362.141 70.8205H360.995V70.2466H362.141V70.8205ZM359.849 70.8205H358.703V70.2466H359.849V70.8205ZM357.556 70.8205H356.409V70.2466H357.556V70.8205ZM355.263 70.8205H354.117V70.2466H355.263V70.8205ZM352.97 70.8205H351.824V70.2466H352.97V70.8205Z" fill="#F8F9FA"/>
<path d="M350.677 70.8203H349.816V69.9595H350.39V70.2464H350.677V70.8203Z" fill="#F8F9FA"/>
<path d="M350.39 68.8137H349.816V67.6671H350.39V68.8137ZM350.39 66.521H349.816V65.3744H350.39V66.521ZM350.39 64.2278H349.816V63.0812H350.39V64.2278ZM350.39 61.9352H349.816V60.7886H350.39V61.9352ZM350.39 59.6426H349.816V58.496H350.39V59.6426ZM350.39 57.35H349.816V56.2034H350.39V57.35ZM350.39 55.0568H349.816V53.9102H350.39V55.0568ZM350.39 52.7642H349.816V51.6176H350.39V52.7642ZM350.39 50.4716H349.816V49.325H350.39V50.4716ZM350.39 48.179H349.816V47.0324H350.39V48.179ZM350.39 45.8858H349.816V44.7392H350.39V45.8858ZM350.39 43.5932H349.816V42.4466H350.39V43.5932ZM350.39 41.3005H349.816V40.1539H350.39V41.3005ZM350.39 39.0079H349.816V37.8613H350.39V39.0079ZM350.39 36.7147H349.816V35.5681H350.39V36.7147ZM350.39 34.4227H349.816V33.2761H350.39V34.4227ZM350.39 32.1295H349.816V30.9829H350.39V32.1295Z" fill="#F8F9FA"/>
<path d="M350.39 29.8368H349.816V28.9766H350.677V29.5499H350.39V29.8368Z" fill="#F8F9FA"/>
<path d="M389.654 29.5499H388.508V28.9766H389.654V29.5499ZM387.362 29.5499H386.216V28.9766H387.362V29.5499ZM385.069 29.5499H383.923V28.9766H385.069V29.5499ZM382.777 29.5499H381.631V28.9766H382.777V29.5499ZM380.483 29.5499H379.337V28.9766H380.483V29.5499ZM378.191 29.5499H377.045V28.9766H378.191V29.5499ZM375.898 29.5499H374.752V28.9766H375.898V29.5499ZM373.606 29.5499H372.459V28.9766H373.606V29.5499ZM371.312 29.5499H370.166V28.9766H371.312V29.5499ZM369.02 29.5499H367.874V28.9766H369.02V29.5499ZM366.727 29.5499H365.58V28.9766H366.727V29.5499ZM364.434 29.5499H363.288V28.9766H364.434V29.5499ZM362.141 29.5499H360.995V28.9766H362.141V29.5499ZM359.849 29.5499H358.703V28.9766H359.849V29.5499ZM357.556 29.5499H356.409V28.9766H357.556V29.5499ZM355.263 29.5499H354.117V28.9766H355.263V29.5499ZM352.97 29.5499H351.824V28.9766H352.97V29.5499Z" fill="#F8F9FA"/>
<path d="M391.662 29.8368H391.088V29.5499H390.801V28.9766H391.662V29.8368Z" fill="#F8F9FA"/>
<path d="M391.662 68.8136H391.088V67.667H391.662V68.8136ZM391.662 66.5209H391.088V65.3743H391.662V66.5209ZM391.662 64.2283H391.088V63.0817H391.662V64.2283ZM391.662 61.9351H391.088V60.7885H391.662V61.9351ZM391.662 59.6425H391.088V58.4959H391.662V59.6425ZM391.662 57.3499H391.088V56.2033H391.662V57.3499ZM391.662 55.0573H391.088V53.9107H391.662V55.0573ZM391.662 52.7641H391.088V51.6175H391.662V52.7641ZM391.662 50.4715H391.088V49.3249H391.662V50.4715ZM391.662 48.1789H391.088V47.0323H391.662V48.1789ZM391.662 45.8863H391.088V44.7397H391.662V45.8863ZM391.662 43.5931H391.088V42.4465H391.662V43.5931ZM391.662 41.301H391.088V40.1544H391.662V41.301ZM391.662 39.0078H391.088V37.8612H391.662V39.0078ZM391.662 36.7152H391.088V35.5686H391.662V36.7152ZM391.662 34.4226H391.088V33.276H391.662V34.4226ZM391.662 32.13H391.088V30.9834H391.662V32.13Z" fill="#F8F9FA"/>
<path d="M352.676 67.9624H347.533V73.105H352.676V67.9624Z" fill="white"/>
<path d="M352.963 73.3918H347.246V67.6753H352.963V73.3918ZM347.819 72.8179H352.389V68.2492H347.819V72.8179Z" fill="#F8F9FA"/>
<path d="M352.698 47.3271H347.555V52.4704H352.698V47.3271Z" fill="white"/>
<path d="M352.963 52.7572H347.246V47.04H352.963V52.7572ZM347.819 52.1833H352.389V47.6139H347.819V52.1833Z" fill="#F8F9FA"/>
<path d="M352.698 26.6919H347.555V31.8345H352.698V26.6919Z" fill="white"/>
<path d="M352.963 32.1213H347.246V26.4048H352.963V32.1213ZM347.819 31.548H352.389V26.9787H347.819V31.548Z" fill="#F8F9FA"/>
<path d="M393.967 67.9624H388.824V73.105H393.967V67.9624Z" fill="white"/>
<path d="M394.233 73.3918H388.516V67.6753H394.233V73.3918ZM389.09 72.8179H393.659V68.2492H389.09V72.8179Z" fill="#F8F9FA"/>
<path d="M393.967 47.3271H388.824V52.4704H393.967V47.3271Z" fill="white"/>
<path d="M394.233 52.7572H388.516V47.04H394.233V52.7572ZM389.09 52.1833H393.659V47.6139H389.09V52.1833Z" fill="#F8F9FA"/>
<path d="M393.967 26.6919H388.824V31.8345H393.967V26.6919Z" fill="white"/>
<path d="M394.233 32.1213H388.516V26.4048H394.233V32.1213ZM389.09 31.548H393.659V26.9787H389.09V31.548Z" fill="#F8F9FA"/>
<path d="M373.332 26.6919H368.189V31.8345H373.332V26.6919Z" fill="white"/>
<path d="M373.597 32.1213H367.881V26.4048H373.597V32.1213ZM368.455 31.548H373.024V26.9787H368.455V31.548Z" fill="#F8F9FA"/>
<path d="M373.311 67.9624H368.168V73.105H373.311V67.9624Z" fill="white"/>
<path d="M373.597 73.3918H367.881V67.6753H373.597V73.3918ZM368.455 72.8179H373.024V68.2492H368.455V72.8179Z" fill="#F8F9FA"/>
<path d="M381.593 46.3822H380.916C378.999 40.5946 377.898 38.2143 374.667 38.2143H374.239V61.5826H377.258V62.3288H364.298V61.5826H367.317V38.2149H366.854C363.621 38.2149 362.415 40.878 360.602 46.3828H359.928L360.283 37.4688H381.237L381.593 46.3822Z" fill="#F8F9FA"/>
<path d="M28.4605 178.633C29.0408 179.237 29.0408 180.142 28.4605 180.723C28.1583 181.002 27.8102 181.141 27.4385 181.141C27.0434 181.141 26.6718 181.002 26.3701 180.723L19.8428 174.103C19.7734 174.079 19.7499 174.033 19.7263 173.963C19.7034 173.94 19.6569 173.917 19.6569 173.917C19.6111 173.848 19.6111 173.801 19.587 173.731C19.5411 173.708 19.5176 173.662 19.5176 173.638C19.4947 173.592 19.4947 173.522 19.4717 173.499C19.4717 173.43 19.4253 173.406 19.4253 173.382C19.4253 173.313 19.4253 173.267 19.4253 173.22C19.4253 173.174 19.4023 173.151 19.4023 173.081C19.4023 173.058 19.4253 172.988 19.4253 172.965C19.4253 172.919 19.4253 172.849 19.4253 172.803C19.4253 172.756 19.4717 172.733 19.4717 172.71C19.4947 172.64 19.4947 172.594 19.5176 172.524C19.5176 172.5 19.5411 172.5 19.5411 172.478C19.587 172.408 19.6105 172.315 19.6569 172.268C19.6569 172.268 19.6569 172.222 19.7034 172.222C19.7263 172.175 19.7728 172.106 19.8428 172.059L26.3701 165.439C26.9505 164.881 27.9031 164.881 28.4605 165.439C29.0408 166.019 29.0408 166.949 28.4605 167.529L22.955 173.08L28.4605 178.633Z" fill="#F8F9FA"/>
<path d="M34.3827 179.376L40.0733 165.834C40.3526 165.183 41.0959 164.881 41.7697 165.16C42.3965 165.416 42.6982 166.182 42.4195 166.809L36.7288 180.375C36.5201 180.862 36.032 181.141 35.544 181.141C35.4046 181.141 35.2194 181.118 35.08 181.048C34.4062 180.793 34.104 180.027 34.3827 179.376Z" fill="#F8F9FA"/>
<path d="M53.662 173.917C53.662 173.917 53.662 173.94 53.6391 173.94C53.5927 173.987 53.5462 174.056 53.4768 174.103L46.9494 180.723C46.6707 181.002 46.2756 181.142 45.9046 181.142C45.5094 181.142 45.1613 181.002 44.8591 180.723C44.2787 180.142 44.2787 179.237 44.8591 178.633L50.3645 173.081L44.8591 167.53C44.2787 166.95 44.2787 166.02 44.8591 165.44C45.4165 164.882 46.3691 164.882 46.9494 165.44L53.4768 172.06C53.5462 172.106 53.5927 172.176 53.6391 172.223C53.662 172.223 53.662 172.269 53.662 172.269C53.7085 172.362 53.7555 172.409 53.7785 172.479C53.7785 172.501 53.802 172.501 53.802 172.525C53.8249 172.595 53.8249 172.641 53.872 172.734C53.872 172.757 53.8949 172.757 53.8949 172.803C53.8949 172.85 53.8949 172.92 53.8949 172.965C53.8949 172.989 53.9178 173.058 53.9178 173.081C53.9178 173.105 53.8949 173.174 53.8949 173.198C53.8949 173.267 53.8949 173.313 53.8949 173.383C53.8949 173.407 53.872 173.407 53.872 173.43C53.8255 173.523 53.8255 173.593 53.802 173.639C53.802 173.662 53.7785 173.662 53.7785 173.709C53.7549 173.754 53.7085 173.824 53.662 173.917Z" fill="#F8F9FA"/>
<path d="M19.2207 261.737L66.1237 261.68L113.027 261.66L206.832 261.621L300.638 261.659L347.54 261.68L394.444 261.737L347.54 261.793L300.638 261.814L206.832 261.853L113.027 261.813L66.1237 261.793L19.2207 261.737Z" fill="#2B2B2B"/>
<path d="M357.241 47.1606H55.2383V229.816H357.241V47.1606Z" fill="white"/>
<path d="M357.241 229.816L55.2387 230.035H55.0194V229.816L54.9453 47.1606V46.8672H55.2387L357.241 46.9895H357.413V47.1606L357.241 229.816ZM357.241 229.816L357.07 47.1606L357.241 47.3317L55.2387 47.454L55.5321 47.1606L55.458 229.816L55.2387 229.596L357.241 229.816Z" fill="#C7C7C7"/>
<path d="M357.241 47.1606H55.2383V76.9199H357.241V47.1606Z" fill="#009CD9"/>
<path d="M73.9804 66.4961H67.7734V67.5327H73.9804V66.4961Z" fill="white"/>
<path d="M73.9804 71.1426H67.7734V72.1792H73.9804V71.1426Z" fill="white"/>
<path d="M73.9804 68.8462H67.7734V69.8828H73.9804V68.8462Z" fill="white"/>
<path opacity="0.1" d="M344.707 66.4058H286.49V72.2699H344.707V66.4058Z" fill="#2B2B2B"/>
<path d="M344.708 66.4058H338.844V72.2699H344.708V66.4058Z" fill="white"/>
<path d="M343.635 70.9817L343.093 71.3921L342.09 70.0673L341.723 69.5828C341.796 69.554 341.867 69.514 341.933 69.4635C342.06 69.3665 342.154 69.2406 342.211 69.103L342.601 69.6169L343.635 70.9817Z" fill="#009CD9"/>
<path d="M342.568 67.8625C342.071 67.2145 341.143 67.0922 340.495 67.5891C339.847 68.0859 339.725 69.0144 340.221 69.6618C340.668 70.2445 341.462 70.4021 342.089 70.0675C342.16 70.0293 342.228 69.9857 342.293 69.9352C342.414 69.8423 342.517 69.7347 342.6 69.6171C342.966 69.1026 342.972 68.3899 342.568 67.8625ZM341.932 69.4636C341.867 69.5142 341.795 69.5542 341.722 69.583C341.363 69.7264 340.939 69.6224 340.693 69.3007C340.396 68.9132 340.468 68.3576 340.856 68.0606C341.243 67.7637 341.798 67.8372 342.096 68.2247C342.295 68.4852 342.328 68.8209 342.21 69.1032C342.153 69.2413 342.06 69.3666 341.932 69.4636Z" fill="#009CD9"/>
<path d="M288.031 67.5586H287.717V71.1172H288.031V67.5586Z" fill="white"/>
<path d="M125.184 66.4961H97.2891V72.1791H125.184V66.4961Z" stroke="white" stroke-miterlimit="10"/>
<path d="M159.205 66.4961H131.311V72.1791H159.205V66.4961Z" stroke="white" stroke-miterlimit="10"/>
<path opacity="0.1" d="M193.229 66.4961H165.334V72.1791H193.229V66.4961Z" fill="#2B2B2B"/>
<path d="M227.25 66.4961H199.355V72.1791H227.25V66.4961Z" stroke="white" stroke-miterlimit="10"/>
<path d="M261.272 66.4961H233.377V72.1791H261.272V66.4961Z" stroke="white" stroke-miterlimit="10"/>
<path d="M357.241 47.1606H55.2383V51.8876H357.241V47.1606Z" fill="#37474F"/>
<path d="M58.9953 49.5244C58.9953 50.1718 58.4703 50.6969 57.8229 50.6969C57.1755 50.6969 56.6504 50.1718 56.6504 49.5244C56.6504 48.877 57.1755 48.3525 57.8229 48.3525C58.4708 48.352 58.9953 48.8764 58.9953 49.5244Z" fill="#C7C7C7"/>
<path d="M63.7824 49.5244C63.7824 50.1718 63.2574 50.6969 62.61 50.6969C61.9626 50.6969 61.4375 50.1718 61.4375 49.5244C61.4375 48.877 61.9626 48.3525 62.61 48.3525C63.2574 48.3525 63.7824 48.8764 63.7824 49.5244Z" fill="white"/>
<path d="M68.569 49.5244C68.569 50.1718 68.0439 50.6969 67.3965 50.6969C66.7491 50.6969 66.2246 50.1718 66.2246 49.5244C66.2246 48.877 66.7497 48.3525 67.3965 48.3525C68.0445 48.352 68.569 48.8764 68.569 49.5244Z" fill="#009CD9"/>
<path d="M357.241 76.9199H352.053V229.816H357.241V76.9199Z" fill="#DBDBDB"/>
<path d="M354.643 129.927C353.902 129.927 353.303 129.411 353.303 128.776V78.9667C353.303 78.3305 353.902 77.8154 354.643 77.8154C355.383 77.8154 355.983 78.3311 355.983 78.9667V128.776C355.983 129.412 355.383 129.927 354.643 129.927Z" fill="#A6A6A6"/>
<path d="M67.8809 84.3022V106.709H90.2913V84.3022H67.8809ZM69.5725 105.017V85.9939H88.5955V105.017H69.5725Z" fill="#F8F9FA"/>
<path d="M177.477 88.0718H166.383V99.1609H177.477V88.0718Z" fill="#009CD9"/>
<path d="M274.366 88.0718H263.271V99.1609H274.366V88.0718Z" fill="#009CD9"/>
<path d="M78.1008 144.821H67.0059V155.91H78.1008V144.821Z" fill="#009CD9"/>
<path d="M327.637 202.007V224.414H350.047V202.007H327.637ZM329.328 222.722V203.699H348.351V222.722H329.328Z" fill="#F8F9FA"/>
<path d="M111.43 150.365H72.5547V157.631H111.43V150.365Z" fill="#455A64"/>
<path d="M179.373 161.217H72.5547V163.933H179.373V161.217Z" fill="#DBDBDB"/>
<path d="M179.373 167.192H72.5547V169.908H179.373V167.192Z" fill="#DBDBDB"/>
<path d="M179.373 173.167H72.5547V175.883H179.373V173.167Z" fill="#DBDBDB"/>
<path d="M179.373 179.143H72.5547V181.859H179.373V179.143Z" fill="#DBDBDB"/>
<path d="M179.373 185.118H72.5547V187.834H179.373V185.118Z" fill="#DBDBDB"/>
<path d="M210.805 93.6167H171.93V100.883H210.805V93.6167Z" fill="#455A64"/>
<path d="M251.797 105.893H171.93V108.609H251.797V105.893Z" fill="#DBDBDB"/>
<path d="M251.797 111.869H171.93V114.585H251.797V111.869Z" fill="#DBDBDB"/>
<path d="M251.797 117.844H171.93V120.56H251.797V117.844Z" fill="#DBDBDB"/>
<path d="M251.797 123.819H171.93V126.535H251.797V123.819Z" fill="#DBDBDB"/>
<path d="M251.797 131.767H171.93V134.483H251.797V131.767Z" fill="#DBDBDB"/>
<path d="M251.797 137.743H171.93V140.459H251.797V137.743Z" fill="#DBDBDB"/>
<path d="M339.911 93.6167H268.82V101.013H339.911V93.6167Z" fill="#455A64"/>
<path d="M339.728 101.075H269.018V217.045H339.728V101.075Z" fill="white"/>
<path d="M339.925 217.237H268.82V100.883H339.925V217.237ZM269.214 216.853H339.531V101.267H269.214V216.853Z" fill="#DBDBDB"/>
<path d="M269.2 217.116L268.834 216.973L339.545 101.004L339.911 101.146L269.2 217.116Z" fill="#DBDBDB"/>
<path d="M339.545 217.116L268.834 101.146L269.2 101.004L339.911 216.973L339.545 217.116Z" fill="#DBDBDB"/>
<path d="M125.759 93.7456H41.0352V140.33H125.759V93.7456Z" fill="white"/>
<path d="M40.9012 140.459V140.341L40.8848 93.6379H41.0271L125.893 93.6167L125.91 140.438H125.768L40.9012 140.459ZM41.1699 93.8742L41.1858 140.223L125.626 140.202L125.609 93.8537L41.1699 93.8742Z" fill="#DBDBDB"/>
<path d="M41.1699 93.874C48.2971 97.6219 55.3772 101.43 62.4496 105.247L83.6141 116.765L104.678 128.41L115.174 134.277L125.625 140.202L114.962 134.545L104.344 128.83L83.1802 117.311L62.1168 105.665C55.1143 101.76 48.1183 97.8466 41.1699 93.874Z" fill="#DBDBDB"/>
<path d="M125.626 93.874C118.678 97.8471 111.682 101.76 104.678 105.665L83.6147 117.31L62.4508 128.829L51.8333 134.544L41.1699 140.201L51.6204 134.277L62.1168 128.41L83.1808 116.765L104.345 105.247C111.419 101.43 118.498 97.6219 125.626 93.874Z" fill="#DBDBDB"/>
<path d="M82.5039 206.817V239.575H255.381V206.817H82.5039Z" fill="white"/>
<path d="M255.667 206.726V239.667H82.2168V206.726H255.667ZM255.093 239.484V206.908H82.7895V239.484H255.093Z" fill="#009CD9"/>
<path d="M255.485 239.491L255.273 239.66L82.3965 206.901L82.6082 206.732L255.485 239.491Z" fill="#009CD9"/>
<path d="M255.485 206.901L82.6082 239.66L82.3965 239.491L255.273 206.732L255.485 206.901Z" fill="#009CD9"/>
<path d="M192.017 188.024H249.121V151.643H192.017V188.024Z" fill="#009CD9"/>
<path d="M188.703 190.349V191.231H189.585" stroke="#2B2B2B" stroke-width="0.5" stroke-miterlimit="10"/>
<path d="M191.355 191.231H250.665" stroke="#2B2B2B" stroke-width="0.5" stroke-miterlimit="10" stroke-dasharray="3.01 3.01"/>
<path d="M251.551 191.231H252.433V190.349" stroke="#2B2B2B" stroke-width="0.5" stroke-miterlimit="10"/>
<path d="M252.434 188.565V150.21" stroke="#2B2B2B" stroke-width="0.5" stroke-miterlimit="10" stroke-dasharray="3.03 3.03"/>
<path d="M252.433 149.318V148.436H251.551" stroke="#2B2B2B" stroke-width="0.5" stroke-miterlimit="10"/>
<path d="M249.78 148.436H190.471" stroke="#2B2B2B" stroke-width="0.5" stroke-miterlimit="10" stroke-dasharray="3.01 3.01"/>
<path d="M189.585 148.436H188.703V149.318" stroke="#2B2B2B" stroke-width="0.5" stroke-miterlimit="10"/>
<path d="M188.703 151.102V189.457" stroke="#2B2B2B" stroke-width="0.5" stroke-miterlimit="10" stroke-dasharray="3.03 3.03"/>
<g opacity="0.1">
<path d="M210.855 180.189H249.121L229.988 164.352L210.855 180.189Z" fill="#2B2B2B"/>
</g>
<path d="M192.016 180.203H225.95L208.983 169.89L192.016 180.203Z" fill="#009CD9"/>
<g opacity="0.2">
<path d="M192.016 180.203H225.95L208.983 169.89L192.016 180.203Z" fill="#2B2B2B"/>
</g>
<path d="M249.12 180.186H192.016V188.024H249.12V180.186Z" fill="#009CD9"/>
<g opacity="0.2">
<path d="M249.12 180.186H192.016V188.024H249.12V180.186Z" fill="#2B2B2B"/>
</g>
<path opacity="0.1" d="M202.2 166.859C205.109 166.859 207.467 164.501 207.467 161.592C207.467 158.684 205.109 156.326 202.2 156.326C199.292 156.326 196.934 158.684 196.934 161.592C196.934 164.501 199.292 166.859 202.2 166.859Z" fill="#2B2B2B"/>
<path d="M190.56 146.58H186.848V150.292H190.56V146.58Z" fill="#2B2B2B"/>
<path d="M190.56 189.375H186.848V193.088H190.56V189.375Z" fill="#2B2B2B"/>
<path d="M190.029 168.508H187.379V171.158H190.029V168.508Z" fill="#2B2B2B"/>
<path d="M221.892 147.111H219.242V149.761H221.892V147.111Z" fill="#2B2B2B"/>
<path d="M221.892 189.906H219.242V192.556H221.892V189.906Z" fill="#2B2B2B"/>
<path d="M253.758 168.508H251.107V171.158H253.758V168.508Z" fill="#2B2B2B"/>
<path d="M254.289 146.58H250.576V150.292H254.289V146.58Z" fill="#2B2B2B"/>
<path d="M254.289 189.375H250.576V193.088H254.289V189.375Z" fill="#2B2B2B"/>
<path d="M259.676 204.943L262.455 211.651L259.68 212.799L256.887 206.047L252.303 209.603V190.708L265.529 204.07L259.676 204.943Z" fill="#2B2B2B"/>
<path d="M252.464 188.196C252.232 187.778 252.18 187.36 252.17 186.942C252.179 186.525 252.23 186.107 252.464 185.689C252.697 186.107 252.749 186.525 252.758 186.942C252.748 187.36 252.696 187.778 252.464 188.196Z" fill="#2B2B2B"/>
<path d="M250.307 189.089C249.848 188.957 249.515 188.699 249.213 188.411C248.924 188.109 248.665 187.777 248.535 187.317C248.996 187.447 249.328 187.706 249.629 187.995C249.917 188.298 250.175 188.63 250.307 189.089Z" fill="#2B2B2B"/>
<path d="M249.412 191.248C248.995 191.479 248.577 191.532 248.159 191.542C247.742 191.533 247.324 191.481 246.906 191.248C247.324 191.014 247.742 190.962 248.159 190.954C248.577 190.964 248.995 191.015 249.412 191.248Z" fill="#2B2B2B"/>
<path d="M250.307 193.406C250.175 193.865 249.917 194.197 249.629 194.499C249.327 194.789 248.995 195.047 248.535 195.178C248.666 194.718 248.924 194.385 249.214 194.084C249.515 193.796 249.848 193.537 250.307 193.406Z" fill="#2B2B2B"/>
<path d="M255.518 191.248C255.935 191.016 256.353 190.964 256.771 190.954C257.188 190.962 257.606 191.014 258.024 191.248C257.606 191.48 257.188 191.533 256.771 191.542C256.353 191.532 255.935 191.479 255.518 191.248Z" fill="#2B2B2B"/>
<path d="M254.623 189.089C254.755 188.63 255.013 188.298 255.302 187.995C255.603 187.706 255.935 187.447 256.395 187.317C256.265 187.777 256.006 188.11 255.717 188.411C255.414 188.699 255.082 188.958 254.623 189.089Z" fill="#2B2B2B"/>
<path d="M362.722 167.942H327.262V175.288H362.722V167.942Z" fill="#009CD9"/>
<path d="M336.778 175.227L335.783 184.612L323.526 261.852H320.02L329.695 184.612L330.481 175.227H336.778Z" fill="#009CD9"/>
<path d="M369.966 261.852H366.454L354.197 184.612L353.203 175.227H359.499L360.286 184.612L369.966 261.852Z" fill="#009CD9"/>
<path d="M364.047 237.461H324.934V239.666H364.047V237.461Z" fill="#009CD9"/>
<path opacity="0.1" d="M329.695 184.279H335.784L336.778 175.227H330.481L329.695 184.279Z" fill="#2B2B2B"/>
<path opacity="0.1" d="M360.286 184.279H354.197L353.203 175.227H359.499L360.286 184.279Z" fill="#2B2B2B"/>
<path d="M289.751 180.45C290.139 179.277 310.91 151.832 312.329 151.304C312.492 151.234 321.777 157.842 321.777 157.842C322.16 158.353 339.809 154.624 339.809 154.624L339.985 175.915L307.834 175.231C307.834 175.231 303.492 177.784 299.519 179.864C299.512 179.865 299.509 179.869 299.506 179.866C297.061 181.154 294.897 182.24 294.28 182.401C292.671 182.813 289.356 181.617 289.751 180.45Z" fill="#F7A9A0"/>
<path d="M294.279 182.401C294.899 182.242 297.061 181.156 299.504 179.865C299.509 179.871 299.514 179.865 299.519 179.865C303.489 177.785 307.832 175.229 307.832 175.229L314.987 175.383L326.189 157.307C323.731 157.742 321.897 158.004 321.774 157.84C321.774 157.84 312.493 151.233 312.329 151.304C310.91 151.832 290.14 179.276 289.751 180.449C289.357 181.617 292.671 182.815 294.279 182.401Z" fill="white"/>
<path d="M289.561 180.486C289.97 179.284 310.835 151.855 312.292 151.311C312.843 151.102 317.386 153.908 321.776 157.841L308.303 175.509C308.303 175.509 295.873 182.094 294.211 182.518C292.554 182.937 289.153 181.688 289.561 180.486Z" fill="#A6A6A6"/>
<path d="M290.959 180.928C294.569 176.416 308.706 157.876 311.932 153.141C311.958 153.103 311.933 153.084 311.903 153.12C308.227 157.514 294.241 176.167 290.883 180.871C290.812 180.97 290.882 181.023 290.959 180.928Z" fill="#2B2B2B"/>
<path d="M296.541 181.505C297.415 180.448 297.707 178.989 297.51 177.9C297.321 176.854 296.815 175.698 295.837 175.005C295.809 174.985 295.77 175.035 295.795 175.061C297.395 176.693 297.73 179.531 296.483 181.461C296.458 181.5 296.511 181.541 296.541 181.505Z" fill="#2B2B2B"/>
<path d="M306.746 176.601C308.172 174.78 309.145 172.152 308.51 169.864C308.485 169.775 308.359 169.812 308.347 169.888C307.938 172.204 307.375 174.271 306.496 176.461C306.434 176.615 306.644 176.732 306.746 176.601Z" fill="#2B2B2B"/>
<path d="M305.111 177.6C306.537 175.779 307.51 173.152 306.875 170.863C306.851 170.774 306.725 170.811 306.712 170.887C306.304 173.203 305.74 175.27 304.861 177.459C304.799 177.614 305.009 177.731 305.111 177.6Z" fill="#2B2B2B"/>
<path d="M303.477 178.6C304.902 176.779 305.876 174.151 305.241 171.863C305.216 171.774 305.091 171.81 305.077 171.886C304.669 174.202 304.105 176.27 303.226 178.459C303.164 178.613 303.375 178.73 303.477 178.6Z" fill="#2B2B2B"/>
<path d="M301.842 179.599C303.268 177.778 304.241 175.151 303.606 172.862C303.581 172.773 303.456 172.81 303.442 172.886C303.034 175.202 302.47 177.269 301.591 179.459C301.529 179.613 301.74 179.729 301.842 179.599Z" fill="#2B2B2B"/>
<path d="M315.408 157.635C316.972 155.566 313.759 153.13 312.192 155.203C310.627 157.273 313.84 159.708 315.408 157.635Z" fill="#2B2B2B"/>
<path d="M310.143 182.326C311.624 181.982 311.762 180.234 311.397 179.049C310.806 177.131 309.471 175.107 307.963 173.797C307.926 173.765 307.888 173.782 307.866 173.815C307.705 173.754 307.475 173.825 307.466 174.033C307.375 176.033 307.031 178.16 307.557 180.127C307.865 181.276 308.743 182.651 310.143 182.326ZM307.949 177.092C307.97 176.108 308.039 175.13 308.023 174.145C308.69 175.171 309.398 176.164 309.961 177.257C310.23 177.779 310.495 178.319 310.691 178.873C310.995 179.736 311.159 182.712 309.017 181.372C307.836 180.633 307.925 178.266 307.949 177.092Z" fill="#2B2B2B"/>
<path d="M310.76 168.706C309.295 170.121 308.494 172.121 307.54 173.881C307.441 174.063 307.601 174.243 307.771 174.274C307.772 174.312 307.796 174.347 307.845 174.339C309.812 173.994 311.999 172.947 313.495 171.609C314.418 170.782 315.201 169.213 314.109 168.155C313.076 167.154 311.615 167.879 310.76 168.706ZM312.652 168.392C315.178 168.347 313.503 170.813 312.799 171.396C312.346 171.77 311.839 172.096 311.34 172.405C310.294 173.051 309.175 173.536 308.075 174.072C308.597 173.236 309.042 172.363 309.532 171.508C310.116 170.49 311.26 168.416 312.652 168.392Z" fill="#2B2B2B"/>
<path d="M340.781 148.094H355.212C355.212 148.094 370.306 140.838 382.465 143.761C396.404 147.112 398.186 164.621 387.767 170.811C374.567 178.654 315.826 177.136 315.826 177.136L328.525 155.612C328.525 155.612 348.059 151.501 365.773 152.097L340.781 155.503L340.781 148.094Z" fill="#37474F"/>
<path d="M327.68 157.001C327.696 156.974 327.7 156.921 327.707 156.891C327.714 156.861 327.721 156.831 327.729 156.801C327.746 156.731 327.765 156.661 327.784 156.593C327.825 156.448 327.877 156.311 327.932 156.172C327.987 156.032 328.047 155.897 328.111 155.762C328.177 155.622 328.265 155.51 328.348 155.381C328.357 155.368 328.371 155.366 328.382 155.358C328.389 155.352 328.396 155.347 328.405 155.342C328.416 155.337 328.425 155.331 328.436 155.329C328.448 155.325 328.456 155.318 328.469 155.316C330.617 154.916 345.214 152.828 347.384 152.58C349.572 152.331 351.767 152.127 353.961 151.943C358.339 151.575 362.741 151.393 367.134 151.469C367.547 151.476 367.958 151.492 368.369 151.506C368.456 151.478 368.55 151.462 368.64 151.44C368.85 151.389 369.06 151.337 369.273 151.296C369.669 151.22 370.069 151.162 370.468 151.101C371.299 150.974 372.133 150.885 372.96 150.731C373.01 150.721 373.03 150.797 372.979 150.808C372.148 150.993 371.33 151.234 370.498 151.415C370.258 151.467 370.019 151.519 369.778 151.568C371.389 151.652 372.997 151.776 374.605 151.922C374.656 151.927 374.657 152.005 374.605 152.002C372.417 151.873 370.213 151.857 368.022 151.894C365.846 151.931 363.671 151.979 361.498 152.104C357.103 152.355 352.711 152.75 348.333 153.208C345.877 153.465 330.994 155.637 328.526 155.741C328.515 155.741 328.506 155.736 328.496 155.736C328.476 155.792 328.456 155.849 328.428 155.905C328.36 156.039 328.292 156.171 328.219 156.302C328.148 156.429 328.079 156.553 327.999 156.674C327.959 156.734 327.919 156.793 327.878 156.852C327.857 156.882 327.837 156.911 327.817 156.941C327.8 156.967 327.761 157.005 327.753 157.034C327.735 157.088 327.65 157.052 327.68 157.001Z" fill="#2B2B2B"/>
<path d="M320.407 175.827C321.193 174.569 321.863 173.228 322.583 171.93C323.304 170.63 324.027 169.329 324.751 168.029C326.196 165.437 331.382 156.717 331.894 156.107C331.927 156.069 331.993 156.113 331.977 156.158C331.733 156.832 328.496 162.606 327.751 163.893C326.261 166.467 324.695 168.991 323.151 171.533C322.71 172.259 322.254 172.975 321.807 173.697C321.362 174.418 320.885 175.128 320.475 175.869C320.45 175.914 320.379 175.871 320.407 175.827Z" fill="#2B2B2B"/>
<path d="M332.041 158.277C333.337 157.966 334.665 157.763 335.974 157.515C337.287 157.267 338.6 157.02 339.914 156.776C342.542 156.289 345.173 155.821 347.808 155.377C353.064 154.492 358.343 153.757 363.649 153.249C366.644 152.962 369.647 152.772 372.648 152.552C372.711 152.547 372.71 152.649 372.645 152.652C367.301 152.892 361.963 153.617 356.671 154.377C351.43 155.13 346.202 155.957 340.981 156.838C339.506 157.087 338.033 157.339 336.56 157.595C335.065 157.854 333.568 158.173 332.063 158.364C332.007 158.371 331.984 158.291 332.041 158.277Z" fill="#2B2B2B"/>
<path d="M317.113 250.486C318.378 250.359 349.847 236.215 350.706 234.917C351.034 234.427 349.241 229.723 346.914 224.102C346.412 222.888 345.885 221.638 345.343 220.371C341.837 212.14 337.924 203.49 337.924 203.49L316.846 212.89L324.845 229.512L326.598 233.163C326.598 233.163 316.972 243.967 316.182 245.491C315.4 247.013 315.848 250.612 317.113 250.486Z" fill="#F7A9A0"/>
<path d="M317.113 250.486C318.378 250.359 349.846 236.215 350.705 234.917C351.102 234.318 348.374 227.5 345.343 220.371L324.846 229.512L326.599 233.163C326.599 233.163 316.972 243.967 316.183 245.491C315.4 247.013 315.848 250.612 317.113 250.486Z" fill="white"/>
<path d="M317.113 250.486C318.378 250.359 349.846 236.215 350.705 234.917C351.033 234.427 349.241 229.723 346.913 224.102L326.599 233.163C326.599 233.163 316.972 243.967 316.183 245.491C315.4 247.013 315.848 250.612 317.113 250.486Z" fill="#A6A6A6"/>
<path d="M316.998 249.023C322.215 246.523 343.492 236.93 348.839 234.854C348.882 234.837 348.895 234.867 348.854 234.887C343.737 237.478 322.382 246.899 317.036 249.11C316.924 249.157 316.888 249.076 316.998 249.023Z" fill="#2B2B2B"/>
<path d="M317.698 243.449C318.927 242.836 320.416 242.881 321.433 243.319C322.411 243.74 323.424 244.495 323.878 245.606C323.891 245.637 323.834 245.664 323.814 245.634C322.585 243.705 319.893 242.736 317.728 243.515C317.684 243.531 317.657 243.471 317.698 243.449Z" fill="#2B2B2B"/>
<path d="M324.787 234.606C326.886 233.628 329.668 233.273 331.756 234.41C331.837 234.454 331.773 234.568 331.696 234.564C329.345 234.438 327.201 234.521 324.868 234.882C324.703 234.909 324.637 234.677 324.787 234.606Z" fill="#2B2B2B"/>
<path d="M323.444 235.975C325.542 234.996 328.324 234.641 330.413 235.778C330.494 235.822 330.43 235.937 330.353 235.932C328.002 235.806 325.858 235.889 323.525 236.25C323.359 236.276 323.293 236.045 323.444 235.975Z" fill="#2B2B2B"/>
<path d="M322.1 237.343C324.198 236.364 326.981 236.009 329.069 237.146C329.15 237.191 329.086 237.305 329.009 237.301C326.658 237.175 324.514 237.258 322.18 237.619C322.016 237.644 321.949 237.413 322.1 237.343Z" fill="#2B2B2B"/>
<path d="M320.756 238.711C322.854 237.732 325.637 237.378 327.725 238.514C327.806 238.558 327.742 238.672 327.665 238.668C325.314 238.543 323.17 238.625 320.836 238.986C320.672 239.012 320.606 238.781 320.756 238.711Z" fill="#2B2B2B"/>
<path d="M345.244 230.449C347.616 229.391 349.264 233.075 346.888 234.135C344.516 235.193 342.868 231.508 345.244 230.449Z" fill="#2B2B2B"/>
<path d="M321.533 233.017C323.333 233.975 325.485 234.12 327.455 234.484C327.66 234.522 327.781 234.315 327.758 234.143C327.794 234.13 327.82 234.097 327.797 234.053C326.861 232.286 325.188 230.527 323.451 229.516C322.379 228.892 320.643 228.631 319.973 229.998C319.34 231.291 320.482 232.458 321.533 233.017ZM320.649 231.312C319.826 228.921 322.692 229.754 323.464 230.245C323.961 230.561 324.428 230.942 324.876 231.322C325.814 232.119 326.621 233.033 327.472 233.916C326.514 233.677 325.546 233.523 324.581 233.321C323.431 233.08 321.102 232.631 320.649 231.312Z" fill="#2B2B2B"/>
<path d="M334.69 229.337C333.905 228.033 332.198 228.441 331.183 229.155C329.539 230.311 328.024 232.207 327.243 234.047C327.223 234.093 327.252 234.124 327.289 234.134C327.281 234.307 327.42 234.503 327.62 234.448C329.552 233.916 331.684 233.587 333.395 232.478C334.394 231.831 335.433 230.57 334.69 229.337ZM330.384 233.042C329.441 233.327 328.489 233.563 327.555 233.883C328.326 232.931 329.052 231.95 329.919 231.076C330.332 230.659 330.765 230.239 331.233 229.882C331.96 229.326 334.744 228.25 334.129 230.704C333.791 232.056 331.51 232.703 330.384 233.042Z" fill="#2B2B2B"/>
<path d="M344.863 218.439L321.157 229.158C321.157 229.158 292.941 175.001 292.204 158.424C291.576 144.315 301.398 138.87 333.148 147.996L340.927 148.095V153.462C337.512 153.913 328.405 155.343 328.405 155.343C321.777 157.842 319.643 158.877 319.75 159.092C336.275 192.464 344.863 218.439 344.863 218.439Z" fill="#37474F"/>
<path d="M315.865 153.139C316.822 154.413 317.707 155.742 318.554 157.095C323.647 154.831 329.191 153.518 334.706 152.839C336.267 152.646 337.836 152.509 339.406 152.42C339.47 152.416 339.467 152.516 339.403 152.52C333.809 152.866 328.319 154.004 322.968 155.649C321.491 156.103 320.043 156.63 318.589 157.149C319.606 158.778 320.565 160.446 321.487 162.126C323.209 165.264 324.748 168.496 326.123 171.802C326.883 173.632 327.626 175.475 328.28 177.347C328.299 177.4 328.211 177.435 328.188 177.384C325.292 170.926 322.137 164.613 318.703 158.424C317.735 156.679 316.726 154.958 315.781 153.2C315.754 153.15 315.828 153.09 315.865 153.139Z" fill="#2B2B2B"/>
<path d="M320.64 223.427C322.022 222.89 323.362 222.216 324.715 221.607C326.071 220.996 327.428 220.386 328.787 219.778C331.496 218.566 340.868 214.682 341.643 214.5C341.692 214.488 341.719 214.563 341.679 214.59C341.08 214.984 335.032 217.673 333.665 218.259C330.93 219.43 328.166 220.516 325.408 221.629C324.621 221.946 323.826 222.247 323.036 222.559C322.247 222.869 321.441 223.153 320.669 223.501C320.622 223.523 320.591 223.446 320.64 223.427Z" fill="#2B2B2B"/>
<path d="M315.981 155.585C317.852 159.14 319.444 162.858 321.07 166.53C322.688 170.187 324.261 173.864 325.788 177.561C328.83 184.922 331.657 192.371 334.289 199.888C335.779 204.142 337.172 208.428 338.529 212.727C338.548 212.788 338.452 212.811 338.432 212.751C335.919 205.152 333.2 197.619 330.358 190.137C327.524 182.673 324.513 175.273 321.328 167.952C320.434 165.896 319.525 163.846 318.602 161.802C317.679 159.757 316.718 157.725 315.854 155.655C315.819 155.571 315.936 155.501 315.981 155.585Z" fill="#2B2B2B"/>
<path d="M330.996 110.652C320.394 118.837 310.745 128.204 309.609 133.709C308.895 137.173 311.549 142.738 313.489 146.025C314.434 147.626 329.405 138.037 327.806 136.859C323.848 133.942 323.066 132.627 323.293 131.852C323.438 131.356 334.235 117.94 336.923 112.284C340.668 104.404 335.634 107.071 330.996 110.652Z" fill="#F7A9A0"/>
<path d="M315.744 122.802L325.818 129.655C325.818 129.655 335.284 117.655 337.565 111.637C339.846 105.619 337.342 105.55 331.396 109.814C325.45 114.078 315.744 122.802 315.744 122.802Z" fill="#009CD9"/>
<path d="M315.744 122.802L325.818 129.655C325.818 129.655 335.284 117.655 337.565 111.637C339.846 105.619 337.342 105.55 331.396 109.814C325.45 114.078 315.744 122.802 315.744 122.802Z" fill="#009CD9"/>
<path opacity="0.1" d="M333.483 113.308L332.389 113.025L332.66 111.932C332.689 111.82 332.619 111.702 332.507 111.673C332.395 111.65 332.278 111.714 332.248 111.832L331.925 113.131C331.925 113.143 331.919 113.155 331.925 113.161C331.919 113.167 331.919 113.172 331.919 113.172V113.208C331.919 113.208 331.919 113.208 331.919 113.214C331.925 113.225 331.925 113.231 331.931 113.237C331.931 113.243 331.925 113.249 331.931 113.255C331.937 113.261 331.937 113.267 331.942 113.272C331.942 113.278 331.948 113.284 331.948 113.29C331.954 113.296 331.96 113.302 331.96 113.308C331.966 113.314 331.966 113.319 331.972 113.325C331.978 113.331 331.984 113.325 331.99 113.337C331.995 113.337 331.995 113.349 332.001 113.349C332.007 113.355 332.013 113.355 332.019 113.355C332.025 113.367 332.031 113.367 332.042 113.372C332.042 113.372 332.048 113.372 332.054 113.372C332.06 113.384 332.066 113.384 332.078 113.384L333.377 113.719C333.436 113.731 333.489 113.725 333.542 113.696C333.583 113.666 333.618 113.625 333.636 113.566C333.665 113.449 333.595 113.337 333.483 113.308ZM334.336 110.815C334.324 110.715 334.23 110.644 334.13 110.656C334.03 110.673 333.959 110.762 333.971 110.868L334.271 112.961C334.283 113.061 334.377 113.137 334.477 113.12C334.5 113.114 334.524 113.108 334.541 113.096C334.6 113.061 334.641 112.99 334.63 112.914L334.336 110.815ZM336.247 110.815C336.247 110.809 336.241 110.803 336.241 110.785V110.779C336.235 110.768 336.235 110.762 336.229 110.756C336.223 110.75 336.223 110.744 336.223 110.738C336.217 110.738 336.211 110.732 336.211 110.726C336.205 110.721 336.2 110.715 336.2 110.709C336.194 110.703 336.194 110.703 336.188 110.697C336.176 110.691 336.176 110.685 336.164 110.679C336.164 110.673 336.164 110.673 336.158 110.673C336.153 110.668 336.141 110.668 336.129 110.656C336.129 110.656 336.129 110.656 336.123 110.656C336.111 110.65 336.106 110.644 336.094 110.644L334.794 110.309C334.683 110.28 334.565 110.35 334.536 110.462C334.506 110.579 334.577 110.691 334.688 110.721L335.782 111.003L335.512 112.096C335.482 112.214 335.547 112.326 335.665 112.355C335.723 112.367 335.776 112.361 335.823 112.332C335.87 112.302 335.911 112.255 335.923 112.202L336.241 110.897C336.247 110.885 336.247 110.873 336.253 110.868C336.253 110.862 336.253 110.862 336.253 110.862V110.826C336.247 110.82 336.253 110.82 336.247 110.815ZM326.562 116.036C326.527 115.93 326.409 115.866 326.298 115.901L325.028 116.33C325.016 116.33 325.004 116.336 324.998 116.342C324.992 116.342 324.986 116.348 324.986 116.348C324.981 116.348 324.969 116.359 324.963 116.365C324.957 116.371 324.957 116.365 324.957 116.371C324.945 116.377 324.945 116.383 324.939 116.389C324.934 116.395 324.928 116.395 324.922 116.401C324.922 116.406 324.916 116.412 324.916 116.418C324.91 116.424 324.904 116.43 324.904 116.436C324.898 116.442 324.898 116.448 324.898 116.454C324.892 116.459 324.892 116.465 324.886 116.477C324.886 116.477 324.892 116.483 324.886 116.495C324.886 116.495 324.881 116.506 324.881 116.512C324.881 116.518 324.881 116.524 324.886 116.53C324.886 116.542 324.881 116.548 324.881 116.559C324.881 116.559 324.886 116.565 324.886 116.571C324.886 116.577 324.886 116.589 324.892 116.595L325.304 117.871C325.327 117.924 325.369 117.965 325.416 117.994C325.463 118.018 325.522 118.023 325.574 118.006C325.686 117.971 325.745 117.853 325.71 117.735L325.363 116.665L326.427 116.307C326.545 116.271 326.603 116.148 326.562 116.036ZM328.297 116.859C328.226 116.783 328.115 116.771 328.038 116.842L326.427 118.218C326.351 118.282 326.339 118.4 326.409 118.476C326.421 118.494 326.445 118.512 326.462 118.517C326.527 118.547 326.603 118.547 326.662 118.494L328.273 117.118C328.35 117.053 328.362 116.936 328.297 116.859ZM329.367 118.547C329.367 118.547 329.367 118.547 329.367 118.541C329.367 118.529 329.367 118.517 329.361 118.506L328.95 117.236C328.908 117.124 328.785 117.065 328.679 117.1C328.567 117.136 328.503 117.253 328.544 117.365L328.891 118.441L327.826 118.8C327.709 118.835 327.65 118.953 327.685 119.064C327.709 119.123 327.744 119.164 327.797 119.188C327.844 119.211 327.903 119.217 327.956 119.199L329.226 118.77C329.238 118.77 329.249 118.764 329.261 118.758C329.273 118.753 329.285 118.747 329.291 118.741C329.296 118.735 329.296 118.735 329.296 118.735C329.302 118.729 329.308 118.717 329.32 118.711C329.32 118.706 329.32 118.706 329.326 118.706C329.332 118.7 329.338 118.694 329.338 118.682C329.344 118.682 329.349 118.67 329.349 118.67C329.349 118.664 329.355 118.653 329.355 118.653C329.355 118.647 329.361 118.635 329.367 118.629C329.367 118.623 329.367 118.623 329.367 118.623C329.367 118.606 329.367 118.6 329.373 118.588C329.373 118.588 329.373 118.588 329.373 118.582C329.373 118.57 329.367 118.564 329.367 118.547ZM320.459 123.862L321.253 123.063C321.335 122.974 321.335 122.845 321.253 122.757C321.17 122.68 321.035 122.68 320.953 122.757L320.012 123.715C320 123.721 319.994 123.727 319.988 123.739C319.983 123.739 319.983 123.745 319.983 123.745C319.977 123.751 319.971 123.762 319.965 123.774C319.965 123.774 319.965 123.774 319.965 123.78C319.959 123.792 319.959 123.798 319.953 123.809C319.953 123.809 319.947 123.815 319.947 123.821V123.845C319.947 123.845 319.947 123.856 319.947 123.862V123.903C319.947 123.909 319.953 123.909 319.953 123.921C319.959 123.927 319.959 123.933 319.965 123.939C319.965 123.945 319.965 123.951 319.971 123.956C319.977 123.962 319.977 123.968 319.983 123.98C319.983 123.98 319.988 123.986 319.994 123.986C319.994 123.998 320 124.003 320.012 124.009L320.953 124.962C320.994 125.003 321.047 125.021 321.106 125.021C321.159 125.021 321.206 125.003 321.253 124.962C321.335 124.88 321.335 124.75 321.253 124.662L320.459 123.862ZM323.169 122.716C323.075 122.68 322.964 122.722 322.928 122.816L322.105 124.768C322.064 124.862 322.111 124.974 322.205 125.009C322.229 125.021 322.252 125.021 322.276 125.021C322.346 125.021 322.411 124.98 322.446 124.915L323.264 122.957C323.305 122.869 323.264 122.757 323.169 122.716ZM324.916 123.845V123.821C324.916 123.815 324.916 123.815 324.916 123.809C324.91 123.798 324.91 123.792 324.904 123.78C324.904 123.774 324.904 123.774 324.904 123.774C324.898 123.762 324.892 123.756 324.886 123.745C324.886 123.745 324.886 123.739 324.881 123.739C324.875 123.727 324.869 123.721 324.857 123.715L323.916 122.757C323.834 122.68 323.699 122.68 323.616 122.757C323.534 122.845 323.534 122.974 323.616 123.063L324.41 123.862L323.616 124.662C323.534 124.75 323.534 124.88 323.616 124.962C323.658 125.003 323.71 125.021 323.769 125.021C323.822 125.021 323.875 125.003 323.916 124.962L324.857 124.009C324.869 124.003 324.875 123.992 324.881 123.986C324.886 123.986 324.886 123.98 324.886 123.98C324.892 123.968 324.898 123.956 324.904 123.951C324.904 123.945 324.904 123.945 324.904 123.939C324.91 123.933 324.91 123.927 324.916 123.909C324.916 123.909 324.916 123.909 324.916 123.903V123.88C324.916 123.874 324.922 123.862 324.922 123.862C324.922 123.856 324.916 123.845 324.916 123.845Z" fill="#2B2B2B"/>
<path d="M327.205 127.141C322.645 124.494 319.101 121.528 318.295 120.977C318.257 120.952 318.306 120.893 318.343 120.922C319.104 121.503 323.724 124.426 327.257 127.08C327.299 127.11 327.249 127.166 327.205 127.141Z" fill="#2B2B2B"/>
<path opacity="0.1" d="M338.365 108.756C338.282 109.491 338.018 110.45 337.565 111.638C335.284 117.653 325.817 129.654 325.817 129.654L321.795 126.92L338.365 108.756Z" fill="#2B2B2B"/>
<path d="M361.263 147.944C361.192 148.04 327.29 148.757 326.947 148.433C326.467 147.976 329.605 116.079 334.515 108.191C335.743 106.218 341.52 104.751 344.108 107.432C354.113 117.796 361.516 147.597 361.263 147.944Z" fill="#009CD9"/>
<path opacity="0.1" d="M333.482 113.307L332.477 113.049C332.43 113.184 332.388 113.319 332.347 113.454L333.376 113.719C333.435 113.731 333.488 113.725 333.541 113.695C333.582 113.666 333.617 113.625 333.635 113.566C333.664 113.448 333.594 113.337 333.482 113.307ZM334.335 110.814C334.323 110.714 334.229 110.644 334.129 110.655C334.029 110.673 333.958 110.761 333.97 110.867L334.27 112.96C334.282 113.06 334.376 113.137 334.476 113.119C334.499 113.113 334.523 113.107 334.54 113.096C334.599 113.06 334.64 112.99 334.629 112.913L334.335 110.814ZM336.246 110.814C336.246 110.808 336.24 110.802 336.24 110.785V110.779C336.234 110.767 336.234 110.761 336.228 110.755C336.222 110.749 336.222 110.744 336.222 110.738C336.216 110.738 336.21 110.732 336.21 110.726C336.204 110.72 336.199 110.714 336.199 110.708C336.193 110.702 336.193 110.702 336.187 110.697C336.175 110.691 336.175 110.685 336.163 110.679C336.163 110.673 336.163 110.673 336.157 110.673C336.152 110.667 336.14 110.667 336.128 110.655C336.128 110.655 336.128 110.655 336.122 110.655C336.11 110.65 336.105 110.644 336.093 110.644L334.793 110.308C334.682 110.279 334.564 110.35 334.535 110.461C334.505 110.579 334.576 110.691 334.687 110.72L335.781 111.002L335.511 112.096C335.481 112.214 335.546 112.325 335.663 112.355C335.722 112.366 335.775 112.361 335.822 112.331C335.869 112.302 335.91 112.255 335.922 112.202L336.24 110.896C336.246 110.885 336.246 110.873 336.251 110.867C336.251 110.861 336.251 110.861 336.251 110.861V110.826C336.246 110.82 336.252 110.82 336.246 110.814ZM347.682 124.05L346.589 123.768L346.859 122.674C346.888 122.557 346.818 122.445 346.706 122.415C346.594 122.386 346.477 122.457 346.447 122.568L346.13 123.868C346.124 123.88 346.124 123.891 346.124 123.903C346.118 123.903 346.118 123.909 346.118 123.909C346.118 123.921 346.124 123.932 346.124 123.944C346.124 123.95 346.124 123.95 346.124 123.95C346.124 123.962 346.13 123.968 346.13 123.979C346.13 123.979 346.13 123.985 346.13 123.991C346.136 123.997 346.142 124.009 346.142 124.015C346.148 124.015 346.148 124.027 346.148 124.032C346.153 124.038 346.159 124.038 346.165 124.044C346.165 124.05 346.171 124.056 346.177 124.068C346.177 124.068 346.183 124.068 346.189 124.074C346.195 124.079 346.2 124.085 346.206 124.091C346.206 124.091 346.212 124.097 346.218 124.097C346.23 124.103 346.23 124.109 346.242 124.115C346.242 124.115 346.247 124.115 346.253 124.115C346.265 124.121 346.271 124.126 346.277 124.126L347.576 124.462C347.635 124.473 347.688 124.462 347.741 124.432C347.788 124.409 347.817 124.362 347.835 124.309C347.865 124.191 347.8 124.079 347.682 124.05ZM348.535 121.551C348.523 121.457 348.429 121.381 348.335 121.398C348.229 121.41 348.159 121.504 348.17 121.604L348.47 123.703C348.482 123.803 348.576 123.874 348.676 123.856C348.699 123.856 348.723 123.844 348.741 123.832C348.805 123.797 348.841 123.727 348.835 123.65L348.535 121.551ZM350.446 121.557C350.446 121.551 350.446 121.539 350.44 121.528C350.44 121.522 350.446 121.522 350.44 121.516C350.434 121.51 350.434 121.504 350.428 121.492L350.422 121.48C350.422 121.475 350.411 121.469 350.411 121.469C350.405 121.463 350.405 121.451 350.399 121.445C350.393 121.439 350.393 121.439 350.393 121.439C350.375 121.433 350.375 121.428 350.363 121.416C350.363 121.416 350.364 121.416 350.358 121.416C350.352 121.41 350.34 121.404 350.328 121.398C350.328 121.398 350.328 121.392 350.322 121.392C350.316 121.392 350.305 121.386 350.293 121.386L348.993 121.045C348.882 121.022 348.764 121.092 348.735 121.204C348.705 121.316 348.776 121.433 348.888 121.463L349.981 121.739L349.711 122.833C349.681 122.95 349.752 123.068 349.864 123.092C349.923 123.109 349.975 123.097 350.028 123.068C350.07 123.039 350.111 122.998 350.122 122.939L350.44 121.639C350.446 121.627 350.446 121.616 350.452 121.604V121.569C350.446 121.563 350.452 121.557 350.446 121.557ZM331.994 136.721L330.907 136.439L331.177 135.346C331.206 135.234 331.136 135.116 331.024 135.087C330.912 135.063 330.795 135.134 330.76 135.246L330.442 136.545C330.436 136.557 330.436 136.569 330.436 136.574C330.43 136.58 330.436 136.586 330.436 136.586V136.621C330.436 136.621 330.436 136.621 330.436 136.627C330.442 136.639 330.442 136.645 330.448 136.651C330.448 136.657 330.442 136.663 330.448 136.669C330.448 136.674 330.454 136.68 330.46 136.686C330.46 136.692 330.466 136.704 330.466 136.704C330.471 136.716 330.471 136.716 330.477 136.721C330.483 136.727 330.483 136.733 330.489 136.739C330.489 136.745 330.501 136.745 330.507 136.751C330.507 136.751 330.513 136.763 330.518 136.763C330.524 136.768 330.53 136.774 330.536 136.768C330.542 136.78 330.548 136.786 330.56 136.786C330.56 136.786 330.566 136.786 330.571 136.792C330.577 136.798 330.583 136.798 330.595 136.798L331.894 137.133C331.947 137.145 332.006 137.139 332.053 137.11C332.1 137.08 332.136 137.039 332.153 136.98C332.183 136.868 332.112 136.757 331.994 136.721ZM332.853 134.228C332.841 134.128 332.747 134.058 332.647 134.07C332.547 134.087 332.477 134.181 332.488 134.281L332.782 136.375C332.8 136.48 332.894 136.551 332.994 136.533C333.018 136.533 333.041 136.522 333.059 136.51C333.117 136.474 333.159 136.404 333.147 136.327L332.853 134.228ZM334.764 134.24C334.764 134.234 334.764 134.234 334.764 134.228C334.764 134.222 334.758 134.217 334.758 134.199V134.193C334.752 134.181 334.746 134.181 334.74 134.17C334.74 134.17 334.74 134.158 334.734 134.152C334.734 134.152 334.729 134.146 334.729 134.14L334.711 134.122C334.711 134.117 334.705 134.117 334.705 134.117L334.682 134.093C334.682 134.093 334.676 134.093 334.676 134.087C334.67 134.081 334.658 134.081 334.646 134.07C334.646 134.07 334.646 134.07 334.64 134.07C334.629 134.064 334.617 134.058 334.605 134.058L333.311 133.723C333.2 133.699 333.076 133.77 333.053 133.876C333.023 133.993 333.088 134.105 333.206 134.134L334.299 134.416L334.029 135.51C333.999 135.628 334.064 135.739 334.182 135.769C334.241 135.781 334.293 135.775 334.34 135.745C334.388 135.716 334.423 135.669 334.44 135.616L334.758 134.311C334.764 134.305 334.764 134.287 334.764 134.281C334.77 134.281 334.77 134.275 334.77 134.275C334.764 134.264 334.77 134.252 334.764 134.24ZM347.888 145.524L346.8 145.242L347.071 144.148C347.1 144.036 347.03 143.919 346.918 143.889C346.806 143.86 346.689 143.93 346.659 144.042L346.336 145.347C346.33 145.359 346.33 145.371 346.33 145.377C346.33 145.383 346.33 145.383 346.33 145.383V145.418C346.336 145.424 346.33 145.424 346.33 145.43C346.336 145.436 346.336 145.441 346.342 145.453C346.342 145.459 346.336 145.465 346.342 145.471C346.342 145.477 346.347 145.483 346.353 145.489C346.353 145.489 346.359 145.5 346.359 145.506C346.365 145.512 346.371 145.512 346.371 145.518C346.377 145.524 346.377 145.53 346.383 145.541C346.383 145.541 346.394 145.541 346.4 145.553C346.4 145.553 346.406 145.559 346.412 145.565C346.418 145.571 346.424 145.571 346.43 145.571C346.436 145.577 346.442 145.583 346.453 145.588C346.453 145.588 346.459 145.588 346.465 145.588C346.471 145.594 346.477 145.6 346.489 145.6L347.788 145.935C347.841 145.947 347.9 145.935 347.947 145.906C347.994 145.882 348.029 145.835 348.047 145.783C348.076 145.665 348.006 145.553 347.888 145.524ZM348.746 143.025C348.735 142.931 348.641 142.854 348.541 142.872C348.441 142.884 348.37 142.978 348.382 143.078L348.676 145.177C348.694 145.277 348.788 145.353 348.888 145.33C348.911 145.33 348.935 145.318 348.952 145.312C349.011 145.271 349.052 145.2 349.04 145.13L348.746 143.025ZM350.657 143.042C350.657 143.037 350.657 143.037 350.657 143.031C350.657 143.025 350.652 143.013 350.652 143.001C350.652 142.995 350.652 142.995 350.652 142.995C350.646 142.984 350.64 142.978 350.64 142.972C350.634 142.966 350.634 142.954 350.634 142.954C350.628 142.948 350.622 142.942 350.622 142.942C350.616 142.937 350.61 142.925 350.61 142.919C350.605 142.913 350.599 142.919 350.599 142.913C350.587 142.907 350.581 142.901 350.575 142.895C350.575 142.89 350.569 142.89 350.569 142.89C350.563 142.884 350.552 142.878 350.54 142.872L350.534 142.866C350.522 142.866 350.511 142.86 350.499 142.86L349.205 142.525C349.093 142.496 348.976 142.566 348.946 142.678C348.917 142.79 348.988 142.907 349.099 142.937L350.193 143.219L349.922 144.313C349.893 144.43 349.958 144.542 350.075 144.571C350.134 144.583 350.187 144.571 350.234 144.542C350.281 144.518 350.322 144.471 350.334 144.412L350.652 143.113C350.658 143.101 350.657 143.089 350.657 143.084C350.663 143.078 350.663 143.078 350.663 143.078C350.657 143.06 350.663 143.048 350.657 143.042ZM343.778 107.945C343.743 107.839 343.619 107.774 343.507 107.809L342.237 108.239C342.226 108.239 342.214 108.245 342.208 108.25C342.202 108.25 342.202 108.256 342.202 108.256C342.19 108.256 342.184 108.268 342.173 108.274C342.173 108.274 342.167 108.274 342.167 108.28C342.161 108.286 342.155 108.292 342.149 108.298C342.149 108.303 342.137 108.303 342.137 108.309C342.132 108.315 342.132 108.321 342.126 108.327C342.126 108.333 342.12 108.339 342.114 108.345C342.114 108.35 342.114 108.356 342.108 108.362C342.108 108.368 342.102 108.374 342.096 108.386C342.096 108.386 342.102 108.392 342.096 108.403C342.096 108.403 342.096 108.415 342.096 108.421C342.09 108.427 342.09 108.433 342.096 108.439C342.096 108.45 342.09 108.456 342.096 108.468C342.096 108.468 342.096 108.474 342.102 108.48C342.096 108.486 342.096 108.497 342.108 108.503L342.52 109.779C342.537 109.832 342.578 109.873 342.631 109.903C342.678 109.926 342.731 109.932 342.79 109.915C342.902 109.873 342.961 109.762 342.925 109.644L342.572 108.574L343.643 108.215C343.754 108.174 343.813 108.056 343.778 107.945ZM345.266 108.739C345.26 108.739 345.254 108.739 345.248 108.744L343.637 110.126C343.56 110.191 343.549 110.308 343.619 110.385C343.631 110.403 343.654 110.414 343.672 110.426C343.737 110.455 343.819 110.455 343.878 110.403L345.489 109.027C345.495 109.021 345.495 109.021 345.495 109.015C345.424 108.921 345.348 108.827 345.266 108.739ZM345.789 109.379L346.106 110.35L345.036 110.708C344.924 110.744 344.866 110.861 344.901 110.973C344.919 111.032 344.96 111.073 345.007 111.096C345.054 111.12 345.119 111.126 345.171 111.108L346.442 110.679C346.453 110.679 346.459 110.673 346.471 110.667C346.477 110.667 346.477 110.667 346.477 110.667C346.489 110.661 346.5 110.655 346.506 110.65C346.506 110.644 346.512 110.644 346.512 110.644C346.518 110.638 346.524 110.626 346.536 110.62C346.536 110.614 346.536 110.62 346.541 110.614C346.541 110.602 346.547 110.597 346.553 110.591C346.553 110.585 346.559 110.579 346.559 110.579C346.565 110.573 346.565 110.561 346.565 110.561C346.571 110.555 346.577 110.544 346.577 110.538V110.532C346.577 110.514 346.583 110.508 346.583 110.497V110.444C346.318 110.073 346.053 109.72 345.789 109.379ZM339.386 127.29C339.344 127.184 339.227 127.119 339.115 127.155L337.845 127.584C337.833 127.59 337.821 127.596 337.816 127.602C337.81 127.596 337.804 127.602 337.804 127.602C337.798 127.607 337.786 127.613 337.78 127.619C337.774 127.625 337.774 127.625 337.774 127.625C337.763 127.631 337.763 127.637 337.757 127.649C337.751 127.649 337.745 127.649 337.745 127.654C337.739 127.66 337.733 127.672 337.733 127.678C337.727 127.678 337.721 127.69 337.721 127.69C337.716 127.702 337.716 127.702 337.716 127.707C337.71 127.713 337.71 127.719 337.704 127.731C337.704 127.731 337.71 127.737 337.704 127.749C337.704 127.754 337.698 127.76 337.698 127.772C337.698 127.772 337.698 127.778 337.704 127.784C337.704 127.796 337.698 127.801 337.698 127.813C337.698 127.813 337.704 127.819 337.704 127.825C337.704 127.837 337.704 127.843 337.71 127.849L338.121 129.124C338.145 129.183 338.186 129.224 338.233 129.248C338.28 129.271 338.339 129.277 338.392 129.26C338.504 129.224 338.562 129.107 338.527 128.989L338.18 127.919L339.25 127.56C339.362 127.525 339.421 127.402 339.386 127.29ZM341.114 128.119C341.05 128.037 340.932 128.031 340.856 128.095L339.244 129.471C339.168 129.536 339.156 129.654 339.227 129.73C339.239 129.748 339.262 129.765 339.28 129.771C339.344 129.807 339.421 129.801 339.48 129.754L341.091 128.372C341.167 128.307 341.179 128.19 341.114 128.119ZM342.184 129.801C342.184 129.801 342.184 129.801 342.184 129.795C342.184 129.789 342.184 129.777 342.179 129.765L341.767 128.489C341.726 128.378 341.602 128.319 341.496 128.354C341.385 128.389 341.32 128.513 341.361 128.625L341.708 129.695L340.644 130.054C340.526 130.095 340.467 130.212 340.509 130.324C340.526 130.377 340.562 130.418 340.614 130.442C340.662 130.465 340.72 130.477 340.773 130.459L342.043 130.03C342.055 130.024 342.067 130.018 342.079 130.018C342.09 130.006 342.102 130.001 342.108 129.995C342.114 129.989 342.114 129.989 342.114 129.989C342.12 129.983 342.126 129.977 342.137 129.965C342.143 129.965 342.143 129.965 342.143 129.959C342.149 129.954 342.155 129.948 342.155 129.936C342.161 129.936 342.167 129.93 342.167 129.924C342.167 129.918 342.173 129.912 342.173 129.907C342.173 129.901 342.179 129.895 342.184 129.889C342.184 129.883 342.184 129.877 342.184 129.877C342.184 129.859 342.184 129.854 342.19 129.848C342.19 129.842 342.184 129.842 342.19 129.836C342.19 129.824 342.184 129.818 342.184 129.801ZM354.574 136.804C354.538 136.692 354.415 136.633 354.303 136.669L353.033 137.098C353.021 137.098 353.015 137.104 353.009 137.11C352.998 137.104 352.998 137.11 352.998 137.11C352.986 137.115 352.98 137.127 352.968 137.133C352.968 137.133 352.962 137.133 352.962 137.139L352.945 137.157C352.945 137.162 352.939 137.162 352.933 137.168C352.927 137.174 352.927 137.18 352.921 137.186C352.921 137.192 352.915 137.198 352.91 137.198C352.91 137.209 352.91 137.215 352.904 137.221C352.904 137.227 352.898 137.233 352.898 137.239C352.892 137.245 352.898 137.251 352.892 137.257C352.898 137.262 352.892 137.274 352.892 137.28C352.892 137.28 352.892 137.292 352.892 137.298V137.327L352.898 137.333C352.898 137.345 352.898 137.351 352.904 137.362L353.315 138.638C353.339 138.691 353.374 138.732 353.427 138.762C353.474 138.785 353.527 138.785 353.586 138.774C353.697 138.732 353.756 138.615 353.721 138.503L353.368 137.433L354.438 137.074C354.55 137.033 354.609 136.915 354.574 136.804ZM356.308 137.627C356.238 137.551 356.12 137.539 356.044 137.603L354.432 138.979C354.356 139.044 354.344 139.168 354.415 139.244C354.427 139.262 354.45 139.273 354.468 139.285C354.532 139.315 354.615 139.309 354.674 139.262L356.285 137.88C356.361 137.821 356.373 137.703 356.308 137.627ZM357.367 139.273L356.955 137.997C356.914 137.892 356.796 137.827 356.684 137.862C356.573 137.903 356.514 138.021 356.549 138.133L356.902 139.203L355.832 139.561C355.72 139.603 355.661 139.72 355.697 139.832C355.72 139.891 355.755 139.926 355.802 139.955C355.85 139.979 355.914 139.985 355.967 139.967L357.237 139.538C357.249 139.538 357.261 139.532 357.267 139.526C357.273 139.526 357.272 139.526 357.272 139.526C357.284 139.514 357.296 139.509 357.302 139.509C357.302 139.503 357.308 139.503 357.308 139.497C357.314 139.497 357.32 139.485 357.331 139.479C357.331 139.473 357.337 139.473 357.337 139.473C357.343 139.462 357.343 139.456 357.349 139.45C357.349 139.444 357.355 139.438 357.361 139.432V139.42C357.367 139.414 357.372 139.403 357.372 139.397C357.378 139.391 357.372 139.391 357.372 139.385C357.372 139.373 357.378 139.367 357.378 139.356C357.378 139.35 357.378 139.35 357.378 139.35V139.309C357.372 139.297 357.372 139.285 357.367 139.273ZM339.174 117.323L339.968 116.524C340.05 116.441 340.05 116.306 339.968 116.224C339.885 116.141 339.75 116.141 339.668 116.224L338.727 117.176C338.715 117.182 338.709 117.194 338.703 117.2C338.698 117.2 338.698 117.206 338.698 117.206L338.68 117.241C338.68 117.241 338.68 117.241 338.68 117.247C338.674 117.253 338.674 117.265 338.674 117.27C338.674 117.276 338.662 117.276 338.662 117.288V117.37C338.662 117.37 338.674 117.376 338.674 117.388C338.674 117.388 338.674 117.4 338.68 117.406C338.68 117.412 338.68 117.417 338.686 117.417C338.692 117.429 338.692 117.435 338.698 117.447C338.698 117.447 338.703 117.447 338.709 117.453C338.709 117.464 338.715 117.47 338.727 117.47L339.668 118.429C339.709 118.47 339.762 118.488 339.821 118.488C339.874 118.488 339.926 118.47 339.968 118.429C340.05 118.346 340.05 118.211 339.968 118.129L339.174 117.323ZM341.885 116.183C341.79 116.141 341.685 116.188 341.643 116.283L340.82 118.235C340.779 118.329 340.826 118.435 340.92 118.476C340.944 118.482 340.967 118.488 340.991 118.488C341.061 118.488 341.132 118.446 341.161 118.376L341.979 116.424C342.02 116.33 341.979 116.218 341.885 116.183ZM343.631 117.276C343.625 117.265 343.625 117.253 343.619 117.247C343.619 117.241 343.619 117.241 343.619 117.241C343.613 117.229 343.607 117.223 343.601 117.206C343.601 117.206 343.602 117.2 343.596 117.2C343.59 117.194 343.584 117.182 343.572 117.176L342.631 116.224C342.549 116.141 342.414 116.141 342.331 116.224C342.249 116.306 342.249 116.441 342.331 116.524L343.125 117.323L342.331 118.129C342.249 118.211 342.249 118.346 342.331 118.429C342.378 118.47 342.426 118.488 342.484 118.488C342.537 118.488 342.596 118.47 342.631 118.429L343.572 117.47C343.584 117.464 343.59 117.459 343.596 117.447C343.602 117.447 343.601 117.447 343.601 117.447C343.607 117.435 343.613 117.423 343.619 117.417C343.619 117.412 343.619 117.412 343.619 117.406C343.625 117.4 343.625 117.388 343.631 117.376C343.631 117.37 343.637 117.37 343.637 117.37V117.341C343.637 117.341 343.637 117.329 343.637 117.323V117.288C343.637 117.276 343.631 117.276 343.631 117.276ZM348.476 130.953L349.27 130.153C349.352 130.071 349.352 129.936 349.27 129.854C349.188 129.771 349.052 129.771 348.97 129.854L348.029 130.806C348.017 130.812 348.012 130.824 348.006 130.83C348 130.83 348 130.836 348 130.836C347.994 130.847 347.994 130.859 347.982 130.871C347.982 130.871 347.982 130.871 347.982 130.877C347.976 130.883 347.976 130.894 347.976 130.9C347.976 130.906 347.97 130.906 347.97 130.918V130.941L347.964 130.953C347.964 130.965 347.97 130.971 347.97 130.977V131C347.97 131 347.976 131.006 347.976 131.018C347.976 131.018 347.976 131.03 347.982 131.035C347.982 131.041 347.982 131.047 347.994 131.047C347.994 131.059 347.994 131.065 348 131.077C348 131.077 348.006 131.077 348.011 131.083C348.017 131.094 348.017 131.1 348.029 131.1L348.97 132.059C349.011 132.1 349.064 132.117 349.123 132.117C349.176 132.117 349.229 132.1 349.27 132.059C349.352 131.976 349.352 131.841 349.27 131.753L348.476 130.953ZM351.187 129.812C351.093 129.771 350.987 129.818 350.946 129.912L350.122 131.865C350.081 131.959 350.128 132.064 350.222 132.106C350.246 132.112 350.269 132.117 350.293 132.117C350.363 132.117 350.434 132.076 350.463 132.006L351.281 130.054C351.322 129.959 351.281 129.848 351.187 129.812ZM352.933 130.906C352.927 130.894 352.927 130.883 352.921 130.877C352.921 130.871 352.921 130.871 352.921 130.871C352.915 130.859 352.91 130.853 352.904 130.836C352.904 130.836 352.904 130.83 352.898 130.83C352.892 130.824 352.886 130.812 352.874 130.806L351.933 129.854C351.851 129.771 351.716 129.771 351.634 129.854C351.551 129.936 351.551 130.071 351.634 130.153L352.427 130.953L351.634 131.753C351.551 131.841 351.551 131.976 351.634 132.059C351.681 132.1 351.728 132.117 351.786 132.117C351.839 132.117 351.898 132.1 351.933 132.059L352.874 131.1C352.886 131.094 352.892 131.088 352.898 131.077C352.904 131.077 352.904 131.077 352.904 131.077C352.91 131.065 352.915 131.053 352.921 131.047C352.921 131.041 352.921 131.041 352.921 131.035C352.927 131.03 352.927 131.018 352.933 131.006C352.933 131 352.939 131 352.939 131V130.971C352.939 130.971 352.939 130.959 352.939 130.953V130.918C352.939 130.906 352.933 130.906 352.933 130.906ZM333.335 144.23L334.129 143.431C334.211 143.342 334.211 143.213 334.129 143.125C334.047 143.048 333.911 143.048 333.829 143.125L332.882 144.083C332.876 144.089 332.871 144.101 332.865 144.107C332.859 144.107 332.859 144.113 332.859 144.113C332.853 144.118 332.847 144.13 332.841 144.142C332.841 144.148 332.835 144.148 332.835 144.148C332.835 144.16 332.835 144.166 332.829 144.177C332.829 144.177 332.823 144.183 332.823 144.189V144.23C332.823 144.242 332.823 144.242 332.823 144.248V144.271C332.823 144.277 332.829 144.277 332.829 144.289C332.835 144.295 332.835 144.301 332.835 144.307C332.835 144.313 332.841 144.318 332.847 144.324C332.853 144.33 332.853 144.342 332.859 144.348C332.859 144.348 332.865 144.354 332.87 144.354C332.87 144.365 332.876 144.371 332.882 144.377L333.829 145.33C333.87 145.371 333.923 145.389 333.982 145.389C334.035 145.389 334.082 145.371 334.129 145.33C334.211 145.247 334.211 145.118 334.129 145.03L333.335 144.23ZM336.046 143.089C335.952 143.048 335.84 143.089 335.805 143.184L334.981 145.136C334.94 145.23 334.987 145.342 335.081 145.377C335.099 145.389 335.128 145.389 335.146 145.389C335.217 145.389 335.287 145.353 335.322 145.283L336.14 143.325C336.181 143.236 336.134 143.125 336.046 143.089ZM337.792 144.213V144.189C337.792 144.183 337.792 144.183 337.792 144.177C337.786 144.166 337.786 144.16 337.78 144.148C337.78 144.148 337.78 144.148 337.78 144.142C337.774 144.13 337.769 144.124 337.763 144.113C337.763 144.113 337.763 144.107 337.757 144.107C337.751 144.101 337.745 144.089 337.733 144.083L336.792 143.125C336.71 143.048 336.569 143.048 336.493 143.125C336.41 143.213 336.41 143.342 336.493 143.431L337.286 144.23L336.493 145.03C336.41 145.118 336.41 145.247 336.493 145.33C336.534 145.371 336.587 145.389 336.64 145.389C336.698 145.389 336.751 145.371 336.792 145.33L337.733 144.377C337.745 144.371 337.751 144.36 337.757 144.354C337.763 144.354 337.763 144.348 337.763 144.348C337.769 144.336 337.774 144.324 337.78 144.318C337.78 144.313 337.78 144.313 337.78 144.307C337.786 144.301 337.786 144.295 337.792 144.277C337.792 144.277 337.792 144.277 337.792 144.271V144.248C337.792 144.242 337.798 144.23 337.798 144.23C337.798 144.224 337.792 144.218 337.792 144.213ZM357.655 146.694C357.578 146.617 357.437 146.617 357.355 146.694L356.414 147.652C356.402 147.658 356.396 147.664 356.39 147.67C356.385 147.67 356.385 147.682 356.385 147.682C356.379 147.688 356.379 147.699 356.373 147.711C356.373 147.711 356.367 147.711 356.367 147.717C356.361 147.729 356.361 147.735 356.361 147.741C356.361 147.746 356.355 147.752 356.355 147.758V147.782C356.355 147.782 356.349 147.793 356.349 147.799C356.349 147.805 356.355 147.811 356.355 147.817V147.841C356.355 147.846 356.361 147.846 356.361 147.858C356.361 147.858 356.361 147.87 356.367 147.876C356.367 147.882 356.373 147.888 356.379 147.893C356.379 147.899 356.379 147.905 356.385 147.917C356.385 147.917 356.39 147.923 356.396 147.923C356.402 147.935 356.402 147.94 356.414 147.946L356.555 148.087C356.755 148.087 356.949 148.082 357.137 148.076L356.861 147.799L357.655 146.994C357.737 146.911 357.737 146.776 357.655 146.694ZM359.577 146.653C359.478 146.617 359.372 146.659 359.33 146.753L358.79 148.035C358.931 148.035 359.06 148.029 359.189 148.023L359.666 146.894C359.707 146.8 359.666 146.694 359.577 146.653ZM361.318 147.746C361.312 147.735 361.312 147.729 361.312 147.717C361.312 147.711 361.306 147.711 361.306 147.711C361.3 147.699 361.294 147.694 361.289 147.682V147.67C361.277 147.664 361.271 147.658 361.265 147.652L361.236 147.623L360.324 146.694C360.236 146.617 360.101 146.617 360.018 146.694C359.936 146.776 359.936 146.911 360.018 146.994L360.812 147.799L360.636 147.976C361.036 147.964 361.259 147.952 361.265 147.946C361.271 147.935 361.277 147.929 361.289 147.923V147.917C361.294 147.905 361.3 147.893 361.306 147.888C361.306 147.882 361.312 147.882 361.312 147.876C361.312 147.87 361.312 147.858 361.318 147.846C361.318 147.846 361.324 147.846 361.324 147.841V147.799C361.324 147.793 361.324 147.782 361.324 147.782V147.758C361.324 147.752 361.318 147.752 361.318 147.746ZM333.611 125.238C333.588 125.12 333.476 125.05 333.359 125.073L332.259 125.314L332.006 124.215C331.983 124.103 331.871 124.027 331.753 124.056C331.642 124.079 331.571 124.197 331.589 124.309L331.889 125.614C331.889 125.626 331.894 125.638 331.9 125.644C331.894 125.649 331.9 125.655 331.9 125.655C331.906 125.661 331.912 125.673 331.918 125.685C331.924 125.685 331.924 125.685 331.924 125.691C331.93 125.696 331.936 125.702 331.941 125.708C331.941 125.714 331.941 125.72 331.947 125.72C331.953 125.726 331.965 125.732 331.971 125.738C331.971 125.738 331.977 125.743 331.983 125.749C331.989 125.755 331.994 125.749 332 125.755C332.006 125.761 332.012 125.761 332.018 125.767C332.024 125.767 332.03 125.767 332.036 125.773C332.041 125.767 332.053 125.773 332.059 125.779C332.059 125.779 332.071 125.779 332.077 125.773C332.083 125.779 332.088 125.779 332.1 125.779H332.112C332.124 125.779 332.13 125.779 332.141 125.773L333.453 125.491C333.506 125.473 333.553 125.444 333.582 125.391C333.611 125.35 333.623 125.297 333.611 125.238ZM334.211 124.203L333 122.462C332.947 122.38 332.829 122.357 332.747 122.415C332.665 122.474 332.641 122.586 332.7 122.674L333.905 124.415C333.964 124.497 334.082 124.52 334.164 124.456C334.182 124.444 334.199 124.426 334.211 124.409C334.246 124.35 334.252 124.268 334.211 124.203ZM335.04 122.986L334.74 121.68C334.74 121.669 334.74 121.657 334.734 121.651V121.645C334.729 121.633 334.723 121.622 334.717 121.616C334.711 121.61 334.717 121.61 334.711 121.604C334.705 121.598 334.699 121.592 334.693 121.58C334.687 121.58 334.687 121.58 334.687 121.575C334.682 121.569 334.676 121.569 334.664 121.563C334.664 121.557 334.658 121.551 334.652 121.551C334.652 121.545 334.64 121.545 334.634 121.545L334.617 121.528C334.611 121.528 334.611 121.528 334.605 121.528C334.593 121.528 334.587 121.522 334.576 121.522C334.57 121.522 334.57 121.522 334.57 121.522C334.558 121.516 334.546 121.516 334.535 121.516H334.529C334.517 121.516 334.505 121.516 334.493 121.522L333.182 121.804C333.07 121.833 333 121.951 333.023 122.057C333.047 122.174 333.159 122.245 333.276 122.221L334.376 121.98L334.629 123.08C334.658 123.197 334.764 123.268 334.881 123.244C334.94 123.227 334.981 123.197 335.011 123.145C335.04 123.103 335.058 123.045 335.04 122.986ZM343.413 139.744L342.314 139.985L342.067 138.885C342.037 138.768 341.926 138.697 341.808 138.721C341.696 138.75 341.626 138.862 341.649 138.979L341.949 140.285C341.949 140.296 341.955 140.308 341.955 140.314C341.955 140.32 341.961 140.32 341.961 140.32C341.961 140.332 341.973 140.344 341.979 140.355C341.979 140.355 341.979 140.355 341.979 140.361C341.985 140.367 341.99 140.373 341.996 140.379C342.002 140.379 342.002 140.391 342.008 140.391C342.014 140.396 342.02 140.402 342.026 140.402C342.032 140.408 342.037 140.414 342.037 140.414C342.049 140.42 342.049 140.42 342.055 140.426C342.061 140.426 342.067 140.432 342.079 140.438C342.079 140.438 342.084 140.438 342.096 140.443C342.102 140.438 342.108 140.443 342.114 140.443C342.12 140.449 342.126 140.449 342.131 140.443C342.143 140.449 342.149 140.449 342.161 140.449C342.161 140.449 342.167 140.449 342.173 140.443C342.179 140.449 342.19 140.449 342.196 140.443L343.507 140.161C343.566 140.144 343.613 140.108 343.643 140.061C343.672 140.02 343.678 139.967 343.672 139.908C343.643 139.791 343.531 139.72 343.413 139.744ZM344.266 138.874L343.055 137.133C343.002 137.051 342.884 137.027 342.808 137.086C342.72 137.145 342.702 137.257 342.755 137.339L343.966 139.079C344.019 139.168 344.137 139.191 344.219 139.126C344.242 139.115 344.26 139.097 344.266 139.079C344.307 139.021 344.307 138.938 344.266 138.874ZM345.101 137.656L344.801 136.351C344.801 136.339 344.795 136.327 344.795 136.322C344.795 136.316 344.789 136.316 344.789 136.316C344.783 136.304 344.777 136.292 344.777 136.286C344.772 136.28 344.772 136.28 344.772 136.275C344.766 136.269 344.754 136.263 344.748 136.251C344.748 136.251 344.748 136.245 344.742 136.245L344.725 136.228C344.719 136.228 344.713 136.222 344.713 136.216C344.707 136.216 344.695 136.216 344.695 136.21C344.689 136.21 344.678 136.204 344.672 136.198C344.666 136.198 344.666 136.198 344.666 136.198C344.648 136.198 344.642 136.192 344.63 136.192C344.63 136.192 344.625 136.192 344.625 136.186H344.589C344.589 136.186 344.589 136.186 344.583 136.186C344.578 136.186 344.56 136.186 344.554 136.192L343.243 136.474C343.131 136.504 343.055 136.616 343.078 136.727C343.108 136.845 343.219 136.915 343.331 136.892L344.436 136.651L344.683 137.75C344.713 137.868 344.825 137.939 344.936 137.909C344.995 137.897 345.042 137.868 345.071 137.815C345.101 137.774 345.113 137.715 345.101 137.656ZM327.467 147.558L326.938 146.794C326.926 147.011 326.914 147.217 326.908 147.394L327.167 147.764C327.22 147.846 327.337 147.87 327.42 147.811C327.443 147.799 327.461 147.776 327.467 147.758C327.508 147.699 327.508 147.617 327.467 147.558ZM328.302 146.341L328.002 145.036C328.002 145.024 327.996 145.012 327.996 145L327.99 144.995C327.984 144.983 327.978 144.971 327.978 144.965C327.972 144.965 327.972 144.959 327.972 144.959C327.967 144.953 327.955 144.948 327.949 144.936C327.949 144.93 327.949 144.93 327.943 144.924C327.937 144.924 327.931 144.918 327.925 144.912C327.92 144.912 327.914 144.901 327.908 144.901L327.896 144.895C327.89 144.889 327.878 144.883 327.872 144.883C327.867 144.877 327.867 144.883 327.867 144.877C327.849 144.877 327.843 144.877 327.831 144.871C327.831 144.871 327.831 144.871 327.825 144.871H327.79L327.784 144.865C327.773 144.871 327.761 144.871 327.755 144.877L327.061 145.024C327.049 145.177 327.038 145.324 327.026 145.465L327.637 145.336L327.884 146.429C327.914 146.547 328.025 146.617 328.137 146.594C328.196 146.576 328.243 146.547 328.272 146.5C328.302 146.453 328.314 146.394 328.302 146.341Z" fill="#2B2B2B"/>
<path d="M336.772 151.621C335.399 152.753 332.894 149.131 332.894 149.131C332.894 149.131 333.057 150.35 332.353 151.298C331.546 152.384 329.49 151.595 329.49 151.595C329.49 151.595 329.399 152.863 328.555 153.789C327.678 154.751 325.49 154.251 325.49 154.251C325.49 154.251 324.757 155.385 323.452 155.663C321.222 156.137 318.802 153.631 317.248 152.054C315.694 150.477 312.763 144.549 312.09 143.476L322.125 133.415C322.125 133.415 331.105 138.503 332.669 140.616C333.988 142.397 338.871 149.89 336.772 151.621Z" fill="#F7A9A0"/>
<path d="M332.91 149.071C331.964 146.842 330.485 144.844 329.038 142.931C329.005 142.889 328.939 142.94 328.972 142.982C330.434 144.867 331.427 147.189 332.81 149.129C332.849 149.182 332.936 149.131 332.91 149.071Z" fill="#2B2B2B"/>
<path d="M329.59 151.431C329.361 150.933 328.968 150.513 328.618 150.097C328.243 149.648 327.859 149.207 327.468 148.771C326.686 147.899 325.885 147.044 325.059 146.214C325.022 146.177 324.957 146.224 324.993 146.265C325.771 147.136 326.535 148.018 327.275 148.921C327.646 149.373 328.013 149.828 328.376 150.285C328.714 150.711 329.036 151.188 329.463 151.53C329.526 151.58 329.625 151.507 329.59 151.431Z" fill="#2B2B2B"/>
<path d="M325.458 154.213C325.276 153.773 324.841 153.402 324.52 153.058C324.155 152.668 323.793 152.276 323.432 151.882C322.712 151.094 321.992 150.306 321.3 149.493C321.266 149.452 321.2 149.503 321.234 149.544C321.934 150.373 322.622 151.212 323.328 152.035C323.675 152.439 324.024 152.841 324.375 153.241C324.674 153.582 325.008 154.041 325.419 154.251C325.443 154.263 325.467 154.236 325.458 154.213Z" fill="#2B2B2B"/>
<path d="M346.194 108.286C362.553 116.519 377.72 129.303 377.381 134.275C377.022 139.533 368.076 146.959 359.488 149.691C357.728 150.251 349.776 138.045 351.511 137.105C352.864 136.373 359.066 133.337 359.686 132.3C360.117 131.578 347.401 119.134 342.758 112.278C337.899 105.102 341.814 106.082 346.194 108.286Z" fill="#F7A9A0"/>
<path d="M355.153 136.035C355.153 136.035 349.754 137.579 346.272 138.754C344.328 139.41 341.097 140.831 339.89 141.966C338.084 143.664 331.616 151.916 333.583 153.527C335.364 154.986 337.092 151.858 337.092 151.858C337.092 151.858 334.883 155.099 337.093 156.003C339.324 156.915 341.178 152.622 341.178 152.622C341.178 152.622 338.593 155.9 341.045 156.64C343.174 157.282 345.846 152.57 345.846 152.57C345.846 152.57 342.755 155.714 344.871 156.585C347.21 157.548 352.104 150.987 352.104 150.987C356.905 150.664 359.745 149.822 362.893 148.294C363.471 148.013 355.153 136.035 355.153 136.035Z" fill="#F7A9A0"/>
<path d="M340.516 153.691C340.676 153.36 340.845 153.033 341.005 152.702C341.321 152.054 341.634 151.424 342.024 150.816C342.401 150.228 342.803 149.66 343.223 149.103C343.667 148.514 344.173 147.967 344.601 147.368C344.636 147.32 344.703 147.371 344.666 147.418C344.219 147.983 343.86 148.638 343.481 149.251C343.106 149.858 342.739 150.47 342.372 151.083C342.014 151.682 341.617 152.251 341.242 152.839C341.055 153.132 340.881 153.433 340.707 153.734C340.544 154.015 340.403 154.332 340.193 154.582C340.173 154.607 340.134 154.581 340.141 154.552C340.214 154.252 340.381 153.968 340.516 153.691Z" fill="#2B2B2B"/>
<path d="M336.645 152.542C336.809 151.943 338.093 149.581 338.457 148.997C339.161 147.868 339.969 146.796 340.882 145.83C340.914 145.796 340.972 145.839 340.948 145.879C340.249 147.014 339.532 148.141 338.818 149.266C338.469 149.817 336.958 152.364 336.766 152.611C336.72 152.671 336.627 152.607 336.645 152.542Z" fill="#2B2B2B"/>
<path d="M344.127 154.866C344.312 154.302 345.534 152.098 345.892 151.563C346.228 151.061 347.863 149.157 348.423 148.688C348.459 148.658 348.517 148.7 348.489 148.737C347.721 149.756 346.939 150.758 346.221 151.813C345.871 152.327 344.594 154.455 344.218 154.917C344.183 154.959 344.111 154.915 344.127 154.866Z" fill="#2B2B2B"/>
<path d="M364.621 118.749L354.93 127.839C354.93 127.839 344.519 116.702 341.33 111.112C338.142 105.521 340.604 105.064 347.141 108.353C353.677 111.64 364.621 118.749 364.621 118.749Z" fill="#009CD9"/>
<path opacity="0.1" d="M350.446 121.557C350.446 121.552 350.446 121.54 350.44 121.528C350.44 121.522 350.446 121.522 350.44 121.516C350.434 121.51 350.434 121.505 350.428 121.493L350.422 121.481C350.422 121.475 350.411 121.469 350.411 121.469C350.405 121.463 350.405 121.452 350.399 121.446C350.393 121.44 350.393 121.44 350.393 121.44C350.375 121.434 350.375 121.428 350.363 121.416C350.363 121.416 350.364 121.416 350.358 121.416C350.352 121.41 350.34 121.405 350.328 121.399C350.328 121.399 350.328 121.393 350.322 121.393C350.316 121.393 350.305 121.387 350.293 121.387L348.993 121.046C348.952 121.04 348.917 121.04 348.882 121.052C349.035 121.228 349.182 121.405 349.334 121.575L349.981 121.74L349.87 122.192C349.981 122.328 350.099 122.457 350.211 122.586L350.44 121.64C350.446 121.628 350.446 121.616 350.452 121.604V121.569C350.446 121.563 350.452 121.557 350.446 121.557ZM343.778 107.945C343.743 107.839 343.619 107.775 343.507 107.81L342.237 108.239C342.226 108.239 342.214 108.245 342.208 108.251C342.202 108.251 342.202 108.257 342.202 108.257C342.19 108.257 342.184 108.269 342.173 108.274C342.173 108.274 342.167 108.274 342.167 108.28C342.161 108.286 342.155 108.292 342.149 108.298C342.149 108.304 342.137 108.304 342.137 108.31C342.131 108.316 342.132 108.322 342.126 108.327C342.126 108.333 342.12 108.339 342.114 108.345C342.114 108.351 342.114 108.357 342.108 108.363C342.108 108.369 342.102 108.374 342.096 108.386C342.096 108.386 342.102 108.392 342.096 108.404C342.096 108.404 342.096 108.416 342.096 108.421C342.09 108.427 342.09 108.433 342.096 108.439C342.096 108.451 342.09 108.457 342.096 108.469C342.096 108.469 342.096 108.474 342.102 108.48C342.096 108.486 342.096 108.498 342.108 108.504L342.52 109.78C342.537 109.833 342.578 109.874 342.631 109.903C342.678 109.927 342.731 109.933 342.79 109.915C342.902 109.874 342.961 109.762 342.925 109.645L342.572 108.574L343.643 108.216C343.754 108.175 343.813 108.057 343.778 107.945ZM345.512 108.768C345.442 108.692 345.324 108.68 345.248 108.745L343.637 110.127C343.56 110.191 343.549 110.309 343.619 110.385C343.631 110.403 343.654 110.415 343.672 110.427C343.737 110.456 343.819 110.456 343.878 110.403L345.489 109.027C345.565 108.962 345.571 108.845 345.512 108.768ZM346.571 110.415L346.159 109.145C346.118 109.033 345.995 108.968 345.889 109.009C345.777 109.045 345.718 109.162 345.754 109.274L346.106 110.35L345.036 110.709C344.924 110.744 344.866 110.862 344.901 110.973C344.919 111.032 344.96 111.073 345.007 111.097C345.054 111.12 345.119 111.126 345.171 111.109L346.442 110.679C346.453 110.679 346.459 110.674 346.471 110.668C346.477 110.668 346.477 110.668 346.477 110.668C346.489 110.662 346.5 110.656 346.506 110.65C346.506 110.644 346.512 110.644 346.512 110.644C346.518 110.638 346.524 110.627 346.536 110.621C346.536 110.615 346.536 110.621 346.541 110.615C346.541 110.603 346.547 110.597 346.553 110.591C346.553 110.585 346.559 110.579 346.559 110.579C346.565 110.574 346.565 110.562 346.565 110.562C346.571 110.556 346.577 110.544 346.577 110.538V110.532C346.577 110.515 346.583 110.509 346.583 110.497V110.45C346.577 110.438 346.577 110.427 346.571 110.415ZM358.601 119.882C358.566 119.77 358.443 119.711 358.331 119.746L357.061 120.176C357.049 120.176 357.037 120.181 357.031 120.187H357.026C357.014 120.193 357.008 120.205 356.996 120.211H356.99C356.984 120.223 356.979 120.229 356.973 120.234C356.973 120.234 356.961 120.234 356.961 120.24C356.955 120.246 356.955 120.258 356.949 120.264C356.949 120.27 356.943 120.276 356.937 120.276C356.937 120.287 356.937 120.293 356.931 120.299C356.931 120.305 356.926 120.311 356.92 120.317C356.92 120.323 356.926 120.328 356.92 120.334V120.358C356.914 120.358 356.914 120.37 356.92 120.376C356.92 120.381 356.914 120.387 356.92 120.399C356.92 120.399 356.92 120.405 356.926 120.411C356.92 120.423 356.92 120.428 356.931 120.44L357.343 121.71C357.361 121.769 357.402 121.81 357.455 121.834C357.502 121.857 357.555 121.863 357.614 121.846C357.725 121.81 357.784 121.693 357.749 121.581L357.396 120.505L358.466 120.146C358.578 120.111 358.637 119.993 358.601 119.882ZM360.336 120.705C360.265 120.628 360.148 120.617 360.071 120.681L358.46 122.057C358.384 122.122 358.372 122.24 358.443 122.316C358.454 122.339 358.478 122.351 358.496 122.363C358.56 122.392 358.643 122.387 358.701 122.339L360.312 120.958C360.389 120.899 360.395 120.781 360.336 120.705ZM360.983 121.075C360.942 120.969 360.818 120.905 360.712 120.94C360.601 120.975 360.542 121.099 360.577 121.211L360.912 122.228L361.253 121.91L360.983 121.075ZM359.724 122.91C359.742 122.963 359.783 123.004 359.83 123.033C359.877 123.057 359.936 123.063 359.995 123.045L360.065 123.022L360.812 122.322L359.86 122.639C359.748 122.681 359.689 122.798 359.724 122.91ZM353.18 116.418C353.157 116.301 353.045 116.236 352.927 116.26L351.828 116.495L351.581 115.395C351.551 115.283 351.44 115.213 351.322 115.236C351.21 115.26 351.14 115.378 351.163 115.489L351.463 116.795C351.463 116.806 351.469 116.818 351.469 116.824C351.469 116.83 351.475 116.836 351.475 116.836C351.475 116.842 351.487 116.853 351.492 116.865V116.871C351.498 116.883 351.504 116.883 351.51 116.895C351.516 116.895 351.516 116.9 351.522 116.906C351.528 116.906 351.534 116.912 351.539 116.918C351.545 116.918 351.551 116.93 351.551 116.93C351.563 116.936 351.563 116.936 351.569 116.936C351.575 116.942 351.581 116.942 351.592 116.948C351.592 116.953 351.598 116.947 351.61 116.953C351.616 116.953 351.622 116.959 351.628 116.959H351.645C351.657 116.959 351.663 116.965 351.675 116.965C351.675 116.965 351.681 116.959 351.686 116.959C351.692 116.959 351.704 116.959 351.71 116.953L353.021 116.671C353.08 116.659 353.121 116.624 353.156 116.577C353.186 116.53 353.192 116.477 353.18 116.418ZM353.78 115.383L352.568 113.643C352.516 113.561 352.398 113.537 352.322 113.596C352.233 113.655 352.216 113.772 352.269 113.855L353.48 115.595C353.533 115.677 353.65 115.701 353.733 115.636C353.756 115.625 353.774 115.607 353.78 115.589C353.821 115.53 353.821 115.448 353.78 115.383ZM354.615 114.172L354.315 112.861C354.315 112.849 354.309 112.843 354.309 112.832L354.303 112.826C354.297 112.814 354.291 112.802 354.291 112.796C354.285 112.79 354.285 112.79 354.285 112.79C354.28 112.784 354.268 112.779 354.262 112.761C354.262 112.761 354.262 112.761 354.256 112.755C354.25 112.749 354.244 112.749 354.238 112.743C354.233 112.743 354.227 112.732 354.221 112.732L354.209 112.726C354.203 112.72 354.191 112.714 354.185 112.714C354.185 112.708 354.18 112.708 354.18 112.708C354.162 112.708 354.156 112.702 354.144 112.702C354.144 112.702 354.144 112.702 354.138 112.702C354.127 112.696 354.121 112.702 354.103 112.696H354.097C354.086 112.702 354.074 112.702 354.068 112.708L352.757 112.984C352.645 113.014 352.569 113.131 352.592 113.243C352.621 113.355 352.733 113.431 352.845 113.402L353.95 113.161L354.197 114.26C354.227 114.378 354.338 114.449 354.45 114.425C354.509 114.407 354.556 114.378 354.585 114.331C354.615 114.284 354.627 114.225 354.615 114.172Z" fill="#2B2B2B"/>
<path d="M361.845 117.625C358.26 121.709 354.539 124.727 353.82 125.435C353.786 125.469 353.736 125.41 353.773 125.378C354.513 124.721 358.395 120.624 361.792 117.563C361.832 117.527 361.879 117.586 361.845 117.625Z" fill="#2B2B2B"/>
<path d="M355.546 127.225C355.474 127.25 355.033 127.614 354.942 127.692C353.343 125.807 353.658 126.251 352.042 124.381C351.249 123.464 350.455 122.549 349.664 121.631C348.842 120.676 348.067 119.662 347.193 118.754C347.168 118.727 347.131 118.76 347.15 118.79C347.759 119.736 348.485 120.618 349.184 121.502C349.045 121.373 348.911 121.238 348.764 121.116C348.435 120.843 348.112 120.568 347.806 120.269C347.759 120.224 347.68 120.289 347.727 120.336C348.02 120.621 348.289 120.922 348.558 121.228C348.828 121.535 349.113 121.821 349.404 122.109C349.684 122.386 349.981 122.641 350.28 122.898C350.316 122.929 350.353 122.961 350.389 122.992C350.833 123.544 351.271 124.101 351.729 124.644C353.331 126.541 354.856 127.969 354.891 127.949C355.031 127.874 355.541 127.338 355.591 127.279C355.617 127.248 355.576 127.215 355.546 127.225Z" fill="#2B2B2B"/>
<path d="M337.252 113.352C338.691 113.167 341.196 109.982 341.963 107.53C342.015 107.361 341.463 105.811 340.881 103.896C340.533 102.732 340.172 101.428 339.929 100.214L332.688 103.588C332.688 103.588 333.945 105.982 334.356 108.101C334.389 108.278 334.404 108.446 334.404 108.609C334.406 108.633 334.405 108.662 334.409 108.694C334.444 109.671 334.998 113.641 337.252 113.352Z" fill="#F7A9A0"/>
<path d="M334.405 108.611C334.408 108.633 334.407 108.662 334.407 108.697C334.653 108.68 334.918 108.643 335.202 108.58C339.593 107.598 339.603 101.95 339.522 100.41L332.686 103.588C332.686 103.588 333.945 105.983 334.357 108.099C334.386 108.278 334.402 108.449 334.405 108.611Z" fill="#2B2B2B"/>
<path d="M340.57 92.0429C341.484 94.7718 340.247 102.76 338.339 104.586C335.572 107.233 330.933 107.605 328.657 104.254C326.451 101.006 328.246 90.6229 330.389 88.953C333.544 86.4934 339.218 88.0128 340.57 92.0429Z" fill="#F7A9A0"/>
<path d="M333.418 97.0462C333.426 97.0268 333.455 97.0797 333.449 97.1015C333.328 97.6324 333.279 98.261 333.728 98.5327C333.742 98.5409 333.735 98.5673 333.718 98.5615C333.144 98.3639 333.218 97.5301 333.418 97.0462Z" fill="#2B2B2B"/>
<path d="M334.004 96.5807C334.877 96.683 334.608 98.4199 333.8 98.3253C333.005 98.2324 333.273 96.4954 334.004 96.5807Z" fill="#2B2B2B"/>
<path d="M330.408 96.4806C330.407 96.4594 330.362 96.4994 330.359 96.5218C330.294 97.0627 330.127 97.6707 329.613 97.7742C329.597 97.7771 329.594 97.8048 329.613 97.8048C330.219 97.813 330.432 97.0033 330.408 96.4806Z" fill="#2B2B2B"/>
<path d="M330.015 95.8446C329.16 95.6453 328.824 97.3705 329.617 97.5551C330.396 97.7374 330.732 96.0116 330.015 95.8446Z" fill="#2B2B2B"/>
<path d="M334.811 95.8926C334.583 95.7967 334.39 95.6697 334.175 95.5515C333.932 95.4181 333.725 95.3369 333.593 95.0805C333.521 94.943 333.593 94.7266 333.72 94.6448C334.017 94.4543 334.354 94.5443 334.653 94.6925C334.977 94.8542 335.185 95.0611 335.334 95.3904C335.479 95.7097 335.111 96.019 334.811 95.8926Z" fill="#2B2B2B"/>
<path d="M329.452 94.1081C329.699 94.1058 329.926 94.0629 330.17 94.0358C330.445 94.0052 330.668 94.0088 330.888 93.8224C331.007 93.7224 331.023 93.4955 330.936 93.3708C330.735 93.0815 330.389 93.0356 330.056 93.0597C329.695 93.085 329.424 93.1973 329.16 93.4449C328.904 93.6848 329.127 94.1111 329.452 94.1081Z" fill="#2B2B2B"/>
<path d="M333.139 102.153C332.991 102.259 332.835 102.412 332.638 102.398C332.448 102.385 332.241 102.267 332.08 102.174C332.064 102.164 332.044 102.18 332.053 102.198C332.16 102.426 332.434 102.601 332.691 102.595C332.941 102.591 333.094 102.398 333.188 102.185C333.201 102.155 333.161 102.137 333.139 102.153Z" fill="#2B2B2B"/>
<path d="M332.823 100.454C332.45 100.875 331.967 101.062 331.474 101.081C331.254 101.091 331.028 101.063 330.81 101.009C330.767 101.001 330.724 100.99 330.687 100.975C330.649 100.964 330.613 100.954 330.571 100.938C330.51 100.92 330.484 100.862 330.482 100.801L330.483 100.797C330.486 100.778 330.489 100.762 330.496 100.743C330.496 100.743 330.496 100.743 330.497 100.739L330.505 100.692C330.557 100.276 330.695 99.6518 330.695 99.6518C330.532 99.7041 329.707 99.9323 329.752 99.7177C330.136 97.9425 330.562 95.968 331.319 94.2828C331.341 94.2257 331.429 94.2534 331.415 94.3116C331.114 96.0327 330.512 97.6885 330.182 99.4125C330.443 99.3572 330.871 99.2455 331.087 99.2837C331.144 99.3096 330.8 100.484 330.791 100.674C330.791 100.674 330.79 100.681 330.792 100.694C331.474 100.89 332.031 100.761 332.779 100.398C332.825 100.374 332.862 100.416 332.823 100.454Z" fill="#2B2B2B"/>
<path d="M331.086 100.836C331.086 100.836 331.377 101.389 331.852 101.646C332.027 101.741 332.223 101.798 332.441 101.774C332.888 101.728 332.959 101.335 332.933 100.985C332.912 100.698 332.82 100.439 332.82 100.439C332.82 100.439 332.102 100.93 331.086 100.836Z" fill="#2B2B2B"/>
<path d="M331.852 101.645C332.027 101.741 332.222 101.798 332.44 101.774C332.887 101.728 332.959 101.335 332.932 100.985C332.464 100.961 331.96 101.204 331.852 101.645Z" fill="#FF9BBC"/>
<path d="M340.257 99.2777C340.257 99.2777 343.149 94.5084 342.881 91.7507C342.76 90.5041 341.062 89.6633 341.062 89.6633C341.062 89.6633 341.571 88.1474 340.174 86.8297C338.701 85.4409 335.131 85.7496 335.131 85.7496C335.131 85.7496 332.819 82.4039 329.544 83.728C326.269 85.0522 328.4 88.7648 328.4 88.7648C328.4 88.7648 327.197 90.4689 330.131 91.8036C332.988 93.1031 338.83 91.8307 338.83 91.8307C338.83 91.8307 338.356 94.8236 338.916 97.8806C339.123 99.0131 340.257 99.2777 340.257 99.2777Z" fill="#2B2B2B"/>
<path d="M334.566 85.7933C335.289 85.4799 336.083 85.3723 336.87 85.374C337.567 85.3758 338.286 85.4628 338.944 85.6998C340.121 86.1237 341.167 86.9922 341.365 88.2858C341.464 88.9361 341.297 89.5718 340.906 90.098C340.89 90.1192 340.859 90.0904 340.876 90.0692C341.634 89.1325 341.236 87.6743 340.455 86.8893C339.57 86.0008 338.217 85.6633 337.001 85.611C336.186 85.5763 335.383 85.7051 334.587 85.8638C334.54 85.8727 334.522 85.8121 334.566 85.7933Z" fill="#2B2B2B"/>
<path d="M327.201 85.3069C327.474 84.3908 328.26 83.8022 329.143 83.5211C330.149 83.2006 331.258 83.2618 332.242 83.6311C333.245 84.0074 334.105 84.683 334.776 85.5121C334.79 85.5303 334.759 85.5568 334.743 85.5385C333.513 84.0821 331.586 83.2512 329.683 83.6522C328.832 83.8316 327.98 84.2702 327.585 85.0828C327.222 85.8302 327.3 86.7804 327.657 87.5142C328.098 88.4209 328.916 89.1071 329.76 89.6257C329.78 89.6375 329.763 89.6681 329.743 89.6569C328.925 89.2153 328.158 88.6561 327.646 87.8653C327.163 87.1185 326.942 86.1742 327.201 85.3069Z" fill="#2B2B2B"/>
<path d="M333.362 100.211C332.126 99.7953 331.458 98.4511 331.873 97.2146C332.289 95.978 333.633 95.31 334.87 95.7263C336.106 96.1421 336.774 97.4862 336.359 98.7228C336.007 99.7688 334.991 100.407 333.938 100.328C333.747 100.313 333.553 100.275 333.362 100.211ZM332.173 97.3151C331.813 98.3865 332.392 99.5507 333.463 99.9111C334.533 100.272 335.699 99.6924 336.059 98.6217C336.419 97.5503 335.841 96.3855 334.769 96.0256C334.604 95.9704 334.436 95.9368 334.27 95.9245C333.357 95.8557 332.478 96.409 332.173 97.3151Z" fill="#455A64"/>
<path d="M328.46 99.2433C327.507 99.058 326.934 97.865 327.183 96.5849C327.302 95.9734 327.588 95.4307 327.989 95.0567C328.404 94.6698 328.891 94.5057 329.363 94.5986C329.835 94.6904 330.227 95.0238 330.466 95.5383C330.698 96.0351 330.76 96.6461 330.641 97.2576C330.405 98.4694 329.517 99.3326 328.614 99.2644C328.563 99.2603 328.511 99.2533 328.46 99.2433ZM328.204 95.2878C327.852 95.6171 327.599 96.0992 327.493 96.6455C327.278 97.755 327.739 98.7811 328.521 98.9328C329.306 99.0863 330.115 98.306 330.331 97.1964C330.436 96.6502 330.382 96.1086 330.18 95.6711C329.983 95.2513 329.672 94.9802 329.303 94.9085C329.263 94.9009 329.223 94.8956 329.183 94.8926C328.85 94.8679 328.507 95.0055 328.204 95.2878Z" fill="#455A64"/>
<path d="M331.899 97.4979L332.145 97.2986C331.85 96.9346 331.113 96.3784 330.428 96.8753L330.614 97.131C331.226 96.6853 331.872 97.465 331.899 97.4979Z" fill="#455A64"/>
<path d="M342.131 100.106L342.435 100.018C342.393 99.8759 342.009 98.6275 341.338 98.38C340.71 98.1507 336.472 97.732 336.292 97.7144L336.262 98.0289C337.477 98.1477 340.745 98.4982 341.229 98.6769C341.672 98.8404 342.03 99.7641 342.131 100.106Z" fill="#455A64"/>
<path d="M339.048 98.5679C339.048 98.5679 340.828 95.9837 342 96.6163C343.171 97.249 341.846 100.986 340.48 101.506C339.114 102.026 338.607 100.771 338.607 100.771L339.048 98.5679Z" fill="#F7A9A0"/>
<path d="M341.594 97.6783C341.615 97.676 341.62 97.7072 341.601 97.7148C340.643 98.1105 340.144 99.0049 339.797 99.931C340.08 99.5735 340.468 99.3759 340.946 99.7122C340.971 99.7299 340.947 99.7693 340.92 99.764C340.526 99.6823 340.243 99.7528 339.98 100.07C339.793 100.294 339.666 100.577 339.533 100.836C339.489 100.922 339.333 100.877 339.366 100.778C339.368 100.771 339.371 100.764 339.373 100.756C339.34 99.5317 340.279 97.8106 341.594 97.6783Z" fill="#2B2B2B"/>
<path d="M342.683 108.348C341.997 109.653 341.514 110.84 340.708 111.92C339.954 112.931 339.004 113.89 337.786 114.236C336.607 114.573 335.362 114.552 334.642 113.162C334.071 112.06 333.903 110.845 333.828 109.311C333.825 109.241 333.733 109.243 333.736 109.314C333.826 111.293 334.099 114.333 335.97 114.671C338.063 115.049 339.789 113.679 340.907 112.067C341.664 110.976 342.154 109.741 342.723 108.371C342.734 108.346 342.696 108.324 342.683 108.348Z" fill="#2B2B2B"/>
<path d="M356.917 155.326H319.322V157.01H356.917V155.326Z" fill="#C7C7C7"/>
<path d="M319.322 155.326V157.01H344.877L343.589 155.326H319.322Z" fill="#A6A6A6"/>
<path d="M341.967 157.011H305.328L302.277 132.126H338.917L341.967 157.011Z" fill="#C7C7C7"/>
<path d="M324.353 144.569C324.375 145.801 323.394 146.799 322.162 146.799C320.93 146.799 319.914 145.801 319.893 144.569C319.871 143.337 320.853 142.338 322.084 142.338C323.315 142.338 324.331 143.337 324.353 144.569Z" fill="white"/>
</svg>
