<svg width="390" height="361" viewBox="0 0 390 361" fill="none" xmlns="http://www.w3.org/2000/svg">
<g clip-path="url(#clip0_405_26703)">
<path d="M389.668 297.505H0.667969V297.7H389.668V297.505Z" fill="#D1D1D1"/>
<path d="M350.691 310.028H324.922V310.223H350.691V310.028Z" fill="#D1D1D1"/>
<path d="M258.357 312.14H251.594V312.334H258.357V312.14Z" fill="#D1D1D1"/>
<path d="M324.142 302.804H309.211V302.998H324.142V302.804Z" fill="#D1D1D1"/>
<path d="M75.0846 304.111H41.4805V304.305H75.0846V304.111Z" fill="#D1D1D1"/>
<path d="M86.9388 304.111H82.0117V304.305H86.9388V304.111Z" fill="#D1D1D1"/>
<path d="M175.833 307.396H102.953V307.59H175.833V307.396Z" fill="#D1D1D1"/>
<path d="M185.064 262.808H34.8334C32.385 262.808 30.3926 260.816 30.3926 258.367V47.1933C30.3926 44.7449 32.385 42.7524 34.8334 42.7524H185.064C187.512 42.7524 189.504 44.7449 189.504 47.1933V258.367C189.504 260.816 187.512 262.808 185.064 262.808ZM34.8334 42.9477C32.4916 42.9477 30.5871 44.8523 30.5871 47.194V258.368C30.5871 260.71 32.4916 262.614 34.8334 262.614H185.064C187.405 262.614 189.31 260.71 189.31 258.368V47.1933C189.31 44.8523 187.405 42.9469 185.064 42.9469L34.8334 42.9477Z" fill="#D1D1D1"/>
<path d="M353.344 262.808H203.114C200.666 262.808 198.674 260.816 198.674 258.367V47.1933C198.674 44.7449 200.666 42.7524 203.114 42.7524H353.344C355.793 42.7524 357.785 44.7449 357.785 47.1933V258.367C357.786 260.816 355.793 262.808 353.344 262.808ZM203.114 42.9477C200.773 42.9477 198.868 44.8523 198.868 47.194V258.368C198.868 260.71 200.773 262.614 203.114 262.614H353.344C355.686 262.614 357.59 260.71 357.59 258.368V47.1933C357.59 44.8523 355.686 42.9469 353.344 42.9469L203.114 42.9477Z" fill="#D1D1D1"/>
<path d="M322.194 67.2695H284.283V113.939H322.194V67.2695Z" fill="#F5F5F5"/>
<path d="M319.961 69.4985H286.51V111.709H319.961V69.4985Z" fill="#D1D1D1"/>
<path d="M315.906 101.056V111.709H290.566V101.056C290.566 95.2731 294.756 90.4697 300.261 89.5003C297.23 88.3077 295.069 85.3552 295.069 81.9008C295.069 77.3877 298.724 73.7334 303.237 73.7334C307.75 73.7334 311.404 77.3884 311.404 81.9008C311.404 85.3552 309.254 88.3084 306.212 89.5003C311.716 90.4697 315.906 95.2723 315.906 101.056Z" fill="#A6A6A6"/>
<path d="M99.0963 78.144H67.5312V99.3344H99.0963V78.144Z" fill="#A6A6A6"/>
<path d="M83.3145 71.4297L57.9844 78.1438L83.3145 84.858L108.645 78.1438L83.3145 71.4297Z" fill="#D1D1D1"/>
<path d="M96.3847 94.3769V81.5415C96.3847 81.2902 96.2159 81.07 95.9739 81.0047L83.4606 77.6071C83.1657 77.5247 82.8584 77.7021 82.7775 77.9985C82.6966 78.2949 82.8724 78.6007 83.1688 78.6816L95.2714 81.9678V94.3614C94.698 94.5769 94.2872 95.1261 94.2872 95.775C94.2872 96.6114 94.9649 97.289 95.8012 97.289C96.6376 97.289 97.3152 96.6114 97.3152 95.775C97.3152 95.1448 96.9317 94.6057 96.3847 94.3769Z" fill="#F5F5F5"/>
<path d="M164.506 50.0205L159.289 80.4979H186.802L164.506 50.0205Z" fill="#A6A6A6"/>
<path d="M206.57 80.4979H169.063L164.506 50.0205H202.012L206.57 80.4979Z" fill="#F5F5F5"/>
<path d="M202.846 55.6058H165.341L164.506 50.0205H202.012L202.846 55.6058Z" fill="#D1D1D1"/>
<path d="M176.72 61.3522H173.489L173 58.0869H176.232L176.72 61.3522Z" fill="#A6A6A6"/>
<path d="M181.643 61.3522H178.412L177.924 58.0869H181.156L181.643 61.3522Z" fill="#A6A6A6"/>
<path d="M186.57 61.3522H183.338L182.85 58.0869H186.081L186.57 61.3522Z" fill="#A6A6A6"/>
<path d="M191.493 61.3522H188.262L187.773 58.0869H191.005L191.493 61.3522Z" fill="#A6A6A6"/>
<path d="M196.417 61.3522H193.185L192.697 58.0869H195.929L196.417 61.3522Z" fill="#A6A6A6"/>
<path d="M201.343 61.3522H198.112L197.623 58.0869H200.855L201.343 61.3522Z" fill="#A6A6A6"/>
<path d="M172.493 66.0155H169.262L168.773 62.751H172.005L172.493 66.0155Z" fill="#A6A6A6"/>
<path d="M177.417 66.0155H174.185L173.697 62.751H176.928L177.417 66.0155Z" fill="#A6A6A6"/>
<path d="M182.343 66.0155H179.112L178.623 62.751H181.855L182.343 66.0155Z" fill="#A6A6A6"/>
<path d="M187.266 66.0155H184.035L183.547 62.751H186.779L187.266 66.0155Z" fill="#A6A6A6"/>
<path d="M192.19 66.0155H188.959L188.471 62.751H191.702L192.19 66.0155Z" fill="#A6A6A6"/>
<path d="M197.117 66.0155H193.885L193.396 62.751H196.628L197.117 66.0155Z" fill="#A6A6A6"/>
<path d="M202.04 66.0155H198.809L198.32 62.751H201.552L202.04 66.0155Z" fill="#A6A6A6"/>
<path d="M173.19 70.6795H169.959L169.471 67.415H172.702L173.19 70.6795Z" fill="#A6A6A6"/>
<path d="M178.115 70.6795H174.883L174.395 67.415H177.626L178.115 70.6795Z" fill="#A6A6A6"/>
<path d="M183.04 70.6795H179.809L179.32 67.415H182.552L183.04 70.6795Z" fill="#A6A6A6"/>
<path d="M187.964 70.6795H184.732L184.244 67.415H187.475L187.964 70.6795Z" fill="#A6A6A6"/>
<path d="M192.888 70.6795H189.657L189.168 67.415H192.4L192.888 70.6795Z" fill="#A6A6A6"/>
<path d="M197.813 70.6795H194.582L194.094 67.415H197.326L197.813 70.6795Z" fill="#A6A6A6"/>
<path d="M202.737 70.6795H199.505L199.018 67.415H202.249L202.737 70.6795Z" fill="#A6A6A6"/>
<path d="M173.888 75.3434H170.657L170.168 72.0781H173.4L173.888 75.3434Z" fill="#A6A6A6"/>
<path d="M178.811 75.3434H175.58L175.092 72.0781H178.324L178.811 75.3434Z" fill="#A6A6A6"/>
<path d="M183.738 75.3434H180.506L180.018 72.0781H183.249L183.738 75.3434Z" fill="#A6A6A6"/>
<path d="M188.661 75.3434H185.43L184.941 72.0781H188.173L188.661 75.3434Z" fill="#A6A6A6"/>
<path d="M193.585 75.3434H190.353L189.865 72.0781H193.097L193.585 75.3434Z" fill="#A6A6A6"/>
<path d="M198.511 75.3434H195.28L194.791 72.0781H198.023L198.511 75.3434Z" fill="#A6A6A6"/>
<path d="M349.558 221.133H321.176C320.236 221.133 319.475 220.371 319.475 219.431V178.886C319.475 177.946 320.236 177.184 321.176 177.184H349.558C350.497 177.184 351.259 177.946 351.259 178.886V219.432C351.258 220.371 350.497 221.133 349.558 221.133Z" fill="#A6A6A6"/>
<path d="M345.054 216.805H316.672C315.732 216.805 314.971 216.044 314.971 215.104V174.557C314.971 173.618 315.732 172.856 316.672 172.856H345.054C345.993 172.856 346.755 173.618 346.755 174.557V215.104C346.755 216.044 345.993 216.805 345.054 216.805Z" fill="#F5F5F5"/>
<path d="M341.214 179.776H320.511C319.938 179.776 319.475 179.312 319.475 178.739C319.475 178.167 319.938 177.703 320.511 177.703H341.214C341.787 177.703 342.251 178.167 342.251 178.739C342.251 179.312 341.786 179.776 341.214 179.776Z" fill="#D1D1D1"/>
<path d="M341.214 185.139H320.511C319.938 185.139 319.475 184.676 319.475 184.103C319.475 183.531 319.938 183.067 320.511 183.067H341.214C341.787 183.067 342.251 183.531 342.251 184.103C342.251 184.676 341.786 185.139 341.214 185.139Z" fill="#D1D1D1"/>
<path d="M341.214 190.504H320.511C319.938 190.504 319.475 190.04 319.475 189.467C319.475 188.895 319.938 188.431 320.511 188.431H341.214C341.787 188.431 342.251 188.895 342.251 189.467C342.251 190.04 341.786 190.504 341.214 190.504Z" fill="#D1D1D1"/>
<path d="M341.214 195.867H320.511C319.938 195.867 319.475 195.403 319.475 194.831C319.475 194.258 319.938 193.794 320.511 193.794H341.214C341.787 193.794 342.251 194.258 342.251 194.831C342.251 195.403 341.786 195.867 341.214 195.867Z" fill="#D1D1D1"/>
<path d="M341.214 201.231H320.511C319.938 201.231 319.475 200.768 319.475 200.195C319.475 199.622 319.938 199.159 320.511 199.159H341.214C341.787 199.159 342.251 199.622 342.251 200.195C342.251 200.767 341.786 201.231 341.214 201.231Z" fill="#D1D1D1"/>
<path d="M341.214 206.595H320.511C319.938 206.595 319.475 206.131 319.475 205.559C319.475 204.986 319.938 204.522 320.511 204.522H341.214C341.787 204.522 342.251 204.986 342.251 205.559C342.251 206.131 341.786 206.595 341.214 206.595Z" fill="#D1D1D1"/>
<path d="M336.546 211.959H320.511C319.938 211.959 319.475 211.496 319.475 210.923C319.475 210.35 319.938 209.887 320.511 209.887H336.546C337.119 209.887 337.583 210.35 337.583 210.923C337.583 211.495 337.118 211.959 336.546 211.959Z" fill="#D1D1D1"/>
<path d="M302.881 115.98V117.925" stroke="#D1D1D1" stroke-width="2" stroke-linecap="round" stroke-linejoin="round"/>
<path d="M302.881 121.715V150.141" stroke="#D1D1D1" stroke-width="2" stroke-linecap="round" stroke-linejoin="round" stroke-dasharray="4.87 4.87"/>
<path d="M302.881 152.037V153.982H300.936" stroke="#D1D1D1" stroke-width="2" stroke-linecap="round" stroke-linejoin="round"/>
<path d="M297.063 153.981H229.285" stroke="#D1D1D1" stroke-width="2" stroke-linecap="round" stroke-linejoin="round" stroke-dasharray="4.98 4.98"/>
<path d="M227.349 153.981H225.404V155.926" stroke="#D1D1D1" stroke-width="2" stroke-linecap="round" stroke-linejoin="round"/>
<path d="M225.404 160.06V166.261" stroke="#D1D1D1" stroke-width="2" stroke-linecap="round" stroke-linejoin="round" stroke-dasharray="5.31 5.31"/>
<path d="M225.404 168.328V170.273H223.459" stroke="#D1D1D1" stroke-width="2" stroke-linecap="round" stroke-linejoin="round"/>
<path d="M219.152 170.273H212.689" stroke="#D1D1D1" stroke-width="2" stroke-linecap="round" stroke-linejoin="round" stroke-dasharray="5.54 5.54"/>
<path d="M210.535 170.273H208.59" stroke="#D1D1D1" stroke-width="2" stroke-linecap="round" stroke-linejoin="round"/>
<path d="M333.747 225.215V239.69H225.404V193.794H210.02" stroke="#D1D1D1" stroke-width="2" stroke-miterlimit="10" stroke-linecap="round" stroke-linejoin="round" stroke-dasharray="5 5"/>
<path d="M210.019 66.0156H230.935V147.159H192.699" stroke="#D1D1D1" stroke-width="2" stroke-miterlimit="10" stroke-linecap="round" stroke-linejoin="round" stroke-dasharray="5 5"/>
<path d="M103.66 90.6313H122.917V171.225H151.962" stroke="#D1D1D1" stroke-width="2" stroke-miterlimit="10" stroke-linecap="round" stroke-linejoin="round" stroke-dasharray="5 5"/>
<path d="M60.7723 244.804L52.1373 239.358L43.293 244.804V215.725H60.7723V244.804Z" fill="#A6A6A6"/>
<path d="M61.6508 222.698C66.9641 217.385 66.9641 208.77 61.6508 203.457C56.3375 198.144 47.7229 198.144 42.4096 203.457C37.0963 208.77 37.0963 217.385 42.4096 222.698C47.7229 228.011 56.3375 228.011 61.6508 222.698Z" fill="#F5F5F5"/>
<path d="M60.197 221.244C64.7073 216.734 64.7073 209.421 60.197 204.911C55.6867 200.401 48.3741 200.401 43.8639 204.911C39.3536 209.421 39.3536 216.734 43.8639 221.244C48.3741 225.755 55.6867 225.755 60.197 221.244Z" fill="#D1D1D1"/>
<path d="M70.2852 213.46H130.304V193.794H151.961" stroke="#D1D1D1" stroke-width="2" stroke-miterlimit="10" stroke-linecap="round" stroke-linejoin="round" stroke-dasharray="5 5"/>
<path d="M195.168 332.643C278.478 332.643 346.014 328.698 346.014 323.833C346.014 318.968 278.478 315.024 195.168 315.024C111.858 315.024 44.3223 318.968 44.3223 323.833C44.3223 328.698 111.858 332.643 195.168 332.643Z" fill="#F5F5F5"/>
<path d="M88.4119 110.125C88.4119 110.125 84.5219 111.561 83.2903 116.896C82.0595 122.231 85.3341 133.721 85.8507 139.158C86.3681 144.596 80.4171 155.626 95.9087 156.625C111.4 157.625 113.656 115.322 106.475 112.364C99.2945 109.407 88.4119 110.125 88.4119 110.125Z" fill="#2B2B2B"/>
<path d="M105.748 112.981C110.067 110.946 111.925 125.023 110.386 135.183" stroke="#2B2B2B" stroke-width="0.5" stroke-miterlimit="10" stroke-linecap="round" stroke-linejoin="round"/>
<path d="M142.52 107.295L144.366 102.221C144.366 102.221 143.597 101.293 147.136 99.601C150.675 97.9081 152.844 96.9846 154.299 97.4468C155.754 97.9081 157.754 101.176 157.601 102.312C157.447 103.449 147.752 104.988 147.752 104.988L146.368 108.907L142.52 107.295Z" fill="#E4897B"/>
<path d="M112.529 133.235C112.529 133.235 129.457 128.154 132.227 125.552C134.997 122.949 142.829 103.602 142.829 103.602L148.523 105.91C148.523 105.91 142.692 128.396 137.768 133.599C132.844 138.801 113.915 148.034 113.915 148.034L112.529 133.235Z" fill="#F9A620"/>
<path opacity="0.6" d="M112.529 133.235C112.529 133.235 129.457 128.154 132.227 125.552C134.997 122.949 142.829 103.602 142.829 103.602L148.523 105.91C148.523 105.91 142.692 128.396 137.768 133.599C132.844 138.801 113.915 148.034 113.915 148.034L112.529 133.235Z" fill="#D1D1D1"/>
<path d="M81.9062 305.803L85.664 308.013C85.664 308.013 87.4845 305.422 91.3745 301.244V301.237C92.4637 300.085 93.6074 298.809 94.7977 297.44C97.1784 294.709 99.7536 291.589 102.453 288.236C103.247 287.248 104.056 286.237 104.873 285.21C114.279 273.376 124.447 259.466 128.252 250.06C129.434 247.135 130.01 244.653 129.753 242.793C128.983 237.176 126.797 228.719 124.299 220.55C120.503 208.063 116.232 196.23 116.232 196.23L105.736 214.007C105.736 214.007 108.957 221.686 111.89 229.863C114.777 237.892 117.383 246.411 116.418 248.628C116.325 248.846 116.208 249.103 116.076 249.375C114.333 252.985 109.51 261.162 104.033 270.194C103.48 271.105 102.92 272.023 102.36 272.941C99.419 277.764 96.3615 282.72 93.5296 287.272C92.4248 289.061 91.3512 290.788 90.332 292.422C85.5084 300.179 81.9062 305.803 81.9062 305.803Z" fill="#E4897B"/>
<path opacity="0.2" d="M105.087 285.21C100.123 291.45 95.3542 297.114 91.8066 301.237C91.3009 298.701 90.7874 295.698 90.3828 292.422C94.4829 285.84 99.501 277.718 104.06 270.195C104.02 274.178 104.168 280.068 105.087 285.21Z" fill="#2B2B2B"/>
<path d="M86.3568 233.769C87.6561 242.63 89.5077 250.659 90.7136 255.444C91.4372 258.315 91.9273 260.011 91.9273 260.011C91.8573 268.95 92.573 278.527 93.53 287.272C93.9268 290.835 94.3546 294.258 94.7981 297.44C96.4319 309.219 98.1513 317.676 98.1513 317.676L102.625 317.092L102.454 288.236L102.36 272.941L102.236 252.129L102.189 248.504L101.971 232.679L101.652 209.339L86.0923 202.337C84.0073 211.207 84.7853 223.094 86.3568 233.769Z" fill="#E4897B"/>
<path opacity="0.2" d="M127.995 233.913C124.019 236.66 118.651 238.309 114.979 239.196C114.131 236.294 113.034 233.034 111.89 229.86C108.957 221.683 105.736 214.004 105.736 214.004L116.232 196.227C116.232 196.227 120.503 208.06 124.299 220.547C125.692 225.091 126.984 229.728 127.995 233.913Z" fill="#2B2B2B"/>
<path opacity="0.2" d="M102.104 242.471C96.2763 242.316 91.5072 241.927 87.6405 241.429C87.1893 238.994 86.7458 236.419 86.3568 233.766C84.7853 223.092 84.0073 211.204 86.0923 202.334L101.652 209.336L101.971 232.676L102.104 242.471Z" fill="#2B2B2B"/>
<path d="M128.748 232.367C119.015 238.085 90.3868 240.511 90.3868 240.511L85.7032 227.347L86.2136 240.368H84.8264C84.8264 240.368 74.3639 204.972 88.2628 181.772L113.159 179.85L115.882 192.672C115.882 192.672 122.896 211.049 128.748 232.367Z" fill="#2B2B2B"/>
<path d="M110.493 323.409C109.758 322.969 108.949 322.667 108.106 322.518C108.106 322.518 105.356 320.47 103.175 313.436L99.9024 313.061C98.7673 312.95 97.6843 313.561 97.1911 314.589C97.1218 314.729 97.0736 314.878 97.0487 315.032C96.9958 315.826 96.9942 316.624 97.044 317.419C97.072 319.9 98.1208 325.33 98.1208 325.33L98.6911 325.249L98.2134 320.254C98.0585 318.557 99.6285 320.351 100.255 322.113C100.882 323.874 101.939 325.694 105.646 325.26C109.967 324.733 111.731 324.311 110.493 323.409Z" fill="#2E353A"/>
<path d="M102.272 310.941C102.272 310.941 103.439 314.126 104.995 317.627C106.551 321.128 108.107 322.518 108.107 322.518C108.107 322.518 105.404 323.396 103.946 321.701C102.487 320.007 99.9918 313.886 97.1934 314.59C97.1934 314.59 97.398 313.859 97.8173 313.166C98.2367 312.473 102.272 310.941 102.272 310.941Z" fill="#E4897B"/>
<path d="M83.0812 320.643C82.9241 319.801 82.6136 318.996 82.1663 318.265C82.1663 318.265 81.8784 314.849 85.7 308.554L83.8125 305.855C83.1427 304.933 81.9679 304.526 80.8717 304.838C80.7208 304.878 80.5776 304.941 80.4454 305.025C79.8152 305.512 79.2169 306.039 78.6544 306.603C76.8152 308.269 73.4434 312.652 73.4434 312.652L73.8822 313.025L77.3061 309.357C78.4739 308.117 78.1713 310.48 77.268 312.117C76.364 313.754 75.7027 315.752 78.4832 318.24C81.7415 321.127 83.2275 322.168 83.0812 320.643Z" fill="#2E353A"/>
<path d="M86.9691 306.223C86.9691 306.223 85.3571 309.208 83.7669 312.694C82.1759 316.179 82.1658 318.266 82.1658 318.266C82.1658 318.266 79.7174 316.823 80.0201 314.608C80.3227 312.392 83.2519 306.467 80.8712 304.838C80.8712 304.838 81.5543 304.508 82.3509 304.362C83.1468 304.216 86.9691 306.223 86.9691 306.223Z" fill="#E4897B"/>
<path d="M88.04 179.226L87.8984 182.982L113.628 181.982L113.796 177.54L88.04 179.226Z" fill="#2B2B2B"/>
<path opacity="0.2" d="M88.04 179.226L87.8984 182.982L113.628 181.982L113.796 177.54L88.04 179.226Z" fill="#D1D1D1"/>
<path d="M96.7184 177.966L95.4434 177.983L95.5304 184.477L96.8054 184.46L96.7184 177.966Z" fill="#2B2B2B"/>
<path d="M107.819 177.989L102.189 178.28L102.41 182.549L108.039 182.258L107.819 177.989Z" fill="#D1D1D1"/>
<path d="M112.443 176.844L111.168 176.86L111.254 183.354L112.529 183.338L112.443 176.844Z" fill="#2B2B2B"/>
<path d="M81.0494 180.812L86.9303 184.177C86.9303 184.177 88.7173 184.66 90.1582 186.968C91.5998 189.276 89.5311 198.202 88.4108 198.202C87.2905 198.202 80.963 196.817 81.0486 195.585C81.1349 194.354 83.5872 188.506 83.5872 188.506L77.9023 184.967L81.0494 180.812Z" fill="#E4897B"/>
<path d="M87.8976 179.222C87.8976 179.222 86.3486 156.41 81.0488 143.373C81.0488 143.373 91.9074 137.52 112.528 133.235C112.528 133.235 118.426 147.585 113.795 177.786L87.8976 179.222Z" fill="#F9A620"/>
<path opacity="0.6" d="M105.007 157.359C105.412 157.359 105.741 157.031 105.741 156.626C105.741 156.221 105.412 155.892 105.007 155.892C104.602 155.892 104.273 156.221 104.273 156.626C104.273 157.031 104.602 157.359 105.007 157.359Z" fill="#D1D1D1"/>
<path opacity="0.6" d="M106.475 165.478C106.475 165.883 106.147 166.211 105.741 166.211C105.336 166.211 105.008 165.883 105.008 165.478C105.008 165.072 105.336 164.744 105.741 164.744C106.147 164.744 106.475 165.072 106.475 165.478Z" fill="#D1D1D1"/>
<path opacity="0.6" d="M106.475 173.886C106.475 174.292 106.147 174.62 105.741 174.62C105.336 174.62 105.008 174.292 105.008 173.886C105.008 173.481 105.336 173.153 105.741 173.153C106.147 173.153 106.475 173.482 106.475 173.886Z" fill="#D1D1D1"/>
<path d="M81.0489 143.373C76.2105 146.033 58.6674 166.193 60.0522 172.195C61.4371 178.196 81.0489 187.584 81.0489 187.584L84.4223 181.772C84.4223 181.772 71.5697 172.195 70.9536 170.656C70.3382 169.117 85.0992 157.504 85.0992 157.504C85.0992 157.504 85.4399 152.055 84.8261 148.274C84.213 144.494 81.0489 143.373 81.0489 143.373Z" fill="#F9A620"/>
<path opacity="0.6" d="M81.0489 143.373C76.2105 146.033 58.6674 166.193 60.0522 172.195C61.4371 178.196 81.0489 187.584 81.0489 187.584L84.4223 181.772C84.4223 181.772 71.5697 172.195 70.9536 170.656C70.3382 169.117 85.0992 157.504 85.0992 157.504C85.0992 157.504 85.4399 152.055 84.8261 148.274C84.213 144.494 81.0489 143.373 81.0489 143.373Z" fill="#D1D1D1"/>
<path d="M90.158 147.419C90.158 147.419 85.2387 139.369 96.0109 136.597C106.783 133.825 110.066 140.288 110.066 140.288L104.699 139.365L104.025 152.189C104.025 152.189 100.847 145.572 92.6865 142.751L90.158 147.419Z" fill="#F9A620"/>
<path opacity="0.6" d="M90.158 147.419C90.158 147.419 85.2387 139.369 96.0109 136.597C106.783 133.825 110.066 140.288 110.066 140.288L104.699 139.365L104.025 152.189C104.025 152.189 100.847 145.572 92.6865 142.751L90.158 147.419Z" fill="#D1D1D1"/>
<path d="M102.377 145.879C97.0804 143.518 92.0234 139.933 92.0234 139.933C94.5519 137.553 94.0929 134.036 93.4472 131.842C93.0971 130.628 92.6847 129.819 92.6847 129.819L100.13 131.212C99.9357 132.441 99.8501 133.476 99.8423 134.347C99.8268 135.304 99.9124 136.059 100.052 136.65C100.558 138.875 101.826 138.906 101.826 138.906C103.133 141.35 102.377 145.879 102.377 145.879Z" fill="#E4897B"/>
<path opacity="0.2" d="M99.8431 134.348C99.8276 135.305 99.9132 136.06 100.053 136.651C97.0968 136.262 94.8562 133.897 93.448 131.843C93.0979 130.629 92.6855 129.82 92.6855 129.82L100.131 131.213C99.9365 132.442 99.8509 133.477 99.8431 134.348Z" fill="#2B2B2B"/>
<path d="M98.3713 110.253C106.389 110.253 107.062 114.128 107.522 120.806C108.096 129.151 106.233 135.075 98.1363 133.275C87.1409 130.83 87.6123 110.253 98.3713 110.253Z" fill="#E4897B"/>
<path d="M103.334 120.434C103.334 120.434 104.228 122.129 105.213 123.125C105.213 123.125 104.657 124.005 103.504 123.854L103.334 120.434Z" fill="#DE5753"/>
<path d="M99.3695 119.896C99.3812 120.428 99.1027 120.866 98.7472 120.873C98.3924 120.881 98.0952 120.455 98.0843 119.923C98.0734 119.391 98.3512 118.953 98.7067 118.946C99.0615 118.938 99.3579 119.364 99.3695 119.896Z" fill="#2B2B2B"/>
<path d="M98.5586 118.975L99.7069 118.496C99.7069 118.496 99.1507 119.483 98.5586 118.975Z" fill="#2B2B2B"/>
<path d="M105.985 119.645C105.996 120.178 105.718 120.615 105.362 120.623C105.008 120.63 104.71 120.205 104.7 119.673C104.688 119.14 104.967 118.702 105.321 118.695C105.677 118.688 105.974 119.113 105.985 119.645Z" fill="#2B2B2B"/>
<path d="M105.176 118.724L106.323 118.246C106.323 118.246 105.768 119.231 105.176 118.724Z" fill="#2B2B2B"/>
<path d="M99.3144 115.421C99.3144 115.421 97.4947 115.18 96.502 116.395" stroke="#2B2B2B" stroke-width="0.708" stroke-miterlimit="10" stroke-linecap="round" stroke-linejoin="round"/>
<path d="M104.025 115.158C104.025 115.158 105.171 114.737 106.606 115.697" stroke="#2B2B2B" stroke-width="0.708" stroke-miterlimit="10" stroke-linecap="round" stroke-linejoin="round"/>
<path d="M91.4001 121.544C91.4001 121.544 94.4413 116.228 93.9916 112.117C93.9916 112.117 98.5592 107.407 104.714 112.062C104.714 112.062 107.287 116.491 107.446 119.934C107.446 119.934 108.727 108.365 97.5899 108.083C86.4707 107.8 86.4637 124.094 92.2045 128.962C92.2045 128.962 89.5189 124.87 91.4001 121.544Z" fill="#2B2B2B"/>
<path d="M92.4544 122.915C92.4132 121.871 91.3411 120.104 89.4008 120.311C87.3928 120.525 86.4265 124.645 91.4182 125.647C92.1347 125.791 92.54 125.091 92.4544 122.915Z" fill="#E4897B"/>
<path d="M102.628 127.364C102.628 127.364 99.9125 127.978 98.7891 125.551" stroke="#2B2B2B" stroke-width="0.708" stroke-miterlimit="10" stroke-linecap="round" stroke-linejoin="round"/>
<path d="M93.9927 112.117C93.9927 112.117 101.395 108.83 106.296 113.171C106.296 113.171 108.221 107.457 101.655 105.508C95.0889 103.559 88.4121 110.125 88.4121 110.125L93.9927 112.117Z" fill="#2B2B2B"/>
<path d="M93.992 112.117C93.992 112.117 89.6694 116.381 90.2949 124.873C90.9204 133.363 90.0981 138.733 88.4106 144.046C86.7231 149.36 91.1398 150.946 91.1398 150.946C91.1398 150.946 86.1069 152.188 85.0698 146.802C84.3899 143.268 86.0081 135.612 85.1935 126.492C84.379 117.372 87.6318 110.927 93.992 112.117Z" fill="#2B2B2B"/>
<path d="M214.189 93.1875C210.237 93.1875 207.033 96.3913 207.033 100.344C207.033 104.296 210.237 107.5 214.189 107.5C218.141 107.5 221.345 104.296 221.345 100.344C221.345 96.3913 218.141 93.1875 214.189 93.1875ZM214.189 99.6511C213.042 99.6511 212.112 98.7206 212.112 97.5739C212.112 96.4271 213.042 95.4966 214.189 95.4966C215.337 95.4966 216.266 96.4263 216.266 97.5739C216.266 98.7214 215.337 99.6511 214.189 99.6511Z" fill="#F9A620"/>
<path opacity="0.6" d="M214.189 93.1875C210.237 93.1875 207.033 96.3913 207.033 100.344C207.033 104.296 210.237 107.5 214.189 107.5C218.141 107.5 221.345 104.296 221.345 100.344C221.345 96.3913 218.141 93.1875 214.189 93.1875ZM214.189 99.6511C213.042 99.6511 212.112 98.7206 212.112 97.5739C212.112 96.4271 213.042 95.4966 214.189 95.4966C215.337 95.4966 216.266 96.4263 216.266 97.5739C216.266 98.7214 215.337 99.6511 214.189 99.6511Z" fill="#D1D1D1"/>
<path d="M285.019 325.33H143.359C140.143 325.33 137.535 322.723 137.535 319.507V108.411C137.535 105.194 140.142 102.587 143.359 102.587H285.019C288.235 102.587 290.842 105.194 290.842 108.411V319.507C290.843 322.723 288.236 325.33 285.019 325.33Z" fill="#F9A620"/>
<path opacity="0.8" d="M282.727 115.537H145.652V314.732H282.727V115.537Z" fill="#FEF9F9"/>
<path d="M250.647 113.04H177.733C176.903 113.04 176.23 112.367 176.23 111.537V102.189C176.23 101.359 176.903 100.687 177.733 100.687H250.647C251.477 100.687 252.149 101.359 252.149 102.189V111.537C252.149 112.367 251.476 113.04 250.647 113.04Z" fill="#F9A620"/>
<path opacity="0.4" d="M250.647 113.04H177.733C176.903 113.04 176.23 112.367 176.23 111.537V102.189C176.23 101.359 176.903 100.687 177.733 100.687H250.647C251.477 100.687 252.149 101.359 252.149 102.189V111.537C252.149 112.367 251.476 113.04 250.647 113.04Z" fill="#D1D1D1"/>
<path d="M242.256 124.517H220.281C219.344 124.517 218.503 124.029 218.086 123.242C217.32 121.797 215.829 120.9 214.193 120.9C212.557 120.9 211.066 121.797 210.302 123.24C209.885 124.028 209.043 124.517 208.105 124.517H186.123C184.828 124.517 183.773 123.463 183.773 122.168V109.074C183.773 107.779 184.828 106.725 186.123 106.725H242.256C243.551 106.725 244.605 107.779 244.605 109.074V122.168C244.606 123.463 243.552 124.517 242.256 124.517ZM214.194 119.344C216.406 119.344 218.425 120.558 219.461 122.513C219.606 122.786 219.928 122.961 220.282 122.961H242.257C242.694 122.961 243.051 122.605 243.051 122.168V109.074C243.051 108.636 242.695 108.281 242.257 108.281H186.125C185.687 108.281 185.331 108.637 185.331 109.074V122.168C185.331 122.606 185.687 122.961 186.125 122.961H208.107C208.462 122.961 208.784 122.785 208.928 122.513C209.962 120.557 211.98 119.344 214.194 119.344Z" fill="#2B2B2B"/>
<g opacity="0.2">
<path d="M242.256 124.517H220.281C219.344 124.517 218.503 124.029 218.086 123.242C217.32 121.797 215.829 120.9 214.193 120.9C212.557 120.9 211.066 121.797 210.302 123.24C209.885 124.028 209.043 124.517 208.105 124.517H186.123C184.828 124.517 183.773 123.463 183.773 122.168V109.074C183.773 107.779 184.828 106.725 186.123 106.725H242.256C243.551 106.725 244.605 107.779 244.605 109.074V122.168C244.606 123.463 243.552 124.517 242.256 124.517ZM214.194 119.344C216.406 119.344 218.425 120.558 219.461 122.513C219.606 122.786 219.928 122.961 220.282 122.961H242.257C242.694 122.961 243.051 122.605 243.051 122.168V109.074C243.051 108.636 242.695 108.281 242.257 108.281H186.125C185.687 108.281 185.331 108.637 185.331 109.074V122.168C185.331 122.606 185.687 122.961 186.125 122.961H208.107C208.462 122.961 208.784 122.785 208.928 122.513C209.962 120.557 211.98 119.344 214.194 119.344Z" fill="#D1D1D1"/>
</g>
<path d="M238.925 109.768H189.484C188.986 109.768 188.582 109.365 188.582 108.867V105.367C188.582 104.869 188.986 104.465 189.484 104.465H238.925C239.423 104.465 239.827 104.869 239.827 105.367V108.867C239.827 109.365 239.424 109.768 238.925 109.768Z" fill="#F9A620"/>
<path opacity="0.6" d="M238.894 109.768H189.452C188.955 109.768 188.551 109.365 188.551 108.867V105.367C188.551 104.869 188.955 104.465 189.452 104.465H238.894C239.392 104.465 239.795 104.869 239.795 105.367V108.867C239.795 109.365 239.392 109.768 238.894 109.768Z" fill="#D1D1D1"/>
<path opacity="0.3" d="M226.916 224.325H213.07V238.17H226.916V224.325Z" fill="#2B2B2B"/>
<path opacity="0.3" d="M225.301 243.746H214.684C213.792 243.746 213.07 243.023 213.07 242.133C213.07 241.241 213.793 240.519 214.684 240.519H225.301C226.193 240.519 226.915 241.242 226.915 242.133C226.915 243.024 226.193 243.746 225.301 243.746Z" fill="#2B2B2B"/>
<path opacity="0.3" d="M269.862 227.288H234.249C233.431 227.288 232.768 226.625 232.768 225.807C232.768 224.989 233.43 224.325 234.249 224.325H269.862C270.68 224.325 271.343 224.988 271.343 225.807C271.343 226.624 270.68 227.288 269.862 227.288Z" fill="#2B2B2B"/>
<path opacity="0.3" d="M262.082 235.068H234.249C233.431 235.068 232.768 234.405 232.768 233.586C232.768 232.769 233.43 232.105 234.249 232.105H262.082C262.9 232.105 263.563 232.768 263.563 233.586C263.563 234.404 262.9 235.068 262.082 235.068Z" fill="#2B2B2B"/>
<path opacity="0.3" d="M269.862 242.848H234.249C233.431 242.848 232.768 242.185 232.768 241.367C232.768 240.549 233.43 239.885 234.249 239.885H269.862C270.68 239.885 271.343 240.548 271.343 241.367C271.343 242.184 270.68 242.848 269.862 242.848Z" fill="#2B2B2B"/>
<path opacity="0.3" d="M249.634 250.628H234.249C233.431 250.628 232.768 249.965 232.768 249.146C232.768 248.329 233.43 247.665 234.249 247.665H249.634C250.452 247.665 251.115 248.328 251.115 249.146C251.115 249.964 250.452 250.628 249.634 250.628Z" fill="#2B2B2B"/>
<path opacity="0.3" d="M255.119 136.046H172.871C171.39 136.046 170.189 134.846 170.189 133.364C170.189 131.883 171.39 130.683 172.871 130.683H255.119C256.6 130.683 257.801 131.883 257.801 133.364C257.801 134.846 256.6 136.046 255.119 136.046Z" fill="#2B2B2B"/>
<path opacity="0.3" d="M268.837 151.933H214.552C213.734 151.933 213.07 151.27 213.07 150.452C213.07 149.634 213.733 148.97 214.552 148.97H268.837C269.654 148.97 270.318 149.633 270.318 150.452C270.317 151.27 269.654 151.933 268.837 151.933Z" fill="#2B2B2B"/>
<path opacity="0.3" d="M261.057 159.713H214.552C213.734 159.713 213.07 159.05 213.07 158.232C213.07 157.414 213.733 156.75 214.552 156.75H261.057C261.874 156.75 262.538 157.413 262.538 158.232C262.537 159.05 261.874 159.713 261.057 159.713Z" fill="#2B2B2B"/>
<path opacity="0.3" d="M268.837 167.493H214.552C213.734 167.493 213.07 166.83 213.07 166.012C213.07 165.194 213.733 164.53 214.552 164.53H268.837C269.654 164.53 270.318 165.193 270.318 166.012C270.317 166.83 269.654 167.493 268.837 167.493Z" fill="#2B2B2B"/>
<path opacity="0.3" d="M253.277 175.273H214.552C213.734 175.273 213.07 174.61 213.07 173.791C213.07 172.974 213.733 172.31 214.552 172.31H253.277C254.094 172.31 254.758 172.973 254.758 173.791C254.757 174.61 254.094 175.273 253.277 175.273Z" fill="#2B2B2B"/>
<path opacity="0.3" d="M216.955 184.547L217.809 186.279L219.72 186.556L218.338 187.904L218.664 189.807L216.955 188.908L215.246 189.807L215.572 187.904L214.189 186.556L216.1 186.279L216.955 184.547Z" fill="#2B2B2B"/>
<path opacity="0.3" d="M226.613 184.547L227.468 186.279L229.378 186.556L227.996 187.904L228.322 189.807L226.613 188.908L224.904 189.807L225.23 187.904L223.848 186.556L225.758 186.279L226.613 184.547Z" fill="#2B2B2B"/>
<path opacity="0.3" d="M236.272 184.547L237.126 186.279L239.037 186.556L237.654 187.904L237.981 189.807L236.272 188.908L234.562 189.807L234.888 187.904L233.506 186.556L235.417 186.279L236.272 184.547Z" fill="#2B2B2B"/>
<path opacity="0.3" d="M245.93 184.547L246.784 186.279L248.695 186.556L247.312 187.904L247.639 189.807L245.93 188.908L244.221 189.807L244.547 187.904L243.164 186.556L245.075 186.279L245.93 184.547Z" fill="#2B2B2B"/>
<path opacity="0.3" d="M255.588 184.547L256.442 186.279L258.353 186.556L256.971 187.904L257.297 189.807L255.588 188.908L253.879 189.807L254.206 187.904L252.822 186.556L254.733 186.279L255.588 184.547Z" fill="#2B2B2B"/>
<path opacity="0.3" d="M216.955 194.459L217.809 196.191L219.72 196.469L218.338 197.816L218.664 199.719L216.955 198.82L215.246 199.719L215.572 197.816L214.189 196.469L216.1 196.191L216.955 194.459Z" fill="#2B2B2B"/>
<path opacity="0.3" d="M226.613 194.459L227.468 196.191L229.378 196.469L227.996 197.816L228.322 199.719L226.613 198.82L224.904 199.719L225.23 197.816L223.848 196.469L225.758 196.191L226.613 194.459Z" fill="#2B2B2B"/>
<path opacity="0.3" d="M236.272 194.459L237.126 196.191L239.037 196.469L237.654 197.816L237.981 199.719L236.272 198.82L234.562 199.719L234.888 197.816L233.506 196.469L235.417 196.191L236.272 194.459Z" fill="#2B2B2B"/>
<path opacity="0.1" d="M245.93 194.459L246.784 196.191L248.695 196.469L247.312 197.816L247.639 199.719L245.93 198.82L244.221 199.719L244.547 197.816L243.164 196.469L245.075 196.191L245.93 194.459Z" fill="#2B2B2B"/>
<path opacity="0.1" d="M255.588 194.459L256.442 196.191L258.353 196.469L256.971 197.816L257.297 199.719L255.588 198.82L253.879 199.719L254.206 197.816L252.822 196.469L254.733 196.191L255.588 194.459Z" fill="#2B2B2B"/>
<path opacity="0.3" d="M216.955 204.372L217.809 206.103L219.72 206.381L218.338 207.729L218.664 209.632L216.955 208.733L215.246 209.632L215.572 207.729L214.189 206.381L216.1 206.103L216.955 204.372Z" fill="#2B2B2B"/>
<path opacity="0.3" d="M226.613 204.372L227.468 206.103L229.378 206.381L227.996 207.729L228.322 209.632L226.613 208.733L224.904 209.632L225.23 207.729L223.848 206.381L225.758 206.103L226.613 204.372Z" fill="#2B2B2B"/>
<path opacity="0.3" d="M236.272 204.372L237.126 206.103L239.037 206.381L237.654 207.729L237.981 209.632L236.272 208.733L234.562 209.632L234.888 207.729L233.506 206.381L235.417 206.103L236.272 204.372Z" fill="#2B2B2B"/>
<path opacity="0.3" d="M245.93 204.372L246.784 206.103L248.695 206.381L247.312 207.729L247.639 209.632L245.93 208.733L244.221 209.632L244.547 207.729L243.164 206.381L245.075 206.103L245.93 204.372Z" fill="#2B2B2B"/>
<path opacity="0.1" d="M255.588 204.372L256.442 206.103L258.353 206.381L256.971 207.729L257.297 209.632L255.588 208.733L253.879 209.632L254.206 207.729L252.822 206.381L254.733 206.103L255.588 204.372Z" fill="#2B2B2B"/>
<path opacity="0.3" d="M226.916 263.225H213.07V277.07H226.916V263.225Z" fill="#2B2B2B"/>
<path opacity="0.3" d="M225.301 282.646H214.684C213.792 282.646 213.07 281.923 213.07 281.033C213.07 280.141 213.793 279.419 214.684 279.419H225.301C226.193 279.419 226.915 280.142 226.915 281.033C226.915 281.924 226.193 282.646 225.301 282.646Z" fill="#2B2B2B"/>
<path opacity="0.3" d="M269.862 266.188H234.249C233.431 266.188 232.768 265.525 232.768 264.706C232.768 263.889 233.43 263.225 234.249 263.225H269.862C270.68 263.225 271.343 263.888 271.343 264.706C271.343 265.524 270.68 266.188 269.862 266.188Z" fill="#2B2B2B"/>
<path opacity="0.3" d="M262.082 273.968H234.249C233.431 273.968 232.768 273.305 232.768 272.486C232.768 271.669 233.43 271.005 234.249 271.005H262.082C262.9 271.005 263.563 271.668 263.563 272.486C263.563 273.304 262.9 273.968 262.082 273.968Z" fill="#2B2B2B"/>
<path opacity="0.3" d="M269.862 281.748H234.249C233.431 281.748 232.768 281.085 232.768 280.266C232.768 279.449 233.43 278.785 234.249 278.785H269.862C270.68 278.785 271.343 279.448 271.343 280.266C271.343 281.084 270.68 281.748 269.862 281.748Z" fill="#2B2B2B"/>
<path opacity="0.3" d="M249.634 289.528H234.249C233.431 289.528 232.768 288.865 232.768 288.046C232.768 287.229 233.43 286.565 234.249 286.565H249.634C250.452 286.565 251.115 287.228 251.115 288.046C251.115 288.864 250.452 289.528 249.634 289.528Z" fill="#2B2B2B"/>
<path d="M204.231 148.971H154.301V215.271H204.231V148.971Z" fill="#D1D1D1"/>
<path d="M201.899 151.304H156.635V212.937H201.899V151.304Z" fill="#F9A620"/>
<path opacity="0.4" d="M201.899 151.304H156.635V212.937H201.899V151.304Z" fill="#D1D1D1"/>
<path d="M201.899 199.183V212.938H198.383C197.332 211.965 196.243 211.109 195.185 210.502C194.578 210.152 193.987 209.888 193.411 209.732C188.129 208.301 195.714 194.141 195.714 194.141C195.714 194.141 195.714 194.141 195.722 194.149C197.48 194.725 199.69 196.716 201.899 199.183Z" fill="#F9A620"/>
<path opacity="0.6" d="M201.899 199.183V212.938H198.383C197.332 211.965 196.243 211.109 195.185 210.502C194.578 210.152 193.987 209.888 193.411 209.732C188.129 208.301 195.714 194.141 195.714 194.141C195.714 194.141 195.714 194.141 195.722 194.149C197.48 194.725 199.69 196.716 201.899 199.183Z" fill="#D1D1D1"/>
<path opacity="0.2" d="M201.9 212.891V212.938H198.383C197.333 211.965 196.244 211.109 195.186 210.503L196.228 203.991C196.228 203.991 197.488 204.948 198.912 206.885V206.893C199.978 208.34 201.122 210.331 201.9 212.891Z" fill="#2B2B2B"/>
<path d="M192.204 193.597C192.095 194.157 191.986 194.725 191.862 195.285C191.722 195.954 191.566 196.615 191.403 197.277C189.707 204.1 186.906 210.075 182.892 212.938H169.168C165.176 210.907 164.414 207.468 164.546 203.913C164.632 201.493 165.13 199.027 165.309 196.927C165.371 196.133 165.394 195.394 165.332 194.733C165.231 193.628 165.021 192.297 164.764 190.827C163.574 184.051 161.248 174.271 162.407 169.253C163.815 163.154 168.265 161.504 168.265 161.504C168.265 161.504 169.774 161.403 172.093 161.419C173.804 161.426 175.96 161.504 178.262 161.722C178.317 161.73 178.371 161.73 178.426 161.738C180.892 161.979 183.529 162.391 185.996 163.076C186.182 163.13 186.377 163.185 186.564 163.239C187.054 163.387 187.544 163.543 188.019 163.714C188.011 163.721 188.019 163.722 188.019 163.722C188.33 163.83 188.633 163.947 188.937 164.072L188.944 164.079C189.318 164.227 189.66 164.476 189.987 164.803C193.519 168.358 194.421 181.623 192.204 193.597Z" fill="#2B2B2B"/>
<path d="M188.105 164.775C193.047 162.446 195.174 178.555 193.412 190.182" stroke="#2B2B2B" stroke-width="0.5" stroke-miterlimit="10" stroke-linecap="round" stroke-linejoin="round"/>
<path d="M199.284 212.938H163.777C163.629 212.269 163.481 211.6 163.325 210.938C162.361 206.862 161.209 202.933 159.848 199.564C159.84 199.556 159.84 199.556 159.84 199.556C159.84 199.556 161.458 198.529 164.383 197.308C164.679 197.176 164.982 197.051 165.309 196.927C166.538 196.436 167.97 195.931 169.573 195.448C169.736 195.402 169.907 195.355 170.086 195.301C171.292 194.95 172.591 194.624 173.992 194.336H173.999C176.629 193.783 179.57 193.371 182.775 193.231C182.775 193.231 182.768 193.231 182.775 193.223C184.907 193.122 187.155 193.146 189.513 193.332C189.521 193.332 189.521 193.332 189.521 193.332C190.4 193.394 191.294 193.48 192.205 193.597C193.348 193.737 194.523 193.916 195.713 194.141C195.713 194.141 195.713 194.141 195.721 194.149C195.853 194.359 198.016 197.798 198.911 206.885V206.893C199.098 208.682 199.23 210.689 199.284 212.938Z" fill="#F9A620"/>
<path d="M169.783 202.387C169.783 202.387 165.723 192.384 178.401 191.254C191.08 190.124 193.587 198.033 193.587 198.033L187.698 195.994L184.555 210.349C184.555 210.349 182.196 202.287 173.505 197.586L169.783 202.387Z" fill="#F9A620"/>
<path opacity="0.6" d="M169.783 202.387C169.783 202.387 165.723 192.384 178.401 191.254C191.08 190.124 193.587 198.033 193.587 198.033L187.698 195.994L184.555 210.349C184.555 210.349 182.196 202.287 173.505 197.586L169.783 202.387Z" fill="#D1D1D1"/>
<path d="M184.085 203.989C179.336 198.859 173.062 195.296 173.062 195.296C176.096 192.728 175.783 188.682 175.178 186.136C174.851 184.727 174.429 183.778 174.429 183.778L182.853 185.819C182.556 187.212 182.396 188.39 182.335 189.385C182.259 190.477 182.311 191.345 182.436 192.029C182.879 194.602 184.326 194.715 184.326 194.715C185.672 197.585 184.085 203.989 184.085 203.989Z" fill="#E4897B"/>
<path opacity="0.2" d="M182.334 189.385C182.258 190.477 182.31 191.345 182.435 192.029C179.08 191.406 176.662 188.568 175.177 186.136C174.85 184.727 174.428 183.778 174.428 183.778L182.852 185.819C182.555 187.212 182.395 188.39 182.334 189.385Z" fill="#2B2B2B"/>
<path d="M179.662 161.654C188.837 161.654 189.608 166.088 190.134 173.73C190.791 183.28 188.659 190.058 179.394 187.998C166.81 185.2 167.349 161.654 179.662 161.654Z" fill="#E4897B"/>
<path d="M185.344 173.304C185.344 173.304 186.367 175.243 187.494 176.384C187.494 176.384 186.857 177.39 185.538 177.218L185.344 173.304Z" fill="#DE5753"/>
<path d="M180.807 172.688C180.819 173.297 180.501 173.797 180.095 173.806C179.689 173.814 179.35 173.327 179.336 172.719C179.323 172.11 179.642 171.61 180.048 171.6C180.454 171.592 180.794 172.079 180.807 172.688Z" fill="#2B2B2B"/>
<path d="M179.879 171.634L181.193 171.086C181.193 171.086 180.557 172.215 179.879 171.634Z" fill="#2B2B2B"/>
<path d="M188.375 172.401C188.388 173.01 188.069 173.51 187.663 173.519C187.257 173.527 186.918 173.04 186.905 172.432C186.891 171.823 187.21 171.322 187.617 171.313C188.023 171.305 188.363 171.792 188.375 172.401Z" fill="#2B2B2B"/>
<path d="M187.447 171.347L188.761 170.799C188.761 170.799 188.125 171.928 187.447 171.347Z" fill="#2B2B2B"/>
<path d="M180.743 167.568C180.743 167.568 178.66 167.293 177.525 168.681" stroke="#2B2B2B" stroke-width="0.708" stroke-miterlimit="10" stroke-linecap="round" stroke-linejoin="round"/>
<path d="M186.133 167.267C186.133 167.267 187.444 166.785 189.086 167.883" stroke="#2B2B2B" stroke-width="0.708" stroke-miterlimit="10" stroke-linecap="round" stroke-linejoin="round"/>
<path d="M171.687 174.574C171.687 174.574 175.167 168.49 174.652 163.787C174.652 163.787 179.88 158.396 186.923 163.724C186.923 163.724 189.867 168.791 190.05 172.731C190.05 172.731 191.515 159.493 178.77 159.169C166.046 158.846 166.038 177.491 172.608 183.062C172.608 183.062 169.534 178.379 171.687 174.574Z" fill="#2B2B2B"/>
<path d="M172.893 176.142C172.846 174.948 171.619 172.925 169.398 173.163C167.1 173.409 165.994 178.122 171.707 179.269C172.527 179.433 172.991 178.634 172.893 176.142Z" fill="#E4897B"/>
<path d="M184.534 181.234C184.534 181.234 181.427 181.936 180.141 179.16" stroke="#2B2B2B" stroke-width="0.708" stroke-miterlimit="10" stroke-linecap="round" stroke-linejoin="round"/>
<path d="M174.652 163.787C174.652 163.787 183.124 160.025 188.731 164.993C188.731 164.993 190.933 158.454 183.42 156.224C175.906 153.993 168.266 161.507 168.266 161.507L174.652 163.787Z" fill="#2B2B2B"/>
<path d="M174.652 163.787C174.652 163.787 169.705 168.667 170.421 178.384C171.137 188.1 170.196 194.245 168.265 200.326C166.334 206.407 171.388 208.222 171.388 208.222C171.388 208.222 165.629 209.642 164.442 203.479C163.664 199.436 165.516 190.674 164.584 180.237C163.652 169.8 167.374 162.425 174.652 163.787Z" fill="#2B2B2B"/>
<path opacity="0.2" d="M165.419 212.938H163.777C163.63 212.269 163.482 211.6 163.326 210.938L164.563 209.857L164.587 209.833C164.587 209.833 165.014 211.016 165.419 212.938Z" fill="#2B2B2B"/>
<path d="M164.57 212.938H156.635V202.022C157.934 200.855 159.039 200 159.84 199.556C159.84 199.556 159.84 199.556 159.848 199.564C160.066 199.642 163.489 200.972 164.166 205.166C164.399 206.613 164.516 208.285 164.563 209.857C164.594 210.962 164.586 212.027 164.57 212.938Z" fill="#F9A620"/>
<path opacity="0.6" d="M164.57 212.938H156.635V202.022C157.934 200.855 159.039 200 159.84 199.556C159.84 199.556 159.84 199.556 159.848 199.564C160.066 199.642 163.489 200.972 164.166 205.166C164.399 206.613 164.516 208.285 164.563 209.857C164.594 210.962 164.586 212.027 164.57 212.938Z" fill="#D1D1D1"/>
<path opacity="0.3" d="M204.231 223H154.301V289.207H204.231V223Z" fill="#2B2B2B"/>
<path opacity="0.3" d="M195.841 233.258H161.784C160.966 233.258 160.303 232.595 160.303 231.777C160.303 230.959 160.966 230.295 161.784 230.295H195.841C196.659 230.295 197.322 230.958 197.322 231.777C197.322 232.595 196.659 233.258 195.841 233.258Z" fill="#D1D1D1"/>
<path opacity="0.3" d="M195.841 241.539H161.784C160.966 241.539 160.303 240.876 160.303 240.058C160.303 239.24 160.966 238.577 161.784 238.577H195.841C196.659 238.577 197.322 239.24 197.322 240.058C197.322 240.876 196.659 241.539 195.841 241.539Z" fill="#D1D1D1"/>
<path opacity="0.3" d="M180.281 249.821H161.784C160.966 249.821 160.303 249.158 160.303 248.34C160.303 247.522 160.966 246.858 161.784 246.858H180.281C181.099 246.858 181.762 247.521 181.762 248.34C181.762 249.158 181.099 249.821 180.281 249.821Z" fill="#D1D1D1"/>
<path opacity="0.3" d="M195.841 258.102H161.784C160.966 258.102 160.303 257.439 160.303 256.62C160.303 255.803 160.966 255.139 161.784 255.139H195.841C196.659 255.139 197.322 255.802 197.322 256.62C197.322 257.439 196.659 258.102 195.841 258.102Z" fill="#D1D1D1"/>
<path opacity="0.3" d="M195.841 266.384H161.784C160.966 266.384 160.303 265.721 160.303 264.902C160.303 264.085 160.966 263.421 161.784 263.421H195.841C196.659 263.421 197.322 264.084 197.322 264.902C197.322 265.72 196.659 266.384 195.841 266.384Z" fill="#D1D1D1"/>
<path opacity="0.3" d="M172.501 274.665H161.784C160.966 274.665 160.303 274.002 160.303 273.183C160.303 272.366 160.966 271.702 161.784 271.702H172.501C173.319 271.702 173.982 272.365 173.982 273.183C173.982 274.002 173.319 274.665 172.501 274.665Z" fill="#D1D1D1"/>
<path opacity="0.3" d="M188.061 282.947H161.784C160.966 282.947 160.303 282.284 160.303 281.465C160.303 280.648 160.966 279.984 161.784 279.984H188.061C188.879 279.984 189.542 280.647 189.542 281.465C189.542 282.283 188.879 282.947 188.061 282.947Z" fill="#D1D1D1"/>
</g>
<defs>
<clipPath id="clip0_405_26703">
<rect width="389" height="389" fill="white" transform="translate(0.667969)"/>
</clipPath>
</defs>
</svg>
